<svg width="48" height="48" viewBox="0 0 48 48" fill="none" xmlns="http://www.w3.org/2000/svg">
<rect width="48" height="48" rx="24" fill="#F26B7D"/>
<path fill-rule="evenodd" clip-rule="evenodd" d="M20.0002 17.7V15.5C20.0002 15.2239 20.224 15 20.5002 15H24.0002H27.5002C27.7763 15 28.0002 15.2239 28.0002 15.5V17.7C28.0002 17.7 28.6741 18.1971 29.5271 19H18.4733C19.3263 18.1971 20.0002 17.7 20.0002 17.7ZM15.0137 24.5804L17.3336 22.5L20.6669 25.4892L24.0002 22.5L27.3336 25.4892L30.6669 22.5L32.9867 24.5803C32.8666 23.1421 31.9621 21.6941 30.9556 20.5H17.0448C16.0383 21.6941 15.1337 23.1421 15.0137 24.5804ZM32.8241 26.4453L30.6669 24.5108L27.3336 27.5L24.0002 24.5108L20.6669 27.5L17.3336 24.5108L15.1763 26.4454C15.3959 27.4839 15.7966 28.5437 16.2364 29.5H31.764C32.2038 28.5437 32.6044 27.4838 32.8241 26.4453ZM18.2145 33C18.2145 33 17.6501 32.1944 16.9943 31H31.0061C30.3503 32.1944 29.7859 33 29.7859 33H24.0002H18.2145Z" fill="white"/>
</svg>
