<svg width="48" height="48" viewBox="0 0 48 48" fill="none" xmlns="http://www.w3.org/2000/svg">
<rect width="48" height="48" rx="24" fill="#7F8B99"/>
<path fill-rule="evenodd" clip-rule="evenodd" d="M33.9261 25.2215C33.9749 24.8211 34 24.4135 34 24C34 18.4772 29.5228 14 24 14C18.4772 14 14 18.4772 14 24C14 29.5228 18.4772 34 24 34C24.0084 34 24.0167 34 24.0251 34C26.2758 33.9994 28.3527 33.2554 30.0236 32H30.001C30.7679 31.4238 31.4493 30.7399 32.0227 29.9707V30.001C33.0425 28.6436 33.7249 27.0183 33.9454 25.2496C33.939 25.2402 33.9326 25.2308 33.9261 25.2215ZM31.9354 22.9782C31.4336 19.0424 28.0721 16 24 16C19.9124 16 16.5408 19.0656 16.059 23.0232C18.1777 21.1423 20.9668 20 24.0227 20C27.0541 20 29.8231 21.1241 31.9354 22.9782ZM31.748 26H30.0227C27.8135 26 26.0227 27.7909 26.0227 30V31.7421C28.8231 31.0125 31.0264 28.8037 31.748 26ZM22.0227 31.7538V30C22.0227 27.7909 20.2318 26 18.0227 26H16.252C16.9775 28.8188 19.2007 31.0363 22.0227 31.7538ZM26.0227 24C26.0227 25.1046 25.1272 26 24.0227 26C22.9181 26 22.0227 25.1046 22.0227 24C22.0227 22.8954 22.9181 22 24.0227 22C25.1272 22 26.0227 22.8954 26.0227 24Z" fill="white"/>
</svg>
