<svg width="48" height="48" viewBox="0 0 48 48" fill="none" xmlns="http://www.w3.org/2000/svg">
<rect width="48" height="48" rx="24" fill="#E35FDE"/>
<path fill-rule="evenodd" clip-rule="evenodd" d="M22.2527 24.656L20.0663 27.4106C19.6906 27.2629 19.2823 27.1818 18.8553 27.1818C17.0022 27.1818 15.5 28.7081 15.5 30.5909C15.5 32.4737 17.0022 34 18.8553 34C20.7083 34 22.2105 32.4737 22.2105 30.5909C22.2105 30.0938 22.1058 29.6216 21.9176 29.1957L24 26.7273L26.0824 29.1958C25.8942 29.6216 25.7895 30.0939 25.7895 30.591C25.7895 32.4738 27.2917 34.0001 29.1447 34.0001C30.9978 34.0001 32.5 32.4738 32.5 30.591C32.5 28.7082 30.9978 27.1819 29.1447 27.1819C28.7178 27.1819 28.3094 27.2629 27.9338 27.4107L17.2895 14C16.4659 15.9524 16.8077 18.2017 18.1741 19.8213L22.2527 24.656ZM26.8106 23.3956L29.8259 19.8213C31.1922 18.2017 31.534 15.9524 30.7105 14L25.0319 21.1545L26.8106 23.3956ZM20.6447 30.5908C20.6447 31.595 19.8436 32.409 18.8553 32.409C17.867 32.409 17.0658 31.595 17.0658 30.5908C17.0658 29.5867 17.867 28.7726 18.8553 28.7726C19.8436 28.7726 20.6447 29.5867 20.6447 30.5908ZM30.9342 30.5909C30.9342 31.595 30.133 32.4091 29.1447 32.4091C28.1564 32.4091 27.3552 31.595 27.3552 30.5909C27.3552 29.5867 28.1564 28.7727 29.1447 28.7727C30.133 28.7727 30.9342 29.5867 30.9342 30.5909ZM24.671 24.4545C24.671 24.8311 24.3706 25.1363 24 25.1363C23.6294 25.1363 23.3289 24.8311 23.3289 24.4545C23.3289 24.078 23.6294 23.7727 24 23.7727C24.3706 23.7727 24.671 24.078 24.671 24.4545Z" fill="white"/>
</svg>
