<svg width="48" height="48" viewBox="0 0 48 48" fill="none" xmlns="http://www.w3.org/2000/svg">
<rect width="48" height="48" rx="24" fill="#C97B8A"/>
<path fill-rule="evenodd" clip-rule="evenodd" d="M23.9363 22C24.3558 21.9675 24.3558 21.3699 24.3558 21.2831V19.1268C24.3558 16.3399 26.3812 14 29.0555 14C30.2366 14 31.0853 14.3263 31.7866 14.8827L31.8114 14.9036C31.9231 14.993 32.0314 15.0888 32.1364 15.1909C32.3158 15.3659 32.4886 15.5561 32.6546 15.7616C33.033 16.2277 32.9738 16.5235 32.477 16.649C32.2417 16.708 32.0503 16.9058 32.0503 17.157V20.5479C32.0506 20.6366 32.034 20.7245 32.0015 20.8065C31.9691 20.8885 31.9214 20.9631 31.8612 21.026C31.801 21.0889 31.7295 21.1388 31.6507 21.173C31.572 21.2072 31.4875 21.2249 31.4021 21.2251H31.2877C31.0286 21.2251 30.8455 21.2251 30.5662 21.0026C30.4801 20.9313 30.3981 20.8548 30.3208 20.7733L29.0839 19.6947L29.0262 19.65C28.9109 19.5568 28.8697 19.5235 28.7635 19.5682C28.6545 19.6129 28.5868 20.0362 28.5859 20.2416C28.5863 20.2683 28.5878 20.295 28.5904 20.3215L29.3696 24L29.369 23.9998C29.4159 24.1327 29.4539 24.2702 29.4822 24.4117L30.5302 29.6516C29.5203 29.9162 28.4863 30.1216 27.4324 30.2638C27.0868 28.4063 25.4577 27 23.5 27C21.5861 27 19.9862 28.3442 19.5927 30.14C18.5439 29.9642 17.5164 29.7256 16.5142 29.4283L17.3568 25.2155C17.7307 23.3458 19.3724 22 21.2791 22H23.9363ZM32.9282 31.4848C32.7462 30.9655 32.1782 30.6939 31.6522 30.8556C29.233 31.5995 26.6633 32 24.0001 32C20.9785 32 18.0774 31.4845 15.3797 30.5368C14.8604 30.3544 14.2821 30.6035 14.0799 31.1154C13.8778 31.6272 14.1284 32.2078 14.6471 32.3917C20.343 34.4104 26.5407 34.5319 32.3114 32.738C32.8369 32.5746 33.1101 32.0042 32.9282 31.4848ZM13 27.9999C13 25.0489 15.1305 22.5954 17.9374 22.0938C16.999 22.8304 16.3173 23.8925 16.0695 25.1342L15.6173 27.4005C14.8263 27.7846 13.9383 27.9999 13 27.9999Z" fill="white"/>
</svg>
