<svg width="48" height="48" viewBox="0 0 48 48" fill="none" xmlns="http://www.w3.org/2000/svg">
<rect width="48" height="48" rx="24" fill="#F27F0C"/>
<path fill-rule="evenodd" clip-rule="evenodd" d="M16 14L16 34L18 34L18 33L20.5 33L20.5 34L27.5 34L27.5 33L30 33L30 34L32 34L32 14L30 14L30 15.5L27.5 15.5L27.5 14L20.5 14L20.5 15.5L18 15.5L18 14L16 14ZM18 18L20.5 18L20.5 20.5L18 20.5L18 18ZM27.5 18L30 18L30 20.5L27.5 20.5L27.5 18ZM20.5 23L18 23L18 25.5L20.5 25.5L20.5 23ZM27.5 23L30 23L30 25.5L27.5 25.5L27.5 23ZM20.5 28L18 28L18 30.5L20.5 30.5L20.5 28ZM27.5 28L30 28L30 30.5L27.5 30.5L27.5 28Z" fill="white"/>
</svg>
