<svg width="48" height="48" viewBox="0 0 48 48" fill="none" xmlns="http://www.w3.org/2000/svg">
<rect width="48" height="48" rx="24" fill="#AA79F2"/>
<path fill-rule="evenodd" clip-rule="evenodd" d="M26.5693 15.8727C27.1018 15.4188 27.8418 15.1978 28.438 15.5641C29.2997 16.0936 30.2019 16.8036 30.9015 17.5533C32.2343 18.9847 32.7833 20.2967 33 20.999C32.3594 21.5859 31.2353 22.7285 30.5599 23.422C30.1993 23.7923 30 24.2886 30 24.8055V29.9999C30 32.3561 26 32.9999 24.0006 32.9999C22.0013 32.9999 18 32.3557 18 29.9999V24.8054C18 24.2885 17.8008 23.7923 17.4402 23.422C16.765 22.7285 15.641 21.586 15 20.999C15.218 20.2967 15.767 18.9847 17.0998 17.5533C17.9667 16.6219 18.7723 16.0029 19.5529 15.5446C20.1563 15.1904 20.8993 15.4189 21.4317 15.8728C22.9985 17.2089 25.0018 17.2089 26.5693 15.8727ZM25.75 22.7499C26.7165 22.7499 27.5 21.9664 27.5 20.9999H24C24 21.9664 24.7835 22.7499 25.75 22.7499Z" fill="white"/>
</svg>
