<svg width="48" height="48" viewBox="0 0 48 48" fill="none" xmlns="http://www.w3.org/2000/svg">
<rect width="48" height="48" rx="24" fill="#5B9DF0"/>
<path fill-rule="evenodd" clip-rule="evenodd" d="M28 16H27C27 17.1046 26.1046 18 25 18H23C21.8954 18 21 17.1046 21 16H20C18.8954 16 18 16.8954 18 18V30C18 31.1046 18.8954 32 20 32H28C29.1046 32 30 31.1046 30 30V18C30 16.8954 29.1046 16 28 16ZM28 14H25H23H20C17.7909 14 16 15.7909 16 18V30C16 32.2091 17.7909 34 20 34H28C30.2091 34 32 32.2091 32 30V18C32 15.7909 30.2091 14 28 14ZM22 28C21.4477 28 21 28.4477 21 29C21 29.5523 21.4477 30 22 30H26C26.5523 30 27 29.5523 27 29C27 28.4477 26.5523 28 26 28H22Z" fill="white"/>
</svg>
