<svg width="48" height="48" viewBox="0 0 48 48" fill="none" xmlns="http://www.w3.org/2000/svg">
<rect width="48" height="48" rx="24" fill="#15D1A5"/>
<path fill-rule="evenodd" clip-rule="evenodd" d="M29.8286 14.6073C30.5829 13.8122 31.8444 13.7956 32.6194 14.5706C33.3943 15.3455 33.3777 16.607 32.5826 17.3613L28.1404 21.5758L28.7206 23H23V26.4525L21.6755 27.7091L22.9393 32.1325C23.0221 32.4222 22.9413 32.734 22.7283 32.947C22.3581 33.3172 21.7419 33.2562 21.4515 32.8206L19.7391 30.2519C19.3702 29.6986 18.9475 29.183 18.4772 28.7128C18.007 28.2425 17.4914 27.8199 16.9381 27.451L14.3694 25.7385C13.9339 25.4482 13.8728 24.8319 14.243 24.4617C14.456 24.2487 14.7678 24.1679 15.0575 24.2507L19.4808 25.5145L22.2433 22.6026L15.9146 17.4794C15.3946 17.0584 15.3537 16.2797 15.8268 15.8067C16.1474 15.4861 16.6289 15.3888 17.0488 15.5599L25.6142 19.0495L29.8286 14.6073ZM35 25V35H25V25H35ZM28.0554 26.7648V26.7648C28.0554 27.9019 28.926 28.8237 29.9999 28.8237C31.0738 28.8237 31.9443 27.9019 31.9443 26.7648V26.7648H28.0554Z" fill="white"/>
</svg>
