<svg width="48" height="48" viewBox="0 0 48 48" fill="none" xmlns="http://www.w3.org/2000/svg">
<rect width="48" height="48" rx="24" fill="#C97B8A"/>
<path d="M30 27.4785C30 28.2523 29.6284 28.9728 29.0342 29.3438L24.3916 32.2373C23.8345 32.5871 23.1655 32.5871 22.6084 32.2373L17.9658 29.3438C17.3716 28.9728 17 28.2523 17 27.4785V24.5L22.6084 27.998C23.1655 28.3478 23.8345 28.3478 24.3916 27.998L30 24.5V27.4785ZM22.5596 15.7295C23.1334 15.4236 23.8217 15.4236 24.3955 15.7295L33.5029 20.6943C33.8089 20.8666 34 21.1823 34 21.5361V27.668C34 28.1941 33.5691 28.624 33.043 28.624C32.5171 28.6238 32.087 28.1939 32.0869 27.668V22.0146L24.3955 26.25C23.8217 26.5655 23.1334 26.5654 22.5596 26.25L14.4951 21.8135C13.8351 21.45 13.8351 20.4934 14.4951 20.1299L22.5596 15.7295Z" fill="white"/>
</svg>
