<svg width="48" height="48" viewBox="0 0 48 48" fill="none" xmlns="http://www.w3.org/2000/svg">
<rect width="48" height="48" rx="24" fill="#F27F0C"/>
<path fill-rule="evenodd" clip-rule="evenodd" d="M26 16H18.8C17.1198 16 16.2798 16 15.638 16.327C15.0735 16.6146 14.6146 17.0735 14.327 17.638C14 18.2798 14 19.1198 14 20.8V22C15.1046 22 16 22.8954 16 24C16 25.1046 15.1046 26 14 26V27.2C14 28.8802 14 29.7202 14.327 30.362C14.6146 30.9265 15.0735 31.3854 15.638 31.673C16.2798 32 17.1198 32 18.8 32H26V31C26 30.4477 26.4477 30 27 30C27.5523 30 28 30.4477 28 31V32H29.2C30.8802 32 31.7202 32 32.362 31.673C32.9265 31.3854 33.3854 30.9265 33.673 30.362C34 29.7202 34 28.8802 34 27.2V26C32.8954 26 32 25.1046 32 24C32 22.8954 32.8954 22 34 22V20.8C34 19.1198 34 18.2798 33.673 17.638C33.3854 17.0735 32.9265 16.6146 32.362 16.327C31.7202 16 30.8802 16 29.2 16H28V17C28 17.5523 27.5523 18 27 18C26.4477 18 26 17.5523 26 17V16ZM27 20C26.4477 20 26 20.4477 26 21V22C26 22.5523 26.4477 23 27 23C27.5523 23 28 22.5523 28 22V21C28 20.4477 27.5523 20 27 20ZM26 26C26 25.4477 26.4477 25 27 25C27.5523 25 28 25.4477 28 26V27C28 27.5523 27.5523 28 27 28C26.4477 28 26 27.5523 26 27V26Z" fill="white"/>
</svg>
