<svg width="48" height="48" viewBox="0 0 48 48" fill="none" xmlns="http://www.w3.org/2000/svg">
<rect width="48" height="48" rx="24" fill="#31CC7E"/>
<path d="M24 14C29.5228 14 34 18.4772 34 24C34 29.5228 29.5228 34 24 34C18.4772 34 14 29.5228 14 24C14 18.4772 18.4772 14 24 14ZM24 16C19.5817 16 16 19.5817 16 24C16 28.4183 19.5817 32 24 32C28.4183 32 32 28.4183 32 24C32 19.5817 28.4183 16 24 16ZM25 19.0049C25.8645 19.0323 26.5451 19.2525 27.041 19.6689C27.5718 20.1148 27.8369 20.7422 27.8369 21.5508V22.1729H25.5381V21.7529C25.5381 21.3486 25.4476 21.0739 25.2666 20.9287C25.0856 20.7836 24.754 20.7109 24.2715 20.7109H23.5654C23.0708 20.711 22.7327 20.7941 22.5518 20.96C22.3831 21.1156 22.2988 21.4264 22.2988 21.8926V22.1885C22.299 22.6756 22.794 22.9558 23.7832 23.0283C24.8086 23.1009 25.7194 23.2768 26.5156 23.5566C26.9379 23.7121 27.2879 23.9922 27.5654 24.3965C27.855 24.7905 28 25.2988 28 25.9209V26.4492C28 27.2577 27.7348 27.8852 27.2041 28.3311C26.674 28.7762 25.939 28.9983 25 28.999V31H23V28.999C22.0696 28.9955 21.3411 28.7733 20.8145 28.3311C20.2836 27.8852 20.0186 27.2579 20.0186 26.4492V26.1387C20.0186 25.9209 20.0352 25.8115 20.0352 25.8115H22.3164V26.2627C22.3164 26.6564 22.4071 26.9261 22.5879 27.0713C22.7689 27.2164 23.1013 27.2891 23.584 27.2891H24.4346C24.9051 27.289 25.2311 27.2112 25.4121 27.0557C25.6049 26.9001 25.7011 26.6101 25.7012 26.1855V25.998C25.701 25.6976 25.5561 25.4699 25.2666 25.3145C24.9891 25.1486 24.639 25.0497 24.2168 25.0186C23.7946 24.9874 23.3363 24.9306 22.8418 24.8477C22.3593 24.7544 21.9066 24.6406 21.4844 24.5059C21.0621 24.3607 20.7056 24.0859 20.416 23.6816C20.1385 23.2669 20 22.7375 20 22.0947V21.5508C20 20.7423 20.2652 20.1148 20.7959 19.6689C21.326 19.2238 22.061 19.0007 23 19V17H25V19.0049Z" fill="white"/>
</svg>
