<svg width="48" height="48" viewBox="0 0 48 48" fill="none" xmlns="http://www.w3.org/2000/svg">
<rect width="48" height="48" rx="24" fill="#15D1A5"/>
<path d="M21.1708 25.4143L25.4134 21.1717L22.585 18.3433L23.9992 16.929C24.3897 16.5385 25.0229 16.5385 25.4134 16.929L31.0702 22.5859C31.4608 22.9764 31.4608 23.6096 31.0702 24.0001L29.656 25.4143L26.8276 22.5859L22.585 26.8285L25.4134 29.657L23.9992 31.0712C23.6087 31.4617 22.9755 31.4617 22.585 31.0712L16.9281 25.4143C16.5376 25.0238 16.5376 24.3906 16.9281 24.0001L18.3423 22.5859L21.1708 25.4143ZM21.1708 31.0712L20.4636 31.7783C20.0731 32.1688 19.44 32.1688 19.0494 31.7783L18.3423 31.0712C17.9518 31.4617 17.3186 31.4617 16.9281 31.0712C16.5621 30.7051 16.5389 30.1257 16.8591 29.7329L16.9281 29.657L16.221 28.9499C15.8305 28.5593 15.8305 27.9262 16.221 27.5356L16.9281 26.8285L21.1708 31.0712ZM27.5347 16.2219C27.9252 15.8314 28.5584 15.8314 28.9489 16.2219L29.656 16.929L29.732 16.86C30.1248 16.5398 30.7042 16.563 31.0702 16.929C31.4608 17.3196 31.4608 17.9527 31.0702 18.3433L31.7774 19.0504C32.1679 19.4409 32.1679 20.0741 31.7774 20.4646L31.0702 21.1717L26.8276 16.929L27.5347 16.2219Z" fill="white"/>
</svg>
