<svg width="48" height="48" viewBox="0 0 48 48" fill="none" xmlns="http://www.w3.org/2000/svg">
<rect width="48" height="48" rx="24" fill="#31CC7E"/>
<path fill-rule="evenodd" clip-rule="evenodd" d="M30 14C26.6863 14 24 16.6863 24 20C24 17.7909 22.2091 16 20 16H19V17C19 19.2091 20.7909 21 23 21V24H17V25.3333C17 25.7015 17.4477 26 18 26H30C30.5523 26 31 25.7015 31 25.3333V24H25V21C28.3137 21 31 18.3137 31 15V14H30ZM19.7215 32.3288L19 28H29L28.2785 32.3288C28.1178 33.2932 27.2834 34 26.3057 34H21.6943C20.7166 34 19.8822 33.2932 19.7215 32.3288Z" fill="white"/>
</svg>
