<svg width="48" height="48" viewBox="0 0 48 48" fill="none" xmlns="http://www.w3.org/2000/svg">
<rect width="48" height="48" rx="24" fill="#C97B8A"/>
<path fill-rule="evenodd" clip-rule="evenodd" d="M16 18C16 16.3431 17.3431 15 19 15H29C30.6569 15 32 16.3431 32 18C29.7909 18 28 19.7909 28 22V25H20V22C20 19.7909 18.2091 18 16 18ZM28 27H20V31H18V22C18 20.8954 17.1046 20 16 20C14.8954 20 14 20.8954 14 22C14 23.1046 14.8954 24 16 24V29C16 30.1046 16.8954 31 18 31V33H20V31H28V33H30V31C31.1046 31 32 30.1046 32 29V24C33.1046 24 34 23.1046 34 22C34 20.8954 33.1046 20 32 20C30.8954 20 30 20.8954 30 22V31H28V27Z" fill="white"/>
</svg>
