<svg width="48" height="48" viewBox="0 0 48 48" fill="none" xmlns="http://www.w3.org/2000/svg">
<rect width="48" height="48" rx="24" fill="#C97B8A"/>
<path d="M29 34H19L18.8184 32H29.1816L29 34ZM19.5 24.498C20.3284 24.498 21 25.1696 21 25.998V30.5H18.6816L18.2031 25.2451C18.4629 24.7985 18.9461 24.498 19.5 24.498ZM24 24.498C24.8284 24.498 25.5 25.1696 25.5 25.998V30.5H22.5V25.998C22.5 25.1696 23.1716 24.498 24 24.498ZM28.5 24.498C29.0533 24.498 29.5349 24.7984 29.7949 25.2441L29.3184 30.5H27V25.998C27 25.1696 27.6716 24.498 28.5 24.498ZM31.7705 21.2988C31.6714 22.2888 31.0976 23.1248 30.2891 23.5938C29.7892 23.2211 29.1714 22.998 28.5 22.998C27.6029 22.998 26.7998 23.3935 26.25 24.0176C25.7002 23.3935 24.8971 22.998 24 22.998C23.1029 22.998 22.2998 23.3935 21.75 24.0176C21.2002 23.3935 20.3971 22.998 19.5 22.998C18.828 22.998 18.2091 23.2206 17.709 23.5938C16.9013 23.1245 16.3285 22.2882 16.2295 21.2988L15.5 14H32.5L31.7705 21.2988Z" fill="white"/>
</svg>
