<svg width="48" height="48" viewBox="0 0 48 48" fill="none" xmlns="http://www.w3.org/2000/svg">
<rect width="48" height="48" rx="24" fill="#AA79F2"/>
<path fill-rule="evenodd" clip-rule="evenodd" d="M23.9323 15.5165C23.9549 15.5183 23.9774 15.52 24 15.5215V14C19.9375 14.0001 16.443 16.4249 14.8779 19.9043C14.5847 20.5564 14.3566 21.2446 14.208 21.9619L14.1982 22.0088C14.0682 22.6522 14 23.3183 14 24C14 24.6827 14.0689 25.3499 14.1992 25.9941C14.2005 26.0006 14.2017 26.0071 14.2029 26.0136C14.2042 26.0208 14.2056 26.028 14.207 26.0352C14.3582 26.7665 14.5922 27.4674 14.8936 28.1309C16.3396 31.3136 19.4019 33.605 23.0342 33.9531C23.3519 33.9836 23.6743 34 24 34V32.4785C23.9748 32.4801 23.9496 32.4822 23.9244 32.4842C23.8852 32.4874 23.846 32.4906 23.8066 32.4922C22.1685 32.3615 20.7572 30.5777 20.0283 28H24V26.5H19.6982C19.5698 25.71 19.5 24.8705 19.5 24.001C19.5 23.1311 19.5697 22.2912 19.6982 21.501H24V20.001H20.0293C20.7596 17.4204 22.1735 15.6344 23.8145 15.5088C23.8538 15.5104 23.8931 15.5135 23.9323 15.5165ZM20.208 31.7471C18.5967 30.9727 17.27 29.6497 16.4404 28H18.501C18.8853 29.4659 19.4747 30.748 20.208 31.7471ZM15.5 24.001C15.5 23.1309 15.6239 22.2914 15.8525 21.501H18.1885C18.0652 22.2995 18.0001 23.1374 18 24C18 24.863 18.0651 25.7012 18.1885 26.5H15.8516C15.6231 25.7099 15.5 24.8706 15.5 24.001ZM16.4395 20.001C17.2688 18.3522 18.5957 17.0291 20.2061 16.2549C19.4735 17.2537 18.8851 18.5361 18.501 20.001H16.4395ZM24.0003 34C28.1006 33.9999 31.6232 31.5315 33.1663 28H29.4993C28.5736 31.5312 26.4602 33.9993 24.0003 34ZM24.0003 32.501C25.7198 32.5003 27.2147 30.6779 27.972 28H24.0003V32.501ZM34.0003 24C34.0003 23.1372 33.8914 22.2997 33.6859 21.501H29.8118C29.9351 22.2996 30.0003 23.1373 30.0003 24C30.0003 24.8629 29.9352 25.7012 29.8118 26.5H33.6859C33.8914 25.7012 34.0003 24.863 34.0003 24ZM28.5003 24.001C28.5003 23.1311 28.4307 22.2913 28.3021 21.501H24.0003V26.5H28.3021C28.4305 25.7101 28.5003 24.8704 28.5003 24.001ZM33.1663 20.001C31.6232 16.4694 28.1007 14.0001 24.0003 14C26.4602 14.0007 28.5736 16.4696 29.4993 20.001H33.1663ZM27.971 20.001C27.2136 17.3239 25.7195 15.5017 24.0003 15.501V20.001H27.971Z" fill="white"/>
</svg>
