<svg width="48" height="48" viewBox="0 0 48 48" fill="none" xmlns="http://www.w3.org/2000/svg">
<rect width="48" height="48" rx="24" fill="#31CC7E"/>
<path d="M32.1631 30.4551C31.9384 31.9189 30.6811 32.9998 29.2002 33H18.7998C17.3189 32.9998 16.0616 31.9189 15.8369 30.4551L15 25H33L32.1631 30.4551ZM18.6104 30.4141C18.6907 30.8961 19.108 31.2498 19.5967 31.25H21L20.5 26.75H18L18.6104 30.4141ZM23 31.25H25L25.25 26.75H22.75L23 31.25ZM27 31.25H28.4033C28.892 31.2498 29.3093 30.8961 29.3896 30.4141L30 26.75H27.5L27 31.25ZM19.9541 21H28.0459L26 15H26.3184C26.8281 15.0001 27.303 15.259 27.5791 15.6875L31 21H34V23C34 23.5523 33.5523 24 33 24H15C14.4477 24 14 23.5523 14 23V21H17L18.71 18.3438L20.4209 15.6875C20.697 15.259 21.1719 15.0001 21.6816 15H22L19.9541 21Z" fill="white"/>
</svg>
