<svg width="48" height="48" viewBox="0 0 48 48" fill="none" xmlns="http://www.w3.org/2000/svg">
<rect width="48" height="48" rx="24" fill="#C97B8A"/>
<path fill-rule="evenodd" clip-rule="evenodd" d="M18 14C16.8954 14 16 14.8954 16 16V19C16 20.1046 16.8954 21 18 21H28C29.1046 21 30 20.1046 30 19V16C30 14.8954 29.1046 14 28 14H18ZM32 16C33.1046 16 34 16.8954 34 18V20C34 22.7614 31.7614 25 29 25H25C24.4477 25 24 25.4477 24 26V27H25V32C25 33.1046 24.1046 34 23 34C21.8954 34 21 33.1046 21 32V27H22V26C22 24.3431 23.3431 23 25 23H29C30.6569 23 32 21.6569 32 20V16Z" fill="white"/>
</svg>
