<svg width="48" height="48" viewBox="0 0 48 48" fill="none" xmlns="http://www.w3.org/2000/svg">
<rect width="48" height="48" rx="24" fill="#15D1A5"/>
<path fill-rule="evenodd" clip-rule="evenodd" d="M15 18C15 16.8954 15.8954 16 17 16H31C32.1046 16 33 16.8954 33 18V21.1C32.6769 21.0344 32.3425 21 32 21H31V20.5C31 19.6716 30.3284 19 29.5 19H26.5C25.6716 19 25 19.6716 25 20.5V21H23V20.5C23 19.6716 22.3284 19 21.5 19H18.5C17.6716 19 17 19.6716 17 20.5V21H16C15.6575 21 15.3231 21.0344 15 21.1V18ZM13 26C13 24.3431 14.3431 23 16 23H32C33.6569 23 35 24.3431 35 26V27V30V31C35 31.5523 34.5523 32 34 32C33.4477 32 33 31.5523 33 31V30H15V31C15 31.5523 14.5523 32 14 32C13.4477 32 13 31.5523 13 31V30V27V26Z" fill="white"/>
</svg>
