<svg width="48" height="48" viewBox="0 0 48 48" fill="none" xmlns="http://www.w3.org/2000/svg">
<rect width="48" height="48" rx="24" fill="#AA79F2"/>
<path fill-rule="evenodd" clip-rule="evenodd" d="M22 17C22 18.6569 20.6569 20 19 20C17.3431 20 16 18.6569 16 17C16 15.3431 17.3431 14 19 14C20.6569 14 22 15.3431 22 17ZM19 21C21.7614 21 24 22.7909 24 25C24 25.2937 23.9604 25.58 23.8853 25.8558C22.5339 26.5732 20.8395 27 19 27C17.1605 27 15.4661 26.5732 14.1147 25.8557C14.0396 25.58 14 25.2937 14 25C14 22.7909 16.2386 21 19 21ZM32 24C32 25.6569 30.6569 27 29 27C27.3431 27 26 25.6569 26 24C26 22.3431 27.3431 21 29 21C30.6569 21 32 22.3431 32 24ZM29 28C31.7614 28 34 29.7909 34 32C34 32.2937 33.9604 32.58 33.8853 32.8558C32.5339 33.5732 30.8395 34 29 34C27.1605 34 25.4661 33.5732 24.1147 32.8557C24.0396 32.58 24 32.2937 24 32C24 29.7909 26.2386 28 29 28Z" fill="white"/>
</svg>
