<svg width="48" height="48" viewBox="0 0 48 48" fill="none" xmlns="http://www.w3.org/2000/svg">
<rect width="48" height="48" rx="24" fill="#5B9DF0"/>
<path fill-rule="evenodd" clip-rule="evenodd" d="M17 17H31C31.5523 17 32 17.4477 32 18V26C32 26.5523 31.5523 27 31 27H17C16.4477 27 16 26.5523 16 26V18C16 17.4477 16.4477 17 17 17ZM14 18C14 16.3431 15.3431 15 17 15H31C32.6569 15 34 16.3431 34 18V26C34 27.6569 32.6569 29 31 29H27V32H30V34H18V32H21V29H17C15.3431 29 14 27.6569 14 26V18ZM25 32V29H23V32H25Z" fill="white"/>
</svg>
