<svg width="48" height="48" viewBox="0 0 48 48" fill="none" xmlns="http://www.w3.org/2000/svg">
<rect width="48" height="48" rx="24" fill="#AA79F2"/>
<path d="M30 14C31.259 14 32.4539 14.5876 33.1133 15.6602C33.967 17.0489 35 19.0328 35 20.5C35 22.2632 33.6961 23.7212 32 23.9639V31H34V33H14V31H16V23.9639C14.3039 23.7212 13 22.2632 13 20.5C13 19.0328 14.033 17.0489 14.8867 15.6602C15.5461 14.5876 16.741 14 18 14H30ZM28.8984 23.0498C28.272 23.6392 27.428 24 26.5 24C25.572 24 24.728 23.6392 24.1016 23.0498C24.0669 23.0172 24.0333 22.9832 24 22.9492C23.9667 22.9832 23.9331 23.0172 23.8984 23.0498C23.272 23.6392 22.428 24 21.5 24C20.572 24 19.728 23.6392 19.1016 23.0498C19.0669 23.0172 19.0333 22.9832 19 22.9492C18.9667 22.9832 18.9331 23.0172 18.8984 23.0498C18.6345 23.2981 18.3311 23.5048 18 23.6621V31H30V23.6621C29.6691 23.5048 29.3664 23.298 29.1025 23.0498C29.0678 23.0172 29.0333 22.9832 29 22.9492C28.9667 22.9832 28.9331 23.0172 28.8984 23.0498ZM22 27H26V25H28V29H20V25H22V27ZM18 16C17.3454 16 16.8413 16.3005 16.5908 16.708C16.1925 17.3559 15.7744 18.1077 15.4619 18.8379C15.1326 19.6075 15 20.1724 15 20.5C15 21.3284 15.6716 22 16.5 22C16.92 22 17.2967 21.8299 17.5713 21.5498C17.9475 21.1659 18.4625 20.9492 19 20.9492C19.5375 20.9492 20.0525 21.1659 20.4287 21.5498C20.7033 21.8299 21.08 22 21.5 22C21.92 22 22.2967 21.8299 22.5713 21.5498C22.9475 21.1659 23.4625 20.9492 24 20.9492C24.5375 20.9492 25.0525 21.1659 25.4287 21.5498C25.7033 21.8299 26.08 22 26.5 22C26.92 22 27.2967 21.8299 27.5713 21.5498C27.9475 21.1659 28.4625 20.9492 29 20.9492C29.5375 20.9492 30.0525 21.1659 30.4287 21.5498C30.7033 21.8299 31.08 22 31.5 22C32.3284 22 33 21.3284 33 20.5C33 20.1724 32.8674 19.6075 32.5381 18.8379C32.2256 18.1077 31.8075 17.3559 31.4092 16.708C31.1587 16.3005 30.6546 16 30 16H18Z" fill="white"/>
</svg>
