<svg width="48" height="48" viewBox="0 0 48 48" fill="none" xmlns="http://www.w3.org/2000/svg">
<rect width="48" height="48" rx="24" fill="#F27F0C"/>
<path d="M22 29.8154C22 31.574 20.6569 33 19 33C17.3431 33 16 31.574 16 29.8154C16.0002 28.057 17.3433 26.6318 19 26.6318C19.3506 26.6318 19.6872 26.6952 20 26.8125V24.0371C20 23.0787 20.68 22.2549 21.6211 22.0732L22 22V29.8154ZM32 27C32 28.6569 30.6569 30 29 30C27.3431 30 26 28.6569 26 27C26 25.3431 27.3431 24 29 24C29.3506 24 29.6872 24.0603 30 24.1709V22.0332C30 21.0666 30.6916 20.2383 31.6426 20.0654L32 20V27ZM32 15.96C32 16.9132 31.3273 17.7348 30.3926 17.9219L20 20V18.04C20 17.0868 20.6727 16.2652 21.6074 16.0781L32 14V15.96Z" fill="white"/>
</svg>
