<svg width="48" height="48" viewBox="0 0 48 48" fill="none" xmlns="http://www.w3.org/2000/svg">
<rect width="48" height="48" rx="24" fill="#AA79F2"/>
<path fill-rule="evenodd" clip-rule="evenodd" d="M23.4911 14.7287C22.4637 13.7571 20.8008 13.7571 19.7735 14.7287C18.7422 15.7039 18.7422 17.2879 19.7735 18.2632L23.538 21.8232C23.6666 21.9447 23.8352 22.0028 24 21.9999C24.1648 22.0028 24.3334 21.9447 24.462 21.8232L28.2265 18.2632C29.2578 17.2879 29.2578 15.7039 28.2265 14.7287C27.1992 13.7571 25.5363 13.7571 24.5089 14.7287L24 15.2099L23.4911 14.7287ZM19.5414 25.1308L16.7493 26.6597L16.5631 26.3473C16.3535 25.9957 15.8894 25.8753 15.5264 26.0782L14 26.9319L18.213 34L19.7394 33.1464C20.1024 32.9434 20.2267 32.4938 20.0172 32.1423L19.8521 31.8653L20.6415 31.412C20.7528 31.3481 20.8864 31.332 21.0096 31.3678L23.8729 32.1984C25.5061 32.6722 27.2761 32.4657 28.7587 31.6284L32.9941 29.2364C33.7868 28.7887 34.1709 27.8818 33.9275 27.032C33.591 25.8565 32.2236 25.2823 31.0937 25.8437C30.3092 26.2336 29.3543 26.7076 28.6061 27.0774C28.6066 26.7148 28.4953 26.3726 28.3166 26.0815C28.027 25.6099 27.5495 25.2462 27.016 25.078C26.3066 24.8543 25.439 24.5896 24.6732 24.3802C24.2908 24.2756 23.9272 24.1831 23.6181 24.1161C23.3276 24.0532 23.0283 23.9998 22.8025 24C22.2021 24.0006 21.5924 24.1784 21.0521 24.3942C20.5055 24.6126 19.9793 24.891 19.5414 25.1308Z" fill="white"/>
</svg>
