<svg width="48" height="48" viewBox="0 0 48 48" fill="none" xmlns="http://www.w3.org/2000/svg">
<rect width="48" height="48" rx="24" fill="#AA79F2"/>
<path d="M32.5107 26.1436C32.6809 28.5261 32.7666 29.718 32.3555 30.6357C31.994 31.4422 31.3753 32.1064 30.5967 32.5244C29.7106 33 28.5158 33 26.127 33H21.874C19.4856 33 18.2913 32.9999 17.4053 32.5244C16.6266 32.1064 16.0079 31.4422 15.6465 30.6357C15.2352 29.718 15.32 28.5262 15.4902 26.1436L16.001 19H32.001L32.5107 26.1436ZM20.001 21C20.001 23.2091 21.7918 25 24.001 25C26.21 24.9999 28.001 23.2091 28.001 21H26.001C26.001 22.1045 25.1054 22.9999 24.001 23C22.8964 23 22.001 22.1046 22.001 21H20.001ZM24.001 14C26.21 14.0001 28.001 15.7909 28.001 18H26.001C26.001 16.8955 25.1054 16.0001 24.001 16C22.8964 16 22.001 16.8954 22.001 18H20.001C20.001 15.7909 21.7918 14 24.001 14Z" fill="white"/>
</svg>
