<svg width="48" height="48" viewBox="0 0 48 48" fill="none" xmlns="http://www.w3.org/2000/svg">
<rect width="48" height="48" rx="24" fill="#AA79F2"/>
<path d="M30 23C33.3137 23 36 25.6863 36 29C36 32.3137 33.3137 35 30 35C26.6863 35 24 32.3137 24 29C24 25.6863 26.6863 23 30 23ZM22 16H26V14H28V16H29C31.2091 16 33 17.7909 33 20V21.583C32.3692 21.3276 31.6988 21.1506 31 21.0635V20C31 18.8954 30.1046 18 29 18H28V20H26V18H22V20H20V18H19C17.8954 18 17 18.8954 17 20V29C17 30.1046 17.8954 31 19 31H22.252C22.4347 31.71 22.7148 32.3806 23.0732 33H19C16.7909 33 15 31.2091 15 29V20C15 17.7909 16.7909 16 19 16H20V14H22V16ZM28.9707 27.416L28.917 27.4307L28.125 27.5547V28.5176L28.8945 28.3975V28.8428L28.125 28.9629V29.8828L28.8945 29.7617V30.8643C28.9393 31.8264 29.5743 32.3984 30.6143 32.3984C30.9864 32.3974 31.3544 32.3206 31.6963 32.1738L31.7031 32.1709V30.9678L31.6855 30.9775C31.4839 31.0765 31.2617 31.1277 31.0371 31.127C30.5519 31.1269 30.277 31.0477 30.248 30.6572V30.6309C30.248 30.6152 30.2461 30.5995 30.2461 30.583V29.5508L31.875 29.2969V28.3779L30.248 28.6309V28.5039H30.2461V28.1865L31.875 27.9326V26.9697L29.29 27.3721L29.0439 27.4053C29.8586 27.2474 30.326 26.6023 30.3262 25.9609V25.5664H28.9707V27.416ZM21 28H19V26H21V28ZM21 24H19V22H21V24ZM25 24H23V22H25V24Z" fill="white"/>
</svg>
