<svg width="48" height="48" viewBox="0 0 48 48" fill="none" xmlns="http://www.w3.org/2000/svg">
<rect width="48" height="48" rx="24" fill="#C97B8A"/>
<path fill-rule="evenodd" clip-rule="evenodd" d="M21 19C22.3807 19 23.5 17.8807 23.5 16.5C23.5 15.1193 22.3807 14 21 14C19.6193 14 18.5 15.1193 18.5 16.5C18.5 17.8807 19.6193 19 21 19ZM16.5 23C17.8807 23 19 21.8807 19 20.5C19 19.1193 17.8807 18 16.5 18C15.1193 18 14 19.1193 14 20.5C14 21.8807 15.1193 23 16.5 23ZM29.5 16.5C29.5 17.8807 28.3807 19 27 19C25.6193 19 24.5 17.8807 24.5 16.5C24.5 15.1193 25.6193 14 27 14C28.3807 14 29.5 15.1193 29.5 16.5ZM31.5 23C32.8807 23 34 21.8807 34 20.5C34 19.1193 32.8807 18 31.5 18C30.1193 18 29 19.1193 29 20.5C29 21.8807 30.1193 23 31.5 23ZM28.4437 24.8056C28.7334 25.147 29.0277 25.4938 29.34 25.86C29.4179 25.9379 29.4969 26.0163 29.5765 26.0953C30.8347 27.3446 32.2416 28.7413 31.95 30.66C31.66 31.67 30.93 32.69 29.62 32.98C29.2841 33.0444 28.6092 32.9564 27.7368 32.8425C26.7136 32.709 25.4187 32.54 24.08 32.54H23.9C22.5726 32.54 21.2882 32.709 20.2691 32.8431C19.3842 32.9596 18.6993 33.0497 18.36 32.98C17.05 32.69 16.32 31.68 16.03 30.66C15.748 28.7516 17.1539 27.3559 18.4118 26.1071C18.492 26.0275 18.5715 25.9485 18.65 25.87C19.2141 25.2162 19.7165 24.624 20.2337 24.0145C20.5234 23.6731 20.8177 23.3262 21.13 22.96C21.6 22.42 22.18 21.88 22.88 21.64C22.99 21.6 23.1 21.57 23.21 21.55C23.47 21.5 23.74 21.5 24 21.5C24.26 21.5 24.53 21.5 24.78 21.54C24.89 21.56 25 21.59 25.11 21.63C25.81 21.87 26.4 22.41 26.86 22.95C27.4241 23.6038 27.9265 24.196 28.4437 24.8056Z" fill="white"/>
</svg>
