<svg width="48" height="48" viewBox="0 0 48 48" fill="none" xmlns="http://www.w3.org/2000/svg">
<rect width="48" height="48" rx="24" fill="#7F8B99"/>
<path fill-rule="evenodd" clip-rule="evenodd" d="M18 17C18 15.3431 19.3431 14 21 14H29C30.6569 14 32 15.3431 32 17V22C32.5523 22 33 22.4477 33 23V26C32.4477 26 32 26.4477 32 27V31C32 31.5523 32.4477 32 33 32L33 34H17V32C17.5523 32 18 31.5523 18 31V28C18 27.4477 17.5523 27 17 27L17 22.9326C17 22.575 17.1324 22.23 17.3716 21.9641C17.7762 21.5146 18 20.9313 18 20.3267V17ZM17 17L15.5 17L15.5 18.534C15.5 18.8324 15.3815 19.1185 15.1705 19.3295L14.8295 19.6705C14.6185 19.8815 14.5 20.1676 14.5 20.466V25.875C14.5 26.4963 15.0037 27 15.625 27H16V22.9326C16 22.3279 16.2238 21.7446 16.6284 21.2951C16.8676 21.0293 17 20.6843 17 20.3267V17ZM20 17.5C20 16.6716 20.6716 16 21.5 16H28.5C29.3284 16 30 16.6716 30 17.5V21H20V17.5ZM25 29C26.1046 29 27 28.1753 27 27.1579C27 26.1652 26.3495 25.4721 25.6619 24.7395C25.4381 24.5011 25.2105 24.2585 25 24C24.7895 24.2585 24.5619 24.5011 24.3381 24.7395C23.6505 25.4721 23 26.1652 23 27.1579C23 28.1753 23.8954 29 25 29Z" fill="white"/>
</svg>
