<svg width="48" height="48" viewBox="0 0 48 48" fill="none" xmlns="http://www.w3.org/2000/svg">
<rect width="48" height="48" rx="24" fill="#5B9DF0"/>
<path d="M28 19C29.6569 19 31 20.3432 31 22V30C31 31.6569 29.6569 33 28 33H16C14.3431 33 13 31.6569 13 30V22C13 20.3432 14.3431 19 16 19H28ZM32.0039 19.0039C33.6589 19.006 34.9998 20.3485 35 22.0039V30C35 31.6567 33.6567 32.9998 32 33C32.6277 32.1643 33 31.1256 33 30V22C33 20.8763 32.6297 19.8388 32.0039 19.0039ZM21 25H18V27H21V30H23V27H26V25H23V22H21V25ZM24 14C26.2091 14 28 15.7909 28 18H26C26 16.8954 25.1046 16 24 16C22.8954 16 22 16.8954 22 18H20C20 15.7909 21.7909 14 24 14Z" fill="white"/>
</svg>
