<svg width="48" height="48" viewBox="0 0 48 48" fill="none" xmlns="http://www.w3.org/2000/svg">
<rect width="48" height="48" rx="24" fill="#F26B7D"/>
<path fill-rule="evenodd" clip-rule="evenodd" d="M14 18C14 15.7909 15.7909 14 18 14H30C32.2091 14 34 15.7909 34 18V30C34 32.2091 32.2091 34 30 34H18C15.7909 34 14 32.2091 14 30V18ZM16 19C16 17.3431 17.3431 16 19 16H29C30.6568 16 32 17.3431 32 19V26.4102L29.5 25L26.1916 26.8663L19.5 23L16 25.0222V19ZM28 22C29.1046 22 30 21.1046 30 20C30 18.8954 29.1046 18 28 18C26.8954 18 26 18.8954 26 20C26 21.1046 26.8954 22 28 22Z" fill="white"/>
</svg>
