<svg width="48" height="48" viewBox="0 0 48 48" fill="none" xmlns="http://www.w3.org/2000/svg">
<rect width="48" height="48" rx="24" fill="#15D1A5"/>
<path fill-rule="evenodd" clip-rule="evenodd" d="M29.8286 15.4173C30.5829 14.6223 31.8444 14.6057 32.6194 15.3806C33.3943 16.1556 33.3777 17.4171 32.5826 18.1714L28.1404 22.3858L31.6299 30.951C31.801 31.3709 31.7037 31.8525 31.3831 32.1731C30.91 32.6462 30.1314 32.6053 29.7104 32.0853L24.5873 25.7567L21.6755 28.5192L22.9393 32.9426C23.0221 33.2323 22.9413 33.5441 22.7283 33.7571C22.3581 34.1272 21.7419 34.0662 21.4515 33.6306L19.7391 31.062C19.3702 30.5087 18.9475 29.9931 18.4772 29.5228C18.007 29.0526 17.4914 28.6299 16.9381 28.261L14.3694 26.5486C13.9339 26.2582 13.8728 25.642 14.243 25.2718C14.456 25.0588 14.7678 24.978 15.0575 25.0607L19.4808 26.3245L22.2433 23.4127L15.9146 18.2895C15.3946 17.8685 15.3537 17.0898 15.8268 16.6167C16.1474 16.2961 16.6289 16.1989 17.0488 16.3699L25.6142 19.8596L29.8286 15.4173Z" fill="white"/>
</svg>
