<svg width="48" height="48" viewBox="0 0 48 48" fill="none" xmlns="http://www.w3.org/2000/svg">
<rect width="48" height="48" rx="24" fill="#F5BC00"/>
<path fill-rule="evenodd" clip-rule="evenodd" d="M15 31.5V22.5H14.5C13.9477 22.5 13.5 22.0523 13.5 21.5V18.5C13.5 17.9477 13.9477 17.5 14.5 17.5H15V17.104C15 16.1009 15.508 15.1689 16.4393 14.7963C17.8792 14.2202 20.3994 13.5 24 13.5C27.6006 13.5 30.1208 14.2202 31.5607 14.7963C32.492 15.1689 33 16.1025 33 17.1056V17.5H33.5C34.0523 17.5 34.5 17.9477 34.5 18.5V21.5C34.5 22.0523 34.0523 22.5 33.5 22.5H33V31.5L32.9878 31.503H33V33.75C33 34.1642 32.6642 34.5 32.25 34.5H30.15C29.7358 34.5 29.4 34.1642 29.4 33.75V32.1387C27.8995 32.3348 26.0324 32.5 24 32.5C21.9676 32.5 20.1005 32.3348 18.6 32.1386V33.747C18.6 34.1612 18.2642 34.497 17.85 34.497H15.75C15.3358 34.497 15 34.1612 15 33.747V31.5ZM17.4659 16.6205C17.1284 16.8256 17 17.2107 17 17.6056L17 23.1716C17 23.702 17.2398 24.1874 17.7432 24.3544C18.61 24.642 20.41 25 24 25C27.59 25 29.39 24.642 30.2568 24.3544C30.7602 24.1874 31 23.702 31 23.1716V17.6055C31 17.2107 30.8716 16.8256 30.5342 16.6205C29.8029 16.1762 28.0284 15.5 24 15.5C19.9716 15.5 18.1971 16.1762 17.4659 16.6205ZM18 29.5C18.5523 29.5 19 29.0523 19 28.5C19 27.9477 18.5523 27.5 18 27.5C17.4477 27.5 17 27.9477 17 28.5C17 29.0523 17.4477 29.5 18 29.5ZM31 28.5C31 29.0523 30.5523 29.5 30 29.5C29.4477 29.5 29 29.0523 29 28.5C29 27.9477 29.4477 27.5 30 27.5C30.5523 27.5 31 27.9477 31 28.5ZM27 28.5V28.75C27 29.1642 26.6642 29.5 26.25 29.5H21.75C21.3358 29.5 21 29.1642 21 28.75V28.5H27Z" fill="white"/>
</svg>
