<svg width="48" height="48" viewBox="0 0 48 48" fill="none" xmlns="http://www.w3.org/2000/svg">
<rect width="48" height="48" rx="24" fill="#C97B8A"/>
<path fill-rule="evenodd" clip-rule="evenodd" d="M31.9998 18.9386V15C31.9998 14.4477 31.5521 14 30.9998 14H28.9998C28.4475 14 27.9998 14.4477 27.9998 15V15.9694L31.9998 18.9386ZM24.5959 15.4424C24.2419 15.1797 23.7577 15.1797 23.4038 15.4424L14.3043 22.197C13.5307 22.7713 13.9369 24 14.9004 24H15.9998V31C15.9998 32.1045 16.8953 33 17.9998 33H29.9998C31.1044 33 31.9998 32.1045 31.9998 31V24H33.0993C34.0628 24 34.469 22.7713 33.6953 22.197L24.5959 15.4424ZM24.9999 20H22.9999V22H23.2533C22.5474 22 21.9954 22.156 21.5972 22.4681C21.199 22.7802 20.9999 23.2193 20.9999 23.7854V24.1664C20.9999 24.6164 21.104 24.9865 21.3121 25.2768C21.5293 25.5599 21.7963 25.7522 22.113 25.8538C22.4297 25.9482 22.7691 26.028 23.1311 26.0933C23.5021 26.1514 23.846 26.1913 24.1628 26.2131C24.4795 26.2348 24.742 26.3038 24.9501 26.4199C25.1673 26.5288 25.2759 26.6884 25.2759 26.8989V27.0295C25.2759 27.3271 25.2035 27.5303 25.0587 27.6392C24.923 27.7481 24.6786 27.8025 24.3257 27.8025H23.6877C23.3257 27.8025 23.0768 27.7517 22.9411 27.6501C22.8053 27.5485 22.7374 27.3598 22.7374 27.084V26.9969V26.7683H21.0263C21.0263 26.7683 21.0135 26.8445 21.0135 26.9969V27.2146C21.0135 27.7807 21.2125 28.2198 21.6107 28.5319C22.0089 28.844 22.561 29 23.2668 29H22.9999V31H24.9999V29H24.7465C25.4524 29 26.0044 28.844 26.4026 28.5319C26.8008 28.2198 26.9999 27.7807 26.9999 27.2146V26.8445C26.9999 26.409 26.8913 26.0534 26.6741 25.7776C26.4659 25.4946 26.2035 25.2986 25.8868 25.1897C25.2895 24.9938 24.6062 24.8704 23.837 24.8196C23.0949 24.7688 22.7239 24.5728 22.7239 24.2317V24.0249C22.7239 23.6983 22.7872 23.4806 22.9139 23.3717C23.0497 23.2556 23.303 23.1975 23.6741 23.1975H24.2035C24.5655 23.1975 24.8144 23.2483 24.9501 23.3499C25.0858 23.4515 25.1537 23.6439 25.1537 23.9269V24.2208H25.4388H26.5926H26.8777V23.7854C26.8777 23.2193 26.6786 22.7802 26.2804 22.4681C25.8822 22.156 25.3257 22 24.6107 22H24.9999V20Z" fill="white"/>
</svg>
