<svg width="48" height="48" viewBox="0 0 48 48" fill="none" xmlns="http://www.w3.org/2000/svg">
<rect width="48" height="48" rx="24" fill="#F26B7D"/>
<path fill-rule="evenodd" clip-rule="evenodd" d="M21.5858 25.8406L21.9341 33.5015C21.9712 34.3179 21.3193 35 20.5022 35C19.685 35 19.0332 34.3179 19.0703 33.5015L19.4185 25.8415C19.4723 24.6569 19.0812 23.4949 18.322 22.5839C17.48 21.5735 17.0945 20.2593 17.2572 18.9541L17.8758 13.9923C17.9465 13.4255 18.4283 13 18.9995 13V18C18.9995 18.2761 19.2234 18.5 19.4995 18.5C19.7757 18.5 19.9995 18.2761 19.9995 18V13H20.9995V18C20.9995 18.2761 21.2234 18.5 21.4995 18.5C21.7757 18.5 21.9995 18.2761 21.9995 18V13C22.5709 13 23.0528 13.4253 23.1239 13.9922L23.7457 18.9534C23.9093 20.2589 23.524 21.5738 22.6817 22.5845C21.9229 23.4951 21.532 24.6565 21.5858 25.8406ZM29.4267 26.2875L30.4995 25L28.9812 16.6492C28.6815 15.0007 27.5552 13.6222 25.9995 13V33.75C25.9995 34.4404 26.5592 35 27.2495 35C27.9399 35 28.4995 34.4404 28.4995 33.75V28.8482C28.4995 27.9125 28.8276 27.0063 29.4267 26.2875Z" fill="white"/>
</svg>
