<svg width="48" height="48" viewBox="0 0 48 48" fill="none" xmlns="http://www.w3.org/2000/svg">
<rect width="48" height="48" rx="24" fill="#AA79F2"/>
<path fill-rule="evenodd" clip-rule="evenodd" d="M24 34C29.5228 34 34 29.5228 34 24C34 18.4772 29.5228 14 24 14C18.4772 14 14 18.4772 14 24C14 29.5228 18.4772 34 24 34ZM28.5002 21.5C28.5002 23.9853 26.4854 26 24.0002 26C21.5149 26 19.5002 23.9853 19.5002 21.5C19.5002 19.0147 21.5149 17 24.0002 17C26.4854 17 28.5002 19.0147 28.5002 21.5ZM29.8601 29.446C28.3993 31.0171 26.3144 32 23.9999 32C21.6854 32 19.6006 31.0172 18.1398 29.4461C19.7144 28.5447 21.7618 28 24.0001 28C26.2382 28 28.2855 28.5446 29.8601 29.446Z" fill="white"/>
</svg>
