<svg width="48" height="48" viewBox="0 0 48 48" fill="none" xmlns="http://www.w3.org/2000/svg">
<rect width="48" height="48" rx="24" fill="#15D1A5"/>
<path fill-rule="evenodd" clip-rule="evenodd" d="M22.8756 14.0961C22.5938 14.0332 22.3008 14 22.0001 14C19.7909 14 18.0001 15.7909 18.0001 18C18.0001 18.3453 18.0438 18.6804 18.1261 19H16.5C15.1193 19 14 20.1193 14 21.5V23.5C14 24.7095 14.8589 25.7184 16 25.95V30.5C16 31.8807 17.1193 33 18.5 33H23H25H29.5C30.8807 33 32 31.8807 32 30.5V25.95C33.1411 25.7184 34 24.7095 34 23.5V21.5C34 20.1193 32.8807 19 31.5 19H29.874C29.9562 18.6804 30 18.3453 30 18C30 15.7909 28.2091 14 26 14C23.7909 14 22 15.7909 22 18C22 18.3453 22.0437 18.6804 22.126 19H20.2676C20.0975 18.7058 20.0001 18.3643 20.0001 18C20.0001 17.1143 20.5759 16.363 21.3736 16.1001C21.6982 15.3104 22.2191 14.6222 22.8756 14.0961ZM24.2676 19H25H27.7324C27.9026 18.7058 28 18.3643 28 18C28 16.8954 27.1046 16 26 16C24.8954 16 24 16.8954 24 18C24 18.3643 24.0974 18.7058 24.2676 19ZM23 21H16.5C16.2239 21 16 21.2239 16 21.5V23.5C16 23.7761 16.2239 24 16.5 24H23V21ZM25 21V24H31.5C31.7761 24 32 23.7761 32 23.5V21.5C32 21.2239 31.7761 21 31.5 21H25ZM23 26H18V30.5C18 30.7761 18.2239 31 18.5 31H23V26ZM25 31V26H30V30.5C30 30.7761 29.7761 31 29.5 31H25Z" fill="white"/>
</svg>
