<svg width="48" height="48" viewBox="0 0 48 48" fill="none" xmlns="http://www.w3.org/2000/svg">
<rect width="48" height="48" rx="24" fill="#15D1A5"/>
<path fill-rule="evenodd" clip-rule="evenodd" d="M22.7742 14.075C20.9483 14.2992 19.1725 15.0265 17.671 16.2568L21.1278 19.7136C22.4056 18.0717 22.9544 16.0463 22.7742 14.075ZM19.7136 21.1279L16.2567 17.671C15.0264 19.1725 14.2992 20.9484 14.075 22.7742C16.0463 22.9545 18.0717 22.4057 19.7136 21.1279ZM24.7775 14.0301C26.7597 14.1838 28.7049 14.926 30.329 16.2568L24 22.5858L22.5509 21.1367C24.2291 19.0885 24.9713 16.5299 24.7775 14.0301ZM14.0301 24.7776C16.5298 24.9714 19.0885 24.2291 21.1367 22.5509L22.5858 24L16.2567 30.3291C14.926 28.7049 14.1837 26.7598 14.0301 24.7776ZM30.329 31.7433C28.8275 32.9736 27.0517 33.7009 25.2258 33.9251C25.0456 31.9538 25.5944 29.9283 26.8722 28.2864L30.329 31.7433ZM31.7433 30.3291L28.2864 26.8722C29.9283 25.5944 31.9537 25.0456 33.925 25.2258C33.7008 27.0517 32.9735 28.8276 31.7433 30.3291ZM17.671 31.7433C19.2951 33.0741 21.2403 33.8163 23.2225 33.97C23.0287 31.4702 23.7709 28.9116 25.4491 26.8634L24 25.4143L17.671 31.7433ZM26.8633 25.4492C28.9115 23.771 31.4702 23.0287 33.9699 23.2225C33.8163 21.2403 33.074 19.2952 31.7433 17.671L25.4142 24L26.8633 25.4492Z" fill="white"/>
</svg>
