<svg width="48" height="48" viewBox="0 0 48 48" fill="none" xmlns="http://www.w3.org/2000/svg">
<rect width="48" height="48" rx="24" fill="#F5BC00"/>
<path fill-rule="evenodd" clip-rule="evenodd" d="M27 17L26.762 15.8893C26.6508 15.3706 26.1924 15 25.662 15H22.338C21.8076 15 21.3492 15.3706 21.238 15.8893L21 17H27ZM27.618 18.0005H24H20.382C18.7418 18.0005 17.2919 19.0664 16.8027 20.632L16.0627 23H16H15H13.375C13.1679 23 13 23.1679 13 23.375V23.4885C13 24.1522 13.4361 24.7369 14.0721 24.9262L15 25.2024V30V32.25C15 32.6642 15.3358 33 15.75 33H17.9434C18.3193 33 18.6371 32.7217 18.6868 32.3491L18.8667 30.9999H17.75C17.3358 30.9999 17 30.6641 17 30.2499V30H31V30.2499C31 30.6641 30.6642 30.9999 30.25 30.9999H29.1339L29.3132 32.3447C29.3629 32.7173 29.6807 32.9956 30.0566 32.9956H32.25C32.6642 32.9956 33 32.6598 33 32.2456V30V29.9956V25.2024L33.9279 24.9262C34.5639 24.7369 35 24.1522 35 23.4885V23.375C35 23.1679 34.8321 23 34.625 23H33H32H31.9373L31.1973 20.632C30.7081 19.0664 29.2582 18.0005 27.618 18.0005ZM18.6942 21.62L18.2917 23H29.7083L29.3058 21.62C29.0258 20.66 28.1458 20 27.1458 20H20.8542C19.8542 20 18.9742 20.66 18.6942 21.62ZM31.5 25H29.2337C28.9536 25 28.6968 25.1561 28.5679 25.4048L28.284 25.9524C28.1545 26.202 28.3357 26.5 28.6169 26.5H30.75C31.1642 26.5 31.5 26.1642 31.5 25.75V25ZM27 27.2498V26.9998H21V27.2498C21 27.664 21.3358 27.9998 21.75 27.9998H26.25C26.6642 27.9998 27 27.664 27 27.2498ZM16.5 25H18.7663C19.0464 25 19.3032 25.1561 19.4321 25.4048L19.716 25.9524C19.8455 26.202 19.6643 26.5 19.3831 26.5H17.25C16.8358 26.5 16.5 26.1642 16.5 25.75V25Z" fill="white"/>
</svg>
