<svg width="48" height="48" viewBox="0 0 48 48" fill="none" xmlns="http://www.w3.org/2000/svg">
<rect width="48" height="48" rx="24" fill="#5B9DF0"/>
<path fill-rule="evenodd" clip-rule="evenodd" d="M34 24C34 29.5228 29.5228 34 24 34C18.4772 34 14 29.5228 14 24C14 18.4772 18.4772 14 24 14C29.5228 14 34 18.4772 34 24ZM21.3994 31.5678C20.8847 30.6108 20.4646 29.5954 20.1515 28.5341C18.9331 28.2333 17.7696 27.7928 16.6792 27.2307C17.5748 29.2573 19.2874 30.8422 21.3994 31.5678ZM16.0155 24.5014C17.126 25.2738 18.3536 25.8895 19.6665 26.3164C19.5568 25.5601 19.5 24.7867 19.5 24C19.5 23.4035 19.5326 22.8147 19.5962 22.2351C18.5592 21.8618 17.5833 21.3604 16.6877 20.75C16.2457 21.7431 16 22.8429 16 24C16 24.1684 16.0052 24.3356 16.0155 24.5014ZM17.7257 19.0363C18.4131 19.5145 19.1576 19.9162 19.9469 20.2292C20.2704 18.8899 20.7625 17.6163 21.3994 16.4322C19.9372 16.9346 18.6664 17.8488 17.7257 19.0363ZM31.3208 27.2307C30.4252 29.2573 28.7126 30.8422 26.6006 31.5678C27.1153 30.6108 27.5354 29.5954 27.8485 28.5341C29.0669 28.2333 30.2304 27.7928 31.3208 27.2307ZM31.9845 24.5014C30.874 25.2738 29.6464 25.8895 28.3335 26.3164C28.4432 25.5601 28.5 24.7867 28.5 24C28.5 23.4035 28.4674 22.8147 28.4038 22.2351C29.4408 21.8618 30.4167 21.3604 31.3123 20.75C31.7543 21.7431 32 22.8429 32 24C32 24.1684 31.9948 24.3356 31.9845 24.5014ZM26.6006 16.4322C28.0628 16.9346 29.3336 17.8488 30.2743 19.0363C29.5869 19.5145 28.8424 19.9162 28.0531 20.2292C27.7296 18.8899 27.2375 17.6163 26.6006 16.4322ZM26.2147 26.8258C26.4018 25.9131 26.5 24.968 26.5 24C26.5 23.5856 26.482 23.1754 26.4467 22.7701C25.6543 22.921 24.8364 23 24 23C23.1636 23 22.3457 22.921 21.5533 22.7701C21.518 23.1754 21.5 23.5856 21.5 24C21.5 24.968 21.5982 25.9131 21.7853 26.8258C22.5067 26.9405 23.2464 27 24 27C24.7536 27 25.4933 26.9405 26.2147 26.8258ZM22.3889 28.9199C22.7995 30.0137 23.3431 31.0425 24 31.9865C24.6569 31.0425 25.2005 30.0137 25.6111 28.9199C25.0813 28.9729 24.5438 29 24 29C23.4562 29 22.9187 28.9729 22.3889 28.9199ZM21.8689 20.7937C22.5583 20.9291 23.2709 21 24 21C24.7291 21 25.4417 20.9291 26.1311 20.7937C25.7232 19.0527 24.9903 17.4368 24 16.0135C23.0097 17.4368 22.2768 19.0527 21.8689 20.7937Z" fill="white"/>
</svg>
