<svg width="48" height="48" viewBox="0 0 48 48" fill="none" xmlns="http://www.w3.org/2000/svg">
<rect width="48" height="48" rx="24" fill="#F5BC00"/>
<path fill-rule="evenodd" clip-rule="evenodd" d="M19 14H21V15C21 15.5523 21.4477 16 22 16H26C26.5523 16 27 15.5523 27 15V14H29C30.6569 14 32 15.3431 32 17V29C32 30.1046 31.1046 31 30 31H28.3654H26.2115H21.7885H19.6346H18C16.8954 31 16 30.1046 16 29V17C16 15.3431 17.3431 14 19 14ZM19 18C18.4477 18 18 18.4477 18 19V23C18 23.5523 18.4477 24 19 24H29C29.5523 24 30 23.5523 30 23V19C30 18.4477 29.5523 18 29 18H19ZM19.7663 27H17.5V27.75C17.5 28.1642 17.8358 28.5 18.25 28.5H20.3831C20.6643 28.5 20.8455 28.202 20.7161 27.9524L20.4321 27.4048C20.3032 27.1561 20.0464 27 19.7663 27ZM28.2337 27H30.5V27.75C30.5 28.1642 30.1642 28.5 29.75 28.5H27.6169C27.3357 28.5 27.1545 28.202 27.284 27.9524L27.5679 27.4048C27.6968 27.1561 27.9536 27 28.2337 27ZM16 34L18.4182 32.004H20.572L18.1538 34H16ZM29.8462 34L27.428 32.004H29.5818L32 34H29.8462Z" fill="white"/>
</svg>
