<svg width="48" height="48" viewBox="0 0 48 48" fill="none" xmlns="http://www.w3.org/2000/svg">
<rect width="48" height="48" rx="24" fill="#F5BC00"/>
<path d="M24 13C19.3 13 15.5 16.8 15.5 21.5C15.5 23.5 16.2 25.3 17.3 26.7L22.755 33.4577C23.181 33.9854 23.394 34.2493 23.6508 34.345C23.8761 34.4289 24.1239 34.4289 24.3492 34.345C24.606 34.2493 24.819 33.9854 25.245 33.4577L30.7 26.7C31.8 25.3 32.5 23.5 32.5 21.5C32.5 16.8 28.7 13 24 13ZM24 24.5C22.3 24.5 21 23.2 21 21.5C21 19.8 22.3 18.5 24 18.5C25.7 18.5 27 19.8 27 21.5C27 23.2 25.7 24.5 24 24.5Z" fill="white"/>
</svg>
