<svg width="48" height="48" viewBox="0 0 48 48" fill="none" xmlns="http://www.w3.org/2000/svg">
<rect width="48" height="48" rx="24" fill="#15D1A5"/>
<path d="M22.4844 28.9995C25.9 28.9995 28.9521 30.5568 30.9697 32.9995H14C16.0175 30.5569 19.0689 28.9996 22.4844 28.9995ZM15.8916 17.4849C16.5521 15.2518 18.7114 13.7164 21.1211 13.9272C23.0927 14.1 24.6959 15.3948 25.3574 17.1274C26.3098 15.5359 28.1141 14.5391 30.0859 14.7114C32.4953 14.9224 34.3554 16.809 34.6182 19.1226L30.4453 18.7583C30.6769 18.9496 30.8947 19.1645 31.0947 19.4028C32.6493 21.2557 32.6298 23.9043 31.1797 25.7261L26.1738 19.7603C26.103 19.8674 26.0026 20.0272 25.8809 20.2368C25.6214 20.6837 25.2682 21.3589 24.9131 22.2466C24.4285 23.4581 23.94 25.0656 23.6787 27.0308C23.364 27.0099 23.0467 27.0005 22.7275 27.0005C22.3697 27.0005 22.0143 27.0143 21.6621 27.0405C21.9371 24.7707 22.4936 22.9087 23.0557 21.5034C23.3281 20.8223 23.6035 20.2486 23.8467 19.7866L18.1309 24.5845C17.019 22.5385 17.4598 19.9274 19.3125 18.3726C19.5508 18.1726 19.8023 17.9983 20.0635 17.8501L15.8916 17.4849Z" fill="white"/>
</svg>
