<svg width="48" height="48" viewBox="0 0 48 48" fill="none" xmlns="http://www.w3.org/2000/svg">
<rect width="48" height="48" rx="24" fill="#C97B8A"/>
<path d="M20 28C20 27.4477 20.4477 27 21 27C21.5523 27 22 27.4477 22 28C22 28.5523 21.5523 29 21 29C20.4477 29 20 28.5523 20 28Z" fill="white"/>
<path d="M21 23C20.4477 23 20 23.4477 20 24C20 24.5523 20.4477 25 21 25C21.5523 25 22 24.5523 22 24C22 23.4477 21.5523 23 21 23Z" fill="white"/>
<path d="M24 23H28V25H24V23Z" fill="white"/>
<path d="M28 19H24V21H28V19Z" fill="white"/>
<path d="M24 27H28V29H24V27Z" fill="white"/>
<path d="M21 19C20.4477 19 20 19.4477 20 20C20 20.5523 20.4477 21 21 21C21.5523 21 22 20.5523 22 20C22 19.4477 21.5523 19 21 19Z" fill="white"/>
<path fill-rule="evenodd" clip-rule="evenodd" d="M19 14C17.3431 14 16 15.3431 16 17V31C16 32.6569 17.3431 34 19 34H29C30.6569 34 32 32.6569 32 31V17C32 15.3431 30.6569 14 29 14H19ZM29 16H19C18.4477 16 18 16.4477 18 17V31C18 31.5523 18.4477 32 19 32H29C29.5523 32 30 31.5523 30 31V17C30 16.4477 29.5523 16 29 16Z" fill="white"/>
</svg>
