<svg width="48" height="48" viewBox="0 0 48 48" fill="none" xmlns="http://www.w3.org/2000/svg">
<rect width="48" height="48" rx="24" fill="#7F8B99"/>
<path fill-rule="evenodd" clip-rule="evenodd" d="M18 15.5C18 14.1193 19.1193 13 20.5 13H27.5C28.8807 13 30 14.1193 30 15.5V20.5C30 21.8807 28.8807 23 27.5 23L26 23V24.8453L25 26L26 27.1547V28.8453L25 30L26 31.1547V33L24 35L22 33V23L20.5 23C19.1193 23 18 21.8807 18 20.5V15.5ZM21 16C21 15.4477 21.4477 15 22 15H26C26.5523 15 27 15.4477 27 16C27 16.5523 26.5523 17 26 17H22C21.4477 17 21 16.5523 21 16Z" fill="white"/>
</svg>
