<svg width="36" height="24" viewBox="0 0 36 24" fill="none" xmlns="http://www.w3.org/2000/svg">
<rect x="0.5" y="0.5" width="35" height="23" rx="3.5" fill="white"/>
<rect x="0.5" y="0.5" width="35" height="23" rx="3.5" stroke="#DFE5EB"/>
<path d="M29.1481 14.2563H29.1764L30.6891 9.36377H31.9967L29.7428 15.6958C29.2269 17.149 28.6406 17.6245 27.3883 17.6245C27.2218 17.6253 27.0553 17.6142 26.8903 17.5913V16.5972C27.0161 16.6109 27.1426 16.6186 27.2692 16.6196C27.8357 16.6196 28.1516 16.3787 28.3522 15.7583L28.4665 15.3911L26.2946 9.36377H27.6354L29.1481 14.2563ZM10.2731 8.64209C10.9277 8.66521 11.5348 8.99199 11.9157 9.52588C11.3218 9.8928 10.956 10.5379 10.9459 11.2368C10.9523 12.0284 11.4229 12.7425 12.1471 13.0591C12.0036 13.5099 11.7957 13.9375 11.5299 14.3286C11.1552 14.8807 10.7471 15.4219 10.152 15.4331C9.55712 15.444 9.35839 15.0798 8.67544 15.0796C7.99207 15.0796 7.80373 15.4227 7.20864 15.4448C6.61363 15.4666 6.16146 14.8591 5.78677 14.3071C5.01513 13.1918 4.43156 11.1598 5.22524 9.79053C5.59886 9.11214 6.30361 8.68359 7.07681 8.66455C7.67198 8.65362 8.20385 9.05029 8.55435 9.05029C8.88312 9.04976 9.4559 8.64289 10.1344 8.62842L10.2731 8.64209ZM23.3756 9.28955C24.8417 9.28955 25.8004 10.0586 25.8004 11.2534V15.3765H24.6149V14.3823H24.5856C24.1953 15.0573 23.4664 15.4631 22.6881 15.438C21.5024 15.4379 20.671 14.7269 20.6706 13.6606C20.6706 12.5985 21.4797 11.9904 22.9674 11.8931L24.5661 11.7964V11.3394C24.5661 10.6768 24.1253 10.3013 23.3405 10.3013C22.6924 10.3014 22.2226 10.6349 22.1256 11.145H20.9684C21.0037 10.0717 22.0111 9.28967 23.3756 9.28955ZM17.6305 7.09131C19.2353 7.09136 20.3529 8.19569 20.3532 9.81201C20.3532 11.4285 19.2138 12.5422 17.5915 12.5425H15.8141V15.3755H14.5309V7.09131H17.6305ZM23.1422 12.7524C22.3399 12.8033 21.9206 13.104 21.9206 13.6362C21.9209 14.168 22.3623 14.4682 23.0387 14.4683C23.9092 14.4571 24.5678 13.9004 24.568 13.1255V12.6597L23.1422 12.7524ZM15.8141 11.4663H17.2868C18.4045 11.4663 19.0504 10.8635 19.0504 9.81885C19.0503 8.77451 18.4154 8.17834 17.3024 8.17822H15.8141V11.4663ZM10.276 6.46436C10.3136 6.98624 10.1477 7.50297 9.81314 7.90479C9.49026 8.31184 8.9961 8.54457 8.4772 8.53564C8.44384 8.02881 8.61483 7.52954 8.95278 7.15088C9.28892 6.75988 9.76331 6.51405 10.276 6.46436Z" fill="black"/>
</svg>
