<svg width="40" height="64" viewBox="0 0 40 64" fill="none" xmlns="http://www.w3.org/2000/svg">
<circle cx="20" cy="32" r="20" fill="white"/>
<circle cx="20" cy="32" r="20" fill="#E3715D"/>
<path d="M17.9873 25.2939C15.1025 26.1586 13.0002 28.8338 13 32C13.0002 35.8658 16.1341 39 20 39C23.8659 39 26.9998 35.8658 27 32C26.9999 30.7058 26.6466 29.4941 26.0342 28.4541L27.4053 26.8877C28.4096 28.3398 28.9999 30.1008 29 32C28.9998 36.9704 24.9704 41 20 41C15.0296 41 11.0002 36.9704 11 32C11.0002 27.7161 13.9939 24.1332 18.0029 23.2246L17.9873 25.2939ZM20 21.002C20.2392 21.002 20.4789 21.0077 20.7188 21.0234C23.2406 21.1886 25.6288 22.2176 27.4814 23.9365L20 32V21.002Z" fill="white"/>
</svg>
