<svg width="366" height="220" viewBox="0 0 366 220" fill="none" xmlns="http://www.w3.org/2000/svg">
<rect width="366" height="220" rx="24" fill="#EBE7E4"/>
<g clip-path="url(#clip0_9909_194344)">
<path d="M183 169C213.376 169 238 161.837 238 153C238 144.163 213.376 137 183 137C152.624 137 128 144.163 128 153C128 161.837 152.624 169 183 169Z" fill="black"/>
</g>
<path fill-rule="evenodd" clip-rule="evenodd" d="M189.191 114.577V99.7587C211.217 99.3734 226.551 94.6551 232.713 84.5517C234.144 82.2093 234.915 79.7195 234.915 77.1426V91.9609C234.915 105.653 216.733 116.226 189.191 114.577Z" fill="#DDA2FA"/>
<path fill-rule="evenodd" clip-rule="evenodd" d="M189.191 114.577V99.7587C211.217 99.3734 226.551 94.6551 232.713 84.5517C234.144 82.2093 234.915 79.7195 234.915 77.1426V91.9609C234.915 105.653 216.733 116.226 189.191 114.577Z" fill="#FC9B8E"/>
<path fill-rule="evenodd" clip-rule="evenodd" d="M189.191 114.577V99.7587C211.217 99.3734 226.551 94.6551 232.713 84.5517C234.144 82.2093 234.915 79.7195 234.915 77.1426V91.9609C234.915 105.653 216.733 116.226 189.191 114.577Z" stroke="black" stroke-width="2" stroke-linejoin="round"/>
<path fill-rule="evenodd" clip-rule="evenodd" d="M189.191 75.3578C213.898 75.3578 233.568 84.4556 233.568 95.2895C233.568 106.123 213.898 114.575 189.191 114.575L198.371 118.63C225.08 116.413 239.841 107.149 239.841 94.9544C239.841 80.9604 217.165 69.6172 189.191 69.6172V75.3578Z" fill="#A55AB8"/>
<path fill-rule="evenodd" clip-rule="evenodd" d="M189.191 75.3578C213.898 75.3578 233.568 84.4556 233.568 95.2895C233.568 106.123 213.898 114.575 189.191 114.575L198.371 118.63C225.08 116.413 239.841 107.149 239.841 94.9544C239.841 80.9604 217.165 69.6172 189.191 69.6172V75.3578Z" fill="#D44C3B"/>
<path fill-rule="evenodd" clip-rule="evenodd" d="M189.191 75.3578C213.898 75.3578 233.568 84.4556 233.568 95.2895C233.568 106.123 213.898 114.575 189.191 114.575L198.371 118.63C225.08 116.413 239.841 107.149 239.841 94.9544C239.841 80.9604 217.165 69.6172 189.191 69.6172V75.3578Z" stroke="black" stroke-width="2" stroke-linejoin="round"/>
<path fill-rule="evenodd" clip-rule="evenodd" d="M159.604 63.2246V69.6958L190.997 87.969V81.4945L159.604 63.2246Z" fill="#A55AB8" stroke="black" stroke-width="2" stroke-linejoin="round"/>
<path fill-rule="evenodd" clip-rule="evenodd" d="M190.997 54.82V44.9512L159.604 63.2244L190.997 81.4976V69.6416C213.023 70.027 231.474 77.4495 237.64 87.5495C239.071 89.8919 239.841 92.3817 239.841 94.9587V80.1404C239.841 66.4481 218.133 55.2958 190.997 54.82Z" fill="#F5DEFA" stroke="black" stroke-width="2" stroke-linejoin="round"/>
<path fill-rule="evenodd" clip-rule="evenodd" d="M173.7 105.424V120.242C151.674 120.627 136.34 125.346 130.177 135.449C128.746 137.791 127.975 140.281 127.975 142.858V128.04C127.975 114.347 146.158 103.775 173.7 105.424Z" fill="#DDA2FA"/>
<path fill-rule="evenodd" clip-rule="evenodd" d="M173.7 105.424V120.242C151.674 120.627 136.34 125.346 130.177 135.449C128.746 137.791 127.975 140.281 127.975 142.858V128.04C127.975 114.347 146.158 103.775 173.7 105.424Z" fill="#FC9B8E"/>
<path fill-rule="evenodd" clip-rule="evenodd" d="M173.7 105.424V120.242C151.674 120.627 136.34 125.346 130.177 135.449C128.746 137.791 127.975 140.281 127.975 142.858V128.04C127.975 114.347 146.158 103.775 173.7 105.424Z" stroke="black" stroke-width="2" stroke-linejoin="round"/>
<path fill-rule="evenodd" clip-rule="evenodd" d="M173.7 144.305C148.993 144.305 129.322 135.877 129.322 125.043C129.322 114.209 148.993 105.423 173.7 105.423L164.384 101.312C140.236 103.242 123.049 112.42 123.049 125.043C123.049 139.037 145.725 150.38 173.7 150.38V144.305Z" fill="#FFE1DE" stroke="black" stroke-width="2" stroke-linejoin="round"/>
<path fill-rule="evenodd" clip-rule="evenodd" d="M203.286 156.777V149.97L171.894 131.697V138.507L203.286 156.777Z" fill="#F5DEFA" stroke="black" stroke-width="2" stroke-linejoin="round"/>
<path fill-rule="evenodd" clip-rule="evenodd" d="M171.894 165.182V175.05L203.286 156.777L171.894 138.504V150.36C149.867 149.975 131.416 142.552 125.25 132.452C123.82 130.11 123.049 127.62 123.049 125.043V139.861C123.049 153.554 144.757 164.706 171.894 165.182Z" fill="#A55AB8" stroke="black" stroke-width="2" stroke-linejoin="round"/>
<path fill-rule="evenodd" clip-rule="evenodd" d="M132.35 99.7408L175.056 88.9922C184.464 107.549 219.229 130.315 245.556 136.29L202.832 147.045C175.056 145.386 143.467 115.387 132.346 99.7408H132.35Z" fill="#90D19F" stroke="black" stroke-width="2" stroke-linecap="round" stroke-linejoin="round"/>
<path fill-rule="evenodd" clip-rule="evenodd" d="M135.415 87.8892L178.122 77.1406C178.122 77.1406 181.086 82.0773 185.11 86.8311C196.908 100.772 220.283 121.12 246.61 127.095L203.886 137.85C174.299 138.904 135.412 97.9561 135.412 87.8892H135.415Z" fill="#DAF0DF" stroke="black" stroke-width="2" stroke-linecap="round" stroke-linejoin="round"/>
<path d="M171.478 84.9512C173.191 86.1958 175.197 87.1777 177.356 87.7611C177.355 87.7608 177.353 87.7607 177.352 87.7604L177.359 87.7622C177.358 87.7619 177.357 87.7614 177.356 87.7611C177.661 87.8434 177.962 87.916 178.259 87.9792C178.948 88.8735 179.688 89.7967 180.467 90.7177C188.714 100.461 202.478 113.31 220.209 122.386C219.724 123.291 219.477 124.37 219.512 125.602C219.533 126.319 219.648 127.036 219.85 127.743L201.858 132.358C200.297 131.334 198.524 130.522 196.633 130.011C194.216 129.359 192.031 129.313 190.259 129.789C188.034 128.931 185.696 127.877 183.204 126.649C175.936 123.066 168.704 118.032 162.262 112.578C156.146 107.399 150.879 101.956 147.082 97.2351C149.198 96.2192 150.455 94.2732 150.379 91.6105C150.366 91.1721 150.317 90.7339 150.236 90.2977L171.478 84.9512Z" fill="#57C26E"/>
<path d="M177.356 87.7611C175.197 87.1777 173.191 86.1958 171.478 84.9512L150.236 90.2977C150.317 90.7339 150.366 91.1721 150.379 91.6105C150.455 94.2732 149.198 96.2192 147.082 97.2351C150.879 101.956 156.146 107.399 162.262 112.578C168.704 118.032 175.936 123.066 183.204 126.649C185.696 127.877 188.034 128.931 190.259 129.789C192.031 129.313 194.216 129.359 196.633 130.011C198.524 130.522 200.297 131.334 201.858 132.358L219.85 127.743C219.648 127.036 219.533 126.319 219.512 125.602C219.477 124.37 219.724 123.291 220.209 122.386C202.478 113.31 188.714 100.461 180.467 90.7177C179.688 89.7967 178.948 88.8735 178.259 87.9792C177.962 87.916 177.661 87.8434 177.356 87.7611ZM177.356 87.7611C177.355 87.7608 177.353 87.7607 177.352 87.7604L177.359 87.7622C177.358 87.7619 177.357 87.7614 177.356 87.7611Z" stroke="black" stroke-width="2" stroke-linecap="round" stroke-linejoin="round"/>
<path d="M233.568 95.2895C233.568 84.4556 213.898 75.3578 189.191 75.3578V69.6172C217.165 69.6172 239.841 80.9604 239.841 94.9544L236.705 95.1219L233.568 95.2895Z" fill="#D44C3B"/>
<path d="M233.568 95.2914C233.568 84.4575 213.898 75.3598 189.191 75.3598V69.6191C217.165 69.6191 239.841 80.9624 239.841 94.9563" stroke="black" stroke-width="2" stroke-linejoin="round"/>
<path fill-rule="evenodd" clip-rule="evenodd" d="M159.604 63.2246V69.6958L190.997 87.969V81.4945L159.604 63.2246Z" fill="#A55AB8"/>
<path fill-rule="evenodd" clip-rule="evenodd" d="M159.604 63.2246V69.6958L190.997 87.969V81.4945L159.604 63.2246Z" fill="#D44C3B"/>
<path fill-rule="evenodd" clip-rule="evenodd" d="M159.604 63.2246V69.6958L190.997 87.969V81.4945L159.604 63.2246Z" stroke="black" stroke-width="2" stroke-linejoin="round"/>
<path fill-rule="evenodd" clip-rule="evenodd" d="M190.997 54.82V44.9512L159.604 63.2244L190.997 81.4976V69.6416C213.023 70.027 231.474 77.4495 237.64 87.5495C239.071 89.8919 239.841 92.3817 239.841 94.9587V80.1404C239.841 66.4481 218.133 55.2958 190.997 54.82Z" fill="#FC9B8E" stroke="black" stroke-width="2" stroke-linejoin="round"/>
<path d="M129.322 125.045C129.322 135.879 148.993 144.306 173.7 144.306V150.382C145.725 150.382 123.049 139.039 123.049 125.045H126.186H129.322Z" fill="#FFE1DE"/>
<path d="M129.322 125.043C129.322 135.877 148.993 144.304 173.7 144.304V150.38C145.725 150.38 123.049 139.037 123.049 125.043" stroke="black" stroke-width="2" stroke-linejoin="round"/>
<path fill-rule="evenodd" clip-rule="evenodd" d="M203.286 156.777V149.97L171.894 131.697V138.507L203.286 156.777Z" fill="#FFE1DE" stroke="black" stroke-width="2" stroke-linejoin="round"/>
<path fill-rule="evenodd" clip-rule="evenodd" d="M171.894 165.182V175.05L203.286 156.777L171.894 138.504V150.36C149.867 149.975 131.416 142.552 125.25 132.452C123.82 130.11 123.049 127.62 123.049 125.043V139.861C123.049 153.554 144.757 164.706 171.894 165.182Z" fill="#D44C3B" stroke="black" stroke-width="2" stroke-linejoin="round"/>
<defs>
<clipPath id="clip0_9909_194344">
<rect width="110" height="32" fill="white" transform="translate(128 137)"/>
</clipPath>
</defs>
</svg>
