<svg width="24" height="24" viewBox="0 0 24 24" fill="none" xmlns="http://www.w3.org/2000/svg">
<path d="M21 11C22.6569 11 24 12.3431 24 14V19C24 20.6569 22.6569 22 21 22H11C9.34315 22 8 20.6569 8 19V14C8 12.3431 9.34315 11 11 11H21ZM11 13C10.4477 13 10 13.4477 10 14V19C10 19.5523 10.4477 20 11 20H21C21.5523 20 22 19.5523 22 19V14C22 13.4477 21.5523 13 21 13H11ZM13 15.5C13.5523 15.5 14 15.9477 14 16.5C14 17.0523 13.5523 17.5 13 17.5C12.4477 17.5 12 17.0523 12 16.5C12 15.9477 12.4477 15.5 13 15.5ZM16 15.5C16.5523 15.5 17 15.9477 17 16.5C17 17.0523 16.5523 17.5 16 17.5C15.4477 17.5 15 17.0523 15 16.5C15 15.9477 15.4477 15.5 16 15.5ZM19 15.5C19.5523 15.5 20 15.9477 20 16.5C20 17.0523 19.5523 17.5 19 17.5C18.4477 17.5 18 17.0523 18 16.5C18 15.9477 18.4477 15.5 19 15.5ZM16 2C17.6569 2 19 3.34315 19 5V9H2V14C2 14.5523 2.44772 15 3 15H6V17H3C1.34315 17 0 15.6569 0 14V5C0 3.34315 1.34315 2 3 2H16ZM3 4C2.44772 4 2 4.44772 2 5V6H17V5C17 4.44771 16.5523 4 16 4H3Z" fill="#75726F"/>
</svg>
