<svg width="40" height="41" viewBox="0 0 40 41" fill="none" xmlns="http://www.w3.org/2000/svg">
<path d="M20.0263 40.6644C29.4439 40.6644 37.0785 38.6942 37.0785 36.2638C37.0785 33.8335 29.4439 31.8633 20.0263 31.8633C10.6086 31.8633 2.97412 33.8335 2.97412 36.2638C2.97412 38.6942 10.6086 40.6644 20.0263 40.6644Z" fill="black"/>
<circle cx="19.9998" cy="19.6822" r="19.0172" fill="url(#paint0_linear_10612_67007)" stroke="black" stroke-width="1.33"/>
<path d="M34.1503 17.4558C29.994 14.7367 27.821 12.0756 25.3903 8.91029C24.9084 8.2829 24.5534 8.06104 24.1244 8.06104C23.6955 8.06104 23.3652 8.26564 23.0804 9.11243C21.7529 13.0678 18.7146 16.1628 15.0095 17.9809C14.2761 18.3408 13.8632 18.7463 13.8632 19.1753C13.8632 19.6042 14.2761 20.0097 15.0095 20.3696C18.8305 22.2444 22.0783 24.8008 23.9149 29.3934C24.1602 30.0085 24.5386 30.2143 24.9158 30.2143C25.2929 30.2143 25.6874 29.9604 26.0152 29.4316C27.6731 26.7544 30.6017 22.4675 34.313 20.011C34.8467 19.6572 35.2066 19.2714 35.1413 18.6527C35.0735 18.0006 34.4597 17.6604 34.1503 17.457V17.4558Z" fill="white" stroke="black" stroke-width="1.33" stroke-linejoin="round"/>
<defs>
<linearGradient id="paint0_linear_10612_67007" x1="19.9998" y1="0.665039" x2="19.9998" y2="38.6993" gradientUnits="userSpaceOnUse">
<stop stop-color="#FFBF73"/>
<stop offset="0.495" stop-color="#FF488B"/>
<stop offset="1" stop-color="#FFB5DF"/>
</linearGradient>
</defs>
</svg>
