<svg width="48" height="48" viewBox="0 0 48 48" fill="none" xmlns="http://www.w3.org/2000/svg">
<g clip-path="url(#clip0_10634_80388)">
<rect width="48" height="48" fill="white"/>
<g clip-path="url(#clip1_10634_80388)">
<path d="M15.0823 36.9074C6.90367 36.9074 0.273556 35.1964 0.273556 33.0858C0.273556 30.9752 6.90367 29.2642 15.0823 29.2642C23.261 29.2642 29.8911 30.9752 29.8911 33.0858C29.8911 35.1964 23.261 36.9074 15.0823 36.9074Z" fill="black"/>
<path d="M24.0409 11.459C24.2735 11.405 24.6248 11.4448 24.8149 11.4935L27.4997 12.1803L26.4084 27.6953H26.4093C26.4093 28.1015 26.1326 28.4569 25.7379 28.5561L4.53416 34.8191C4.53416 34.8191 2.23357 34.2323 2.06678 34.1647C1.74617 34.0348 1.42677 33.6813 1.42676 33.3013V18.3045C1.42676 17.6499 1.87173 17.0791 2.50654 16.9192L24.0409 11.459Z" fill="#A55AB8" stroke="black" stroke-width="1.17073" stroke-linecap="round" stroke-linejoin="round"/>
<path d="M2.50654 16.7524C1.87173 16.9122 1.42676 17.4831 1.42676 18.1377L24.8151 24.1711L28.3655 12.1669L25.2045 11.346C25.0144 11.2973 24.6631 11.2575 24.4304 11.3115L2.50654 16.7524Z" fill="#F5DEFA" stroke="black" stroke-width="1.17073" stroke-linecap="round" stroke-linejoin="round"/>
<path d="M27.886 12.17C28.4498 12.0281 28.9968 12.4544 28.9968 13.0359L28.9969 28.1489H28.9978C28.9978 28.5552 28.721 28.9106 28.3264 29.0097L5.11967 34.8515C4.55896 34.9926 4.01522 34.5685 4.01521 33.9908V31.022L4.01514 31.0221V19.2938C4.01514 18.6392 4.4601 18.0684 5.0949 17.9086L27.886 12.17Z" fill="#DDA2FA" stroke="black" stroke-width="1.17073" stroke-linecap="round" stroke-linejoin="round"/>
<path d="M23.2515 1.0294C23.7633 0.64385 24.5012 0.842564 24.7501 1.433L29.5353 12.7833C29.5381 12.7888 29.5408 12.7944 29.5432 12.8002C29.7175 13.2134 29.5884 13.6934 29.2295 13.9634L29.2294 13.9634L13.6269 25.7163L13.6269 25.7164C13.1172 26.1002 12.3824 25.902 12.1347 25.3145L7.47426 14.26C7.22128 13.66 7.4085 12.9647 7.92863 12.5728L23.2515 1.0294Z" fill="#3D3B3A" stroke="black" stroke-width="1.17073" stroke-linecap="round" stroke-linejoin="round"/>
<path d="M23.1093 1.10143C23.301 0.955649 23.5262 0.885808 23.7482 0.883804L21.7499 19.629L16.009 23.995L18.0383 4.95837L23.1093 1.10143Z" fill="#595754"/>
<path d="M23.2515 1.0294C23.7633 0.64385 24.5012 0.842564 24.7501 1.433L29.5353 12.7833C29.5381 12.7888 29.5408 12.7944 29.5432 12.8002C29.7175 13.2134 29.5884 13.6934 29.2295 13.9634L29.2294 13.9634L13.6269 25.7163L13.6269 25.7164C13.1172 26.1002 12.3824 25.902 12.1347 25.3145L7.47426 14.26C7.22128 13.66 7.4085 12.9647 7.92863 12.5728L23.2515 1.0294Z" stroke="black" stroke-width="1.17073" stroke-linecap="round" stroke-linejoin="round"/>
<path d="M26.29 26.0792H26.2908C26.2908 26.3772 26.0739 26.6379 25.7648 26.7106L7.51353 31.0121C7.16457 31.1091 6.72226 30.9412 6.72223 30.5175V28.1868L6.72217 28.1869V22.4788L13.0688 20.9898C13.5389 22.0224 15.2495 22.5202 17.0634 22.1076C18.9037 21.689 20.1903 20.4833 20.0607 19.3495L26.29 17.8882L26.29 26.0792Z" fill="#DDA2FA" stroke="black" stroke-width="1.17073" stroke-linecap="round" stroke-linejoin="round"/>
</g>
<path d="M33.5693 47.8965C40.4081 47.8965 45.952 46.4658 45.952 44.7009C45.952 42.9361 40.4081 41.5054 33.5693 41.5054C26.7305 41.5054 21.1865 42.9361 21.1865 44.7009C21.1865 46.4658 26.7305 47.8965 33.5693 47.8965Z" fill="black"/>
<circle cx="33.5499" cy="32.6583" r="13.8097" fill="url(#paint0_linear_10634_80388)" stroke="black" stroke-width="1.17073"/>
<path d="M43.8261 31.0414C40.808 29.0669 39.23 27.1345 37.4649 24.8359C37.1149 24.3804 36.8571 24.2192 36.5457 24.2192C36.2342 24.2192 35.9943 24.3678 35.7875 24.9827C34.8236 27.855 32.6172 30.1025 29.9266 31.4227C29.3941 31.6841 29.0942 31.9786 29.0942 32.29C29.0942 32.6015 29.3941 32.896 29.9266 33.1574C32.7014 34.5188 35.0599 36.3751 36.3935 39.7101C36.5716 40.1568 36.8464 40.3063 37.1203 40.3063C37.3942 40.3063 37.6806 40.1219 37.9187 39.7379C39.1226 37.7938 41.2492 34.6808 43.9443 32.8969C44.3318 32.64 44.5932 32.3599 44.5458 31.9105C44.4965 31.437 44.0508 31.19 43.8261 31.0423V31.0414Z" fill="white" stroke="black" stroke-width="1.17073" stroke-linejoin="round"/>
</g>
<defs>
<linearGradient id="paint0_linear_10634_80388" x1="33.5499" y1="18.8486" x2="33.5499" y2="46.468" gradientUnits="userSpaceOnUse">
<stop stop-color="#FFBF73"/>
<stop offset="0.495" stop-color="#FF488B"/>
<stop offset="1" stop-color="#FFB5DF"/>
</linearGradient>
<clipPath id="clip0_10634_80388">
<rect width="48" height="48" fill="white"/>
</clipPath>
<clipPath id="clip1_10634_80388">
<rect width="37.6307" height="37.6307" fill="white" transform="translate(-3.01025)"/>
</clipPath>
</defs>
</svg>
