<svg width="40" height="40" viewBox="0 0 40 40" fill="none" xmlns="http://www.w3.org/2000/svg">
<circle cx="20" cy="20" r="20" fill="#F5F4F2"/>
<path d="M20 10C25.5228 10 30 14.4772 30 20C30 21.9752 29.4268 23.8165 28.4385 25.3672L29.9971 29.9893L24.6514 28.8545C23.262 29.5858 21.6791 30 20 30C14.4772 30 10 25.5228 10 20C10 14.4772 14.4772 10 20 10ZM20 12C15.5817 12 12 15.5817 12 20C12 24.4183 15.5817 28 20 28C21.3468 28 22.6107 27.6687 23.7197 27.085L24.3594 26.748L26.9814 27.3047L26.2383 25.0996L26.752 24.292C27.5417 23.0529 28 21.5831 28 20C28 15.5817 24.4183 12 20 12ZM15.5 18.5C16.3284 18.5 17 19.1716 17 20C17 20.8284 16.3284 21.5 15.5 21.5C14.6716 21.5 14 20.8284 14 20C14 19.1716 14.6716 18.5 15.5 18.5ZM20 18.5C20.8284 18.5 21.5 19.1716 21.5 20C21.5 20.8284 20.8284 21.5 20 21.5C19.1716 21.5 18.5 20.8284 18.5 20C18.5 19.1716 19.1716 18.5 20 18.5ZM24.5 18.5C25.3284 18.5 26 19.1716 26 20C26 20.8284 25.3284 21.5 24.5 21.5C23.6716 21.5 23 20.8284 23 20C23 19.1716 23.6716 18.5 24.5 18.5Z" fill="#1A1919"/>
</svg>
