<svg width="40" height="40" viewBox="0 0 40 40" fill="none" xmlns="http://www.w3.org/2000/svg">
<circle cx="20" cy="20" r="20" fill="#F5F4F2"/>
<path d="M20.0001 10C25.523 10 30.0001 14.4772 30.0001 20C30.0001 25.5228 25.523 30 20.0001 30C14.4773 30 10.0001 25.5228 10.0001 20C10.0001 14.4772 14.4773 10 20.0001 10ZM13.6818 15.0957C12.6288 16.4504 12.0001 18.1513 12.0001 20C12.0001 24.4183 15.5818 28 20.0001 28C21.8487 28 23.5488 27.3703 24.9034 26.3174L13.6818 15.0957ZM20.0001 12C18.1515 12 16.4505 12.6286 15.0958 13.6816L26.3175 24.9033C27.3704 23.5487 28.0001 21.8486 28.0001 20C28.0001 15.5817 24.4184 12 20.0001 12Z" fill="#1A1919"/>
</svg>
