<svg width="40" height="40" viewBox="0 0 40 40" fill="none" xmlns="http://www.w3.org/2000/svg">
<circle cx="20" cy="20" r="20" fill="#F5F4F2"/>
<path d="M27 12C28.6569 12 30 13.3431 30 15V25C30 26.6569 28.6569 28 27 28H13C11.3431 28 10 26.6569 10 25V15C10 13.3431 11.3431 12 13 12H27ZM12 19V25C12 25.5523 12.4477 26 13 26H27C27.5523 26 28 25.5523 28 25V19H12ZM17 21C17.5523 21 18 21.4477 18 22C18 22.5523 17.5523 23 17 23C16.4477 23 16 22.5523 16 22C16 21.4477 16.4477 21 17 21ZM26 23H20V21H26V23ZM13 14C12.4477 14 12 14.4477 12 15V16H28V15C28 14.4477 27.5523 14 27 14H13Z" fill="#1A1919"/>
</svg>
