<svg width="36" height="24" viewBox="0 0 36 24" fill="none" xmlns="http://www.w3.org/2000/svg">
<rect x="0.5" y="0.5" width="35" height="23" rx="3.5" fill="white"/>
<rect x="0.5" y="0.5" width="35" height="23" rx="3.5" stroke="#DFE5EB"/>
<path d="M13.7143 18C17.028 18 19.7143 15.3137 19.7143 12C19.7143 8.68629 17.028 6 13.7143 6C10.4006 6 7.71429 8.68629 7.71429 12C7.71429 15.3137 10.4006 18 13.7143 18Z" fill="#EB001B"/>
<path d="M22.2857 18C25.5994 18 28.2857 15.3137 28.2857 12C28.2857 8.68629 25.5994 6 22.2857 6C18.972 6 16.2857 8.68629 16.2857 12C16.2857 15.3137 18.972 18 22.2857 18Z" fill="#F79E1B"/>
<path d="M17.9996 7.80176C19.0598 8.8839 19.7144 10.3653 19.7144 12C19.7144 13.6342 19.0593 15.1142 17.9996 16.1963C16.9401 15.1143 16.2857 13.634 16.2857 12C16.2857 10.3655 16.9395 8.88387 17.9996 7.80176Z" fill="#FF5F00"/>
</svg>
