<svg width="35" height="41" viewBox="0 0 35 41" fill="none" xmlns="http://www.w3.org/2000/svg">
<path d="M15.274 40.083C23.0517 40.361 29.415 38.9592 29.4867 36.952C29.5584 34.9449 23.3115 33.0925 15.5337 32.8146C7.75602 32.5367 1.39279 33.9385 1.32106 35.9456C1.24934 37.9527 7.49629 39.8051 15.274 40.083Z" fill="black"/>
<path d="M25.78 1.33767C26.5883 0.829958 27.6585 1.21805 27.9535 2.12589L33.6241 19.5779C33.6276 19.5864 33.6308 19.5951 33.6337 19.604C33.8402 20.2394 33.5881 20.9356 33.0212 21.2911L33.0211 21.291L8.37735 36.7675L8.37728 36.7676C7.57227 37.273 6.5066 36.8862 6.21305 35.9827L0.690251 18.9856C0.390461 18.0629 0.756123 17.0545 1.57767 16.5385L25.78 1.33767Z" fill="#3D3B3A" stroke="black" stroke-width="1.1727" stroke-linecap="round" stroke-linejoin="round"/>
<path d="M25.8335 1.35822C26.1293 1.17242 26.4602 1.10668 26.7754 1.14238L20.8573 28.9841L11.9967 34.5487L18.0068 6.27397L25.8335 1.35822Z" fill="#595754"/>
<path d="M25.78 1.33767C26.5883 0.829958 27.6585 1.21805 27.9535 2.12589L33.6241 19.5779C33.6276 19.5864 33.6308 19.5951 33.6337 19.604C33.8402 20.2394 33.5881 20.9356 33.0212 21.2911L8.37735 36.7675C7.57234 37.2729 6.5066 36.8862 6.21305 35.9827L0.690251 18.9856C0.390461 18.0629 0.756123 17.0545 1.57767 16.5385C11.0293 10.6022 16.3284 7.27397 25.78 1.33767Z" stroke="black" stroke-width="1.10119" stroke-linecap="round" stroke-linejoin="round"/>
<path d="M11.981 9.92055C15.9898 9.62531 16.3389 10.1271 16.7689 16.8073C17.1995 9.90737 17.5486 9.22708 21.5568 7.47305C17.548 7.76829 17.1989 7.26645 16.7689 0.586304C16.3383 7.48623 15.9892 8.16652 11.981 9.92055Z" fill="white" stroke="black" stroke-width="1.1727" stroke-linejoin="round"/>
</svg>
