<svg width="40" height="64" viewBox="0 0 40 64" fill="none" xmlns="http://www.w3.org/2000/svg">
<path d="M20.1682 51.9985C11.8255 51.9985 5.06247 50.2532 5.06247 48.1003C5.06247 45.9473 11.8255 44.202 20.1682 44.202C28.5109 44.202 35.2739 45.9473 35.2739 48.1003C35.2739 50.2532 28.5109 51.9985 20.1682 51.9985Z" fill="black"/>
<path d="M17.0195 48.2434L34.5649 43.7583C35.6323 43.485 36.2316 42.3526 35.8578 41.3166L25.7551 13.3517C25.3966 12.3584 24.3424 11.8008 23.3186 12.0619L5.77325 16.547C4.7058 16.8202 4.10657 17.9526 4.48033 18.9886L14.584 46.9525C14.9425 47.9458 15.9968 48.5034 17.0206 48.2423L17.0195 48.2434Z" fill="#57C26E" stroke="black" stroke-width="1.1566" stroke-linecap="round" stroke-linejoin="round"/>
<path d="M15.9799 48.2282C16.3027 48.3102 16.6495 48.3148 16.9929 48.2272L16.9919 48.2282L26.6056 45.7707L32.9761 33.3236L29.0996 22.5934L15.9799 48.2282Z" fill="#90D19F"/>
<path d="M17.0195 48.2434L34.5649 43.7583C35.6323 43.485 36.2316 42.3526 35.8578 41.3166L25.7551 13.3517C25.3966 12.3584 24.3424 11.8008 23.3186 12.0619L5.77325 16.547C4.7058 16.8202 4.10657 17.9526 4.48033 18.9886L14.584 46.9525C14.9425 47.9458 15.9968 48.5034 17.0206 48.2423L17.0195 48.2434Z" stroke="black" stroke-width="1.1566" stroke-linecap="round" stroke-linejoin="round"/>
<path d="M25.2392 26.2166C29.4783 25.9044 29.8475 26.435 30.3021 33.4991C30.7575 26.2026 31.1267 25.4832 35.3651 23.6284C31.126 23.9406 30.7568 23.4099 30.3021 16.3458C29.8468 23.6423 29.4776 24.3617 25.2392 26.2166Z" fill="white" stroke="black" stroke-width="1.1566" stroke-linejoin="round"/>
</svg>
