<svg width="78" height="66" viewBox="0 0 78 66" fill="none" xmlns="http://www.w3.org/2000/svg">
<rect x="2.83333" y="12.8333" width="58.3333" height="38.3333" rx="5.83333" fill="white"/>
<rect x="2.83333" y="12.8333" width="58.3333" height="38.3333" rx="5.83333" stroke="#D6D3D0" stroke-width="1.66667"/>
<path d="M31.4318 25.3461L28.3778 38.654H24.6081L27.662 25.3461H31.4318ZM47.0355 33.9233L48.992 28.9273L50.1372 33.9233H47.0355ZM51.187 38.654H54.6227L51.6165 25.3461H48.4671C47.7513 25.3461 47.131 25.744 46.8924 26.3187L41.3094 38.654H45.2222L45.9857 36.6644H50.7575L51.187 38.654ZM41.5002 34.3212C41.5002 30.8284 36.2513 30.6073 36.299 29.0599C36.299 28.5736 36.8239 28.0872 37.8737 27.9546C38.3986 27.9104 39.8778 27.822 41.548 28.5294L42.216 25.6998C41.3094 25.3903 40.1641 25.125 38.7326 25.125C35.0583 25.125 32.4815 26.9377 32.4338 29.5462C32.4338 31.4474 34.2948 32.5527 35.6786 33.1716C37.1102 33.8348 37.6351 34.2327 37.5874 34.8075C37.5874 35.6918 36.4421 36.0897 35.3446 36.0897C33.4836 36.1339 32.3861 35.6033 31.5272 35.2496L30.8591 38.1676C31.7181 38.5213 33.3405 38.875 35.0106 38.875C38.9235 38.875 41.5002 37.0623 41.5002 34.3212ZM26.0873 25.3461L20.0749 38.654H16.162L13.2035 28.043C13.0126 27.3798 12.8695 27.1588 12.2968 26.8935C11.3902 26.4514 9.91094 26.0092 8.62256 25.744L8.71799 25.3461H15.0645C15.8757 25.3461 16.5915 25.8324 16.7823 26.7166L18.357 34.4096L22.2222 25.3461H26.0873Z" fill="#1A1F70"/>
<rect x="47" y="35" width="30" height="30" rx="15" fill="#419454"/>
<rect x="47" y="35" width="30" height="30" rx="15" stroke="#F5F4F2" stroke-width="2"/>
<path d="M68.675 47.104L60.7795 55.0005L56.1877 50.4087L57.6604 48.936L60.7786 52.0532L67.2014 45.6313L68.675 47.104Z" fill="#F5F4F2"/>
</svg>
