<svg width="78" height="66" viewBox="0 0 78 66" fill="none" xmlns="http://www.w3.org/2000/svg">
<rect x="2.83333" y="12.8333" width="58.3333" height="38.3333" rx="5.83333" fill="white"/>
<rect x="2.83333" y="12.8333" width="58.3333" height="38.3333" rx="5.83333" stroke="#DFE5EB" stroke-width="1.66667"/>
<path d="M24.8571 42C30.38 42 34.8571 37.5228 34.8571 32C34.8571 26.4772 30.38 22 24.8571 22C19.3343 22 14.8571 26.4772 14.8571 32C14.8571 37.5228 19.3343 42 24.8571 42Z" fill="#EB001B"/>
<path d="M39.1429 42C44.6657 42 49.1429 37.5228 49.1429 32C49.1429 26.4772 44.6657 22 39.1429 22C33.62 22 29.1429 26.4772 29.1429 32C29.1429 37.5228 33.62 42 39.1429 42Z" fill="#F79E1B"/>
<path d="M31.9993 25.0039C33.7661 26.8074 34.8567 29.2758 34.8567 32C34.8567 34.724 33.7659 37.1916 31.9993 38.9951C30.2331 37.1917 29.1429 34.7237 29.1429 32C29.1429 29.2761 30.2328 26.8074 31.9993 25.0039Z" fill="#FF5F00"/>
<rect x="47" y="35" width="30" height="30" rx="15" fill="#419454"/>
<rect x="47" y="35" width="30" height="30" rx="15" stroke="#F5F4F2" stroke-width="2"/>
<path d="M68.675 47.104L60.7795 55.0005L56.1877 50.4087L57.6604 48.936L60.7786 52.0532L67.2014 45.6313L68.675 47.104Z" fill="#F5F4F2"/>
</svg>
