<svg width="36" height="24" viewBox="0 0 36 24" fill="none" xmlns="http://www.w3.org/2000/svg">
<rect x="0.5" y="0.5" width="35" height="23" rx="3.5" fill="white"/>
<rect x="0.5" y="0.5" width="35" height="23" rx="3.5" stroke="#DFE5EB"/>
<path fill-rule="evenodd" clip-rule="evenodd" d="M29.1482 14.692H29.1765L30.6892 9.79944H31.9969L29.7429 16.1315C29.227 17.5847 28.6407 18.0602 27.3885 18.0602C27.2219 18.061 27.0554 18.0498 26.8904 18.027V17.0328C27.0163 17.0465 27.1427 17.0543 27.2693 17.0553C27.8358 17.0553 28.1517 16.8144 28.3523 16.194L28.4666 15.8268L26.2947 9.79944H27.6355L29.1482 14.692ZM10.2732 9.07776C10.9279 9.10088 11.5349 9.42766 11.9158 9.96155C11.322 10.3285 10.9562 10.9736 10.9461 11.6725C10.9524 12.4641 11.423 13.1782 12.1472 13.4948C12.0038 13.9456 11.7958 14.3731 11.5301 14.7643C11.1553 15.3164 10.7473 15.8576 10.1521 15.8688C9.55724 15.8797 9.35851 15.5154 8.67556 15.5153C7.99219 15.5153 7.80386 15.8583 7.20877 15.8805C6.61375 15.9023 6.16158 15.2948 5.78689 14.7428C5.01525 13.6275 4.43168 11.5955 5.22537 10.2262C5.59899 9.54781 6.30373 9.11925 7.07693 9.10022C7.6721 9.08929 8.20397 9.48596 8.55447 9.48596C8.88324 9.48543 9.45603 9.07856 10.1345 9.06409L10.2732 9.07776ZM23.3758 9.72522C24.8419 9.72522 25.8006 10.4943 25.8006 11.6891V15.8121H24.615V14.818H24.5857C24.1954 15.493 23.4666 15.8988 22.6883 15.8737C21.5024 15.8737 20.6711 15.1626 20.6707 14.0963C20.6707 13.0341 21.4797 12.426 22.9676 12.3287L24.5662 12.2321V11.775C24.5662 11.1125 24.1254 10.737 23.3406 10.7369C22.6924 10.7369 22.2228 11.0705 22.1258 11.5807H20.9685C21.0038 10.5073 22.0111 9.72524 23.3758 9.72522ZM17.6306 7.52698C19.2354 7.52703 20.353 8.63135 20.3533 10.2477C20.3533 11.8642 19.2139 12.9779 17.5916 12.9781H15.8142V15.8112H14.531V7.52698H17.6306ZM23.1424 13.1881C22.3399 13.2389 21.9207 13.5396 21.9207 14.0719C21.921 14.6037 22.3623 14.9039 23.0388 14.9039C23.9094 14.8927 24.5679 14.336 24.5681 13.5612V13.0953L23.1424 13.1881ZM15.8142 11.902H17.2869C18.4046 11.9019 19.0506 11.2991 19.0506 10.2545C19.0504 9.21018 18.4156 8.61401 17.3025 8.61389H15.8142V11.902ZM10.2761 6.90002C10.3137 7.42191 10.1478 7.93864 9.81326 8.34045C9.49038 8.74751 8.99623 8.98024 8.47732 8.97131C8.44396 8.46448 8.61495 7.96521 8.95291 7.58655C9.28904 7.19555 9.76343 6.94972 10.2761 6.90002Z" fill="black"/>
</svg>
