<svg width="36" height="24" viewBox="0 0 36 24" fill="none" xmlns="http://www.w3.org/2000/svg">
<rect x="0.5" y="0.5" width="35" height="23" rx="3.5" fill="white"/>
<rect x="0.5" y="0.5" width="35" height="23" rx="3.5" stroke="#DFE5EB"/>
<path d="M13.7144 18C17.0281 18 19.7144 15.3137 19.7144 12C19.7144 8.68629 17.0281 6 13.7144 6C10.4006 6 7.71436 8.68629 7.71436 12C7.71436 15.3137 10.4006 18 13.7144 18Z" fill="#EB001B"/>
<path d="M22.2856 18C25.5994 18 28.2856 15.3137 28.2856 12C28.2856 8.68629 25.5994 6 22.2856 6C18.9719 6 16.2856 8.68629 16.2856 12C16.2856 15.3137 18.9719 18 22.2856 18Z" fill="#F79E1B"/>
<path d="M17.9995 7.80191C19.0598 8.88406 19.7144 10.3655 19.7144 12.0002C19.7143 13.6343 19.0592 15.1144 17.9995 16.1964C16.94 15.1144 16.2857 13.6342 16.2856 12.0002C16.2856 10.3657 16.9395 8.88403 17.9995 7.80191Z" fill="#FF5F00"/>
</svg>
