<svg width="36" height="24" viewBox="0 0 36 24" fill="none" xmlns="http://www.w3.org/2000/svg">
<rect x="0.5" y="0.5" width="35" height="23" rx="3.5" fill="white"/>
<rect x="0.5" y="0.5" width="35" height="23" rx="3.5" stroke="#DFE5EB"/>
<path d="M17.6592 8.00764L15.8268 15.9924H13.5649L15.3973 8.00764H17.6592ZM27.0214 13.154L28.1953 10.1564L28.8824 13.154H27.0214ZM29.5123 15.9924H31.5737L29.77 8.00764H27.8803C27.4509 8.00764 27.0787 8.24638 26.9355 8.59124L23.5857 15.9924H25.9334L26.3915 14.7987H29.2546L29.5123 15.9924ZM23.7002 13.3927C23.7002 11.297 20.5509 11.1644 20.5795 10.2359C20.5795 9.94414 20.8944 9.65234 21.5243 9.57275C21.8392 9.54623 22.7268 9.49317 23.7289 9.91761L24.1297 8.21986C23.5857 8.03416 22.8986 7.875 22.0397 7.875C19.8351 7.875 18.289 8.96262 18.2604 10.5277C18.2604 11.6684 19.377 12.3316 20.2073 12.703C21.0662 13.1009 21.3811 13.3396 21.3525 13.6845C21.3525 14.2151 20.6654 14.4538 20.0069 14.4538C18.8903 14.4803 18.2318 14.162 17.7164 13.9498L17.3156 15.7006C17.8309 15.9128 18.8044 16.125 19.8065 16.125C22.1542 16.125 23.7002 15.0374 23.7002 13.3927ZM14.4525 8.00764L10.845 15.9924H8.4973L6.72219 9.62581C6.60766 9.2279 6.52177 9.09526 6.1782 8.9361C5.63422 8.67082 4.74666 8.40555 3.97363 8.24638L4.03089 8.00764H7.83879C8.32551 8.00764 8.75497 8.29944 8.8695 8.82999L9.81431 13.4458L12.1334 8.00764H14.4525Z" fill="#1A1F70"/>
</svg>
