<svg width="180" height="120" viewBox="0 0 180 120" fill="none" xmlns="http://www.w3.org/2000/svg">
<g clip-path="url(#clip0_0_382)">
<g clip-path="url(#clip1_0_382)">
<path d="M92.6848 118.89C126.691 118.89 154.258 112.535 154.258 104.695C154.258 96.8553 126.691 90.5 92.6848 90.5C58.6787 90.5 31.1113 96.8553 31.1113 104.695C31.1113 112.535 58.6787 118.89 92.6848 118.89Z" fill="black"/>
</g>
<path d="M84.447 4.71469L103.138 9.28991L75.0041 20.0039C72.6151 20.2483 54.0069 46.277 54.0069 46.277C52.0395 51.1651 57.6302 86.7958 63.6944 87.9108L84.5083 104.521C79.1345 106.815 76.1005 107.498 76.1005 107.498L55.706 102.367C44.1336 99.2906 34.4608 90.2797 30.0738 76.3702C22.3263 51.7803 34.0178 21.6639 56.1881 9.11392C65.7167 3.72181 75.6272 2.45703 84.447 4.71469Z" fill="#3A7DCF"/>
<path d="M84.447 4.71469L103.138 9.28991L75.0041 20.0039C72.6151 20.2483 54.0069 46.277 54.0069 46.277C52.0395 51.1651 57.6302 86.7958 63.6944 87.9108L84.5083 104.521C79.1345 106.815 76.1005 107.498 76.1005 107.498L55.706 102.367C44.1336 99.2906 34.4608 90.2797 30.0738 76.3702C22.3263 51.7803 34.0178 21.6639 56.1881 9.11392C65.7167 3.72181 75.6272 2.45703 84.447 4.71469Z" fill="#75726F"/>
<path d="M84.447 4.71469L103.138 9.28991L75.0041 20.0039C72.6151 20.2483 54.0069 46.277 54.0069 46.277C52.0395 51.1651 57.6302 86.7958 63.6944 87.9108L84.5083 104.521C79.1345 106.815 76.1005 107.498 76.1005 107.498L55.706 102.367C44.1336 99.2906 34.4608 90.2797 30.0738 76.3702C22.3263 51.7803 34.0178 21.6639 56.1881 9.11392C65.7167 3.72181 75.6272 2.45703 84.447 4.71469Z" stroke="black" stroke-width="2" stroke-linejoin="round"/>
<path d="M76.0998 107.498L55.7054 102.367C47.5975 100.211 40.4221 95.1429 35.3438 87.5177L73.7333 97.3428L76.0998 107.498Z" fill="black" stroke="black" stroke-width="2" stroke-linejoin="round"/>
<path d="M101.783 8.94133L101.777 8.93986C101.388 9.04564 81.9609 14.3323 73.4122 19.7427C72.2043 20.5078 70.5807 21.8491 68.7806 23.9601L44.75 17.9949C48.1398 14.5292 51.9609 11.5331 56.1535 9.16006C65.7626 3.72243 75.7567 2.44697 84.651 4.72369L101.777 8.93986C101.781 8.93878 101.783 8.93824 101.783 8.93824V8.94133Z" fill="#EBE7E4" stroke="black" stroke-width="2" stroke-linejoin="round"/>
<path fill-rule="evenodd" clip-rule="evenodd" d="M130.552 35.875C122.805 11.2699 98.5571 1.49688 76.3837 14.0438C54.2104 26.5939 42.5219 56.7103 50.2694 81.3001C58.0231 105.902 82.2677 115.681 104.441 103.134C126.614 90.5843 138.303 60.4679 130.555 35.8781L130.552 35.875Z" fill="#BAB6B3" stroke="black" stroke-width="2" stroke-linejoin="round"/>
<path fill-rule="evenodd" clip-rule="evenodd" d="M121.291 43.1484C116.97 23.7757 99.7825 14.9872 82.8942 23.5163C66.0056 32.0478 55.8219 54.6659 60.1434 74.0269C64.4688 93.3975 81.6538 102.191 98.5422 93.6615C115.431 85.13 125.614 62.5119 121.293 43.1509L121.291 43.1484Z" fill="#DFECF7"/>
<path fill-rule="evenodd" clip-rule="evenodd" d="M121.291 43.1484C116.97 23.7757 99.7825 14.9872 82.8942 23.5163C66.0056 32.0478 55.8219 54.6659 60.1434 74.0269C64.4688 93.3975 81.6538 102.191 98.5422 93.6615C115.431 85.13 125.614 62.5119 121.293 43.1509L121.291 43.1484Z" fill="black"/>
<path d="M97.2812 48.4036L112.579 42.4537V56.4355L97.2812 62.3854V80.281L83.7191 85.6042V67.7086L68.4707 73.7286V59.7468L83.7191 53.7268V37.2288L97.2812 31.9056V48.4036Z" fill="white"/>
<path d="M146.468 69.8816C152.781 68.5635 154.268 82.2307 152.976 85.4384C151.321 89.5455 147.593 93.6039 144.995 92.1488C142.398 90.6936 146.461 84.6454 146.802 82.9509C147.307 81.4384 143.687 75.0804 143.987 73.0076" fill="white"/>
<path d="M146.468 69.8816C152.781 68.5635 154.268 82.2307 152.976 85.4384C151.321 89.5455 147.593 93.6039 144.995 92.1488C142.398 90.6936 146.461 84.6454 146.802 82.9509C147.307 81.4384 143.687 75.0804 143.987 73.0076C144.195 71.5729 145.023 70.1833 146.468 69.8816Z" stroke="black" stroke-width="2" stroke-linecap="round" stroke-linejoin="round"/>
<path d="M141.604 90.8349C145.994 91.0924 149.835 86.4867 150.184 80.5479C150.532 74.6091 147.255 69.586 142.865 69.3286C138.475 69.0711 134.634 73.6768 134.285 79.6156C133.937 85.5544 137.214 90.5774 141.604 90.8349Z" fill="white"/>
<path d="M134.485 71.8123C130.998 84.1623 132.199 90.4136 130.971 93.813C129.782 96.4556 127.806 98.2006 125.113 101.239C125.335 103.855 127.881 106.382 130.701 107.601C131.482 106.679 132.226 105.482 132.226 103.38C134.608 102.171 135.977 101.54 137.523 100.069C137.39 102.945 137.207 105.169 136.891 107.043C138.834 108.171 144.126 108.591 147.046 107.601C147.046 107.601 146.493 105.391 144.303 103.855C145.002 100.203 149.516 93.5756 150.129 77.8963" fill="white"/>
<path d="M150.129 77.8963C149.516 93.5756 145.002 100.203 144.303 103.855C146.493 105.391 147.046 107.601 147.046 107.601C144.126 108.591 138.834 108.171 136.891 107.043C137.207 105.169 137.39 102.945 137.523 100.069C135.977 101.54 134.608 102.171 132.226 103.38C132.226 105.482 131.482 106.679 130.701 107.601C127.881 106.382 125.335 103.855 125.113 101.239C127.806 98.2006 129.782 96.4556 130.971 93.813C132.199 90.4136 130.998 84.1623 134.485 71.8123C137.047 70.2496 146.295 71.2917 148.844 73.003" stroke="black" stroke-width="2" stroke-linecap="round" stroke-linejoin="round"/>
<path d="M137.523 100.066C138.444 99.0722 139.955 96.7146 141.206 92.8015C141.673 92.494 143.262 91.743 143.262 91.743" stroke="black" stroke-width="2" stroke-linecap="round" stroke-linejoin="round"/>
<path d="M135.196 69.8123C129.769 73.1778 129.546 81.6949 133.107 85.6769C136.059 88.9773 144.021 90.7538 144.89 87.832C145.759 84.9103 139.321 83.6419 138.507 82.1172C137.588 80.8142 137.551 79.3565 137.623 78.162" fill="white"/>
<path d="M135.196 69.8123C129.769 73.1778 129.546 81.6949 133.107 85.6769C136.059 88.9773 144.021 90.7538 144.89 87.832C145.759 84.9103 139.321 83.6419 138.507 82.1172C137.588 80.8142 137.551 79.3565 137.623 78.162" stroke="black" stroke-width="2" stroke-linecap="round" stroke-linejoin="round"/>
<g clip-path="url(#clip2_0_382)">
<path d="M150.801 73.2339L145.467 74.5638C137.59 76.528 129.39 70.8465 127.153 61.8719C124.915 52.8974 129.487 44.0315 137.365 42.0673L142.699 40.7374L150.801 73.2339Z" fill="white" stroke="black" stroke-width="2" stroke-linejoin="round"/>
<path d="M132.137 57.8435L126.833 59.166" stroke="black" stroke-width="2" stroke-linejoin="round"/>
<path d="M132.562 52.137L127.258 53.4594" stroke="black" stroke-width="2" stroke-linejoin="round"/>
<path d="M133.76 63.3015L128.456 64.624" stroke="black" stroke-width="2" stroke-linejoin="round"/>
<path d="M136.318 68.2639L131.014 69.5864" stroke="black" stroke-width="2" stroke-linejoin="round"/>
<path d="M141.178 71.8593L135.874 73.1817" stroke="black" stroke-width="2" stroke-linejoin="round"/>
<path d="M134.418 46.8678L129.114 48.1903" stroke="black" stroke-width="2" stroke-linejoin="round"/>
<path d="M132.363 60.5732C134.601 69.5469 142.801 75.2292 150.678 73.2651C158.556 71.301 163.128 62.4341 160.891 53.4605C158.654 44.4869 150.454 38.8045 142.576 40.7686C134.698 42.7328 130.126 51.5996 132.363 60.5732Z" fill="white" stroke="black" stroke-width="2" stroke-linejoin="round"/>
</g>
</g>
<defs>
<clipPath id="clip0_0_382">
<rect width="180" height="120" fill="white"/>
</clipPath>
<clipPath id="clip1_0_382">
<rect width="123.147" height="28.3901" fill="white" transform="translate(31.1113 90.5)"/>
</clipPath>
<clipPath id="clip2_0_382">
<rect width="43.0579" height="43.0579" fill="white" transform="translate(159.703 31.5686) rotate(76)"/>
</clipPath>
</defs>
</svg>
