<svg width="398" height="307" viewBox="0 0 398 307" fill="none" xmlns="http://www.w3.org/2000/svg">
<path d="M0 36C0 16.1178 16.1178 0 36 0H362C381.882 0 398 16.1178 398 36V307H0V36Z" fill="#DDA2FA"/>
<path d="M133.515 67.584L142.393 68.1255L130.963 74.9526C129.941 75.2425 123.835 88.0084 123.835 88.0084C123.354 90.2884 128.525 105.378 131.252 105.398L141.593 111.034C139.429 112.446 138.16 112.976 138.16 112.976L128.493 112.3C123.216 111.848 118.315 108.691 115.336 102.969C110.073 92.8541 112.853 78.8391 121.545 71.6703C125.281 68.59 129.501 67.278 133.515 67.584Z" fill="#AB8A1D" stroke="black" stroke-width="2.16307" stroke-linejoin="round"/>
<path d="M136.266 77.9841C141.02 75.55 148.842 75.7665 151.859 83.7958L151.859 83.7966C154.527 90.2608 152.532 98.7629 147.399 102.784C144.03 105.423 136.967 105.196 133.942 103.089C134.522 102.792 135.095 102.426 135.653 101.988C140.786 97.9674 142.782 89.4653 140.113 83.0011L140.113 83.0003C139.196 80.7788 137.849 79.0862 136.266 77.9841Z" fill="#AB8A1D" stroke="black" stroke-width="2.16307" stroke-linejoin="round"/>
<path fill-rule="evenodd" clip-rule="evenodd" d="M156.377 77.6004C151.113 67.4787 139.801 65.0843 131.107 72.252C122.413 79.421 119.635 93.4358 124.898 103.551C130.165 113.671 141.475 116.068 150.169 108.9C158.863 101.731 161.641 87.7166 156.378 77.6015L156.377 77.6004ZM149.574 83.7252C147.042 77.6814 140.991 75.8499 136.055 79.6341C131.119 83.419 129.171 91.3856 131.702 97.4255C134.235 103.468 140.286 105.301 145.222 101.517C150.157 97.7324 152.105 89.7658 149.574 83.7259L149.574 83.7252Z" fill="#EDCC37" stroke="black" stroke-width="2.16307" stroke-linejoin="round"/>
<path d="M132.845 69.8391C137.756 68.9732 141.466 66.7375 141.037 64.3029C140.608 61.8683 136.356 61.0364 131.446 61.9023C126.535 62.7681 122.825 65.0039 123.254 67.4385C123.683 69.8731 127.935 70.7049 132.845 69.8391Z" fill="#EDCC37" stroke="black" stroke-width="2.16307" stroke-linejoin="round"/>
<path d="M143.936 47.0369C145.433 47.9461 145.852 49.8473 144.873 51.2907L138.653 60.4604C138.365 60.8861 137.972 61.2406 137.511 61.4933L135.496 62.596C135.17 62.7746 134.814 62.8992 134.445 62.9642L128.989 63.926C128.62 63.991 128.244 63.9955 127.876 63.9393L125.605 63.5922C125.085 63.5127 124.595 63.3139 124.178 63.0128L115.197 56.5238C113.783 55.5023 113.526 53.5722 114.623 52.2056L143.936 47.0369Z" fill="#66ABFE" stroke="black" stroke-width="2.16307" stroke-linejoin="round"/>
<path d="M145.36 49.2222C145.308 48.2754 144.798 47.3725 143.899 46.8269L130.239 39.9354C128.294 38.9541 125.932 39.3965 124.475 41.0153L114.586 51.9957C113.911 52.8367 113.749 53.8911 114.054 54.8158L120.517 56.0168C121.553 56.2328 122.86 56.0024 122.86 56.0024L136.618 53.5765L138.836 52.7059L145.36 49.2222Z" fill="#8DC5F7" stroke="black" stroke-width="2.16307" stroke-linejoin="round"/>
<path d="M126.006 40.053L122.896 55.7353L128.99 63.9271" stroke="black" stroke-width="2.16307" stroke-linecap="round" stroke-linejoin="round"/>
<path d="M128.978 39.5036L137.372 53.182L134.447 62.9642" stroke="black" stroke-width="2.16307" stroke-linecap="round" stroke-linejoin="round"/>
<path d="M283.945 129.183C270.034 121.861 256.546 115.596 252.061 123.84C248.099 135.523 302.82 141.988 304.629 134.9C302.163 137.845 294.419 134.697 283.945 129.183Z" fill="#AB8A1D" stroke="black" stroke-width="2.42264" stroke-linecap="round" stroke-linejoin="round"/>
<path d="M307.559 75.2741C299.811 77.4504 298.243 71.3967 294.065 71.3967C291.673 71.3967 287.467 72.9722 285.705 75.1123C284.295 76.8244 283.946 87.3852 288.306 91.2681C295.244 86.2046 300.463 80.7034 307.559 75.2741Z" fill="#AB8A1D" stroke="black" stroke-width="2.42264" stroke-linecap="round" stroke-linejoin="round"/>
<path d="M284.906 86.7963C286.813 81.6789 286.158 73.6676 282.263 72.8663C279.283 73.7489 271.875 78.3699 268.847 81.8797C267.08 85.0256 274.967 94.9402 278.96 93.6292C280.647 91.8923 284.488 87.4286 284.906 86.7963Z" fill="#EDCC37" stroke="black" stroke-width="2.42264" stroke-linecap="round" stroke-linejoin="round"/>
<path d="M313.731 80.7023C311.474 77.9425 308.104 74.6911 307.717 74.7044C302.062 74.1993 291.795 84.5718 288.957 86.839C288.322 84.6437 288.334 72.3085 293.661 71.4387C293.795 71.4244 293.929 71.41 294.065 71.3956C293.927 71.4028 293.792 71.4173 293.661 71.4387C289.006 71.9367 285.198 72.3833 282.263 72.8661C279.733 76.6634 278.511 81.7884 277.931 86.839C277.414 91.3351 277.412 95.8341 277.005 100.079C276.854 101.664 299.683 109.906 300.277 108.592C303.545 101.372 311.678 90.4264 313.731 80.7023Z" fill="#EDCC37" stroke="black" stroke-width="2.42264" stroke-linecap="round" stroke-linejoin="round"/>
<path d="M301.208 103.81C306.583 110 307.879 128.728 307.159 137.287C304.69 140.241 294.345 138.95 283.863 133.419C276.948 129.771 270.836 125.069 265.13 122.748C259.347 120.395 254.005 120.469 252.181 123.716C252.87 120.47 264.259 100.735 277.428 95.9926C285.409 95.1763 298.256 99.5679 301.208 103.81Z" fill="#EDCC37" stroke="black" stroke-width="2.42264" stroke-linecap="round" stroke-linejoin="round"/>
<path d="M303.668 92.5807C303.248 86.9669 310.024 79.2288 313.717 80.7008C315.717 83.0677 319.348 90.9689 319.938 95.5409C319.223 92.804 304.799 96.785 305.012 99.738C304.563 97.3717 303.668 93.3346 303.668 92.5807Z" fill="#EDCC37" stroke="black" stroke-width="2.42264" stroke-linecap="round" stroke-linejoin="round"/>
<path d="M305.012 99.7364C305.132 101.339 311.383 100.676 314.709 99.5268C317.369 98.6076 320.359 96.8344 319.937 95.5391C319.025 92.7379 304.799 96.8887 305.012 99.7364Z" fill="#AB8A1D" stroke="black" stroke-width="2.42264" stroke-linecap="round" stroke-linejoin="round"/>
<g clip-path="url(#clip0_0_258)">
<path d="M202.081 213.99C238.525 213.99 268.069 205.467 268.069 194.955C268.069 184.442 238.525 175.92 202.081 175.92C165.637 175.92 136.093 184.442 136.093 194.955C136.093 205.467 165.637 213.99 202.081 213.99Z" fill="black"/>
</g>
<path d="M213.145 75.4201L234.212 80.6064L221.684 85.3776L218.607 80.6064L194.802 74.776C201.116 73.6772 207.322 73.9296 213.145 75.4201Z" fill="#DFECF7" stroke="black" stroke-width="2.42264" stroke-linejoin="round"/>
<path d="M177.504 196.514C163.154 192.699 151.159 181.525 145.719 164.277C144.241 159.587 143.328 155.435 142.95 150.525L165.952 156.25L175.573 154.113C177.941 166.063 181.547 177.411 185.3 178.101L211.11 198.698C204.446 201.543 200.684 202.39 200.684 202.39L177.504 196.514Z" fill="#3A7DCF" stroke="black" stroke-width="2.42264" stroke-linejoin="round"/>
<path d="M200.684 202.389L177.504 196.514C168.091 194.012 159.69 188.342 153.489 179.868L202.467 191.801L211.11 198.698C204.447 201.543 200.684 202.389 200.684 202.389Z" fill="black" stroke="black" stroke-width="2.42264" stroke-linejoin="round"/>
<path d="M218.883 80.2151C240.506 76.9981 260.665 89.6151 268.209 113.573L268.212 113.577C269.864 118.818 270.803 124.263 271.087 129.764C272.591 156.368 258.698 184.035 235.83 196.978C230.223 200.151 224.508 202.172 218.883 203.121C196.922 206.826 176.308 194.189 168.654 169.902C167.255 165.462 166.368 160.876 165.957 156.234L218.883 142.908L218.883 142.908V80.2151Z" fill="#8DC5F7"/>
<path d="M218.883 203.121C224.508 202.172 230.223 200.151 235.83 196.978C258.698 184.035 272.591 156.368 271.087 129.764C270.803 124.263 269.864 118.818 268.212 113.577L268.209 113.573C260.665 89.6151 240.506 76.9981 218.883 80.2151V142.908L218.883 142.908L165.957 156.234C166.368 160.876 167.255 165.462 168.654 169.902C176.308 194.189 196.922 206.826 218.883 203.121ZM218.883 203.121V203.12" stroke="black" stroke-width="2.42264" stroke-linejoin="round"/>
<path d="M195.814 137.112L218.802 142.932L165.957 156.249L142.97 150.524L195.814 137.112Z" fill="#DFECF7" stroke="black" stroke-width="2.42264" stroke-linejoin="round"/>
<path d="M194.81 137.091L218.883 142.719V80.3142L194.81 74.7817L194.81 137.091Z" fill="#3A7DCF" stroke="black" stroke-width="2.42264" stroke-linejoin="round"/>
<path d="M184.458 79.2405C181.496 79.5436 158.421 111.821 158.421 111.821C157.212 114.824 158.304 127.186 160.628 139.063L151.091 141.739L128.138 135.77C125.807 108.584 139.8 79.4897 163.236 66.2236C168.761 63.097 174.408 60.6322 179.954 59.6671L204.026 65.5853L184.458 79.2405Z" fill="#E3715D" stroke="black" stroke-width="2.42264" stroke-linejoin="round"/>
<path d="M204.016 128.257L151.09 141.583C148.678 114.344 162.678 85.1463 186.171 71.8498C192.076 68.508 198.101 66.4439 204.016 65.5638V128.257Z" fill="#FC9B8E" stroke="black" stroke-width="2.42264" stroke-linejoin="round"/>
<path d="M244.15 225.445C254.089 225.445 262.146 223.365 262.146 220.8C262.146 218.235 254.089 216.156 244.15 216.156C234.21 216.156 226.153 218.235 226.153 220.8C226.153 223.365 234.21 225.445 244.15 225.445Z" fill="black"/>
<path fill-rule="evenodd" clip-rule="evenodd" d="M230.939 159.569L247.921 155.342C249.361 155.008 250.285 155.136 251.366 155.376L258.239 157.081L235.461 222.905L229.84 221.511C228.572 221.182 227.589 220.034 227.589 218.606V164.669C227.589 162.477 228.813 160.104 230.939 159.569Z" fill="#F5DEFA" stroke="black" stroke-width="2.42264" stroke-linejoin="round"/>
<path fill-rule="evenodd" clip-rule="evenodd" d="M227.589 166.344L227.643 218.266C227.645 219.88 228.762 221.279 230.337 221.637L234.299 222.538L257.51 173.921L227.589 166.344Z" fill="#A55AB8" stroke="black" stroke-width="2.42264" stroke-linejoin="round"/>
<path fill-rule="evenodd" clip-rule="evenodd" d="M236.632 162.134L256.708 157.079C258.601 156.603 260.437 158.034 260.437 159.986V213.17C260.437 215.362 258.947 217.273 256.821 217.808L236.745 222.861C234.852 223.337 233.017 221.906 233.017 219.955V166.773C233.017 164.581 234.506 162.669 236.632 162.134Z" fill="#DDA2FA" stroke="black" stroke-width="2.42264" stroke-linejoin="round"/>
<path fill-rule="evenodd" clip-rule="evenodd" d="M240.106 166.346L253.256 162.989C254.947 162.559 255.708 163.311 255.708 164.817V211.174C255.708 212.38 255.037 213.676 253.516 214.076L239.823 217.53C238.663 217.782 237.868 217.236 237.868 216.109V169.538C237.868 167.978 238.553 166.759 240.106 166.346Z" fill="#F5DEFA" stroke="black" stroke-width="2.42264" stroke-linejoin="round"/>
<path d="M243.145 211.511L250.431 209.724" stroke="black" stroke-width="2.42264" stroke-linecap="round" stroke-linejoin="round"/>
<g clip-path="url(#clip1_0_258)">
<path d="M128.501 226.317C142.005 226.317 152.952 223.456 152.952 219.926C152.952 216.397 142.005 213.536 128.501 213.536C114.998 213.536 104.051 216.397 104.051 219.926C104.051 223.456 114.998 226.317 128.501 226.317Z" fill="black"/>
<path d="M128.501 201.418C142.141 201.418 153.2 198.175 153.2 194.174C153.2 190.173 142.141 180.447 128.501 180.447C114.861 180.447 103.803 190.173 103.803 194.174C103.803 198.175 114.861 201.418 128.501 201.418Z" fill="#F5DEFA" stroke="black" stroke-width="2.42264" stroke-linecap="round" stroke-linejoin="round"/>
<path d="M153.199 194.176C153.818 202.406 145.293 216.905 141.827 220.155C140.04 221.986 135.32 223.364 128.502 223.364C121.684 223.364 117.045 221.986 115.258 220.155C112.159 217.428 103.03 203.104 103.803 194.176C103.803 198.177 114.861 201.42 128.501 201.42C142.141 201.42 153.199 198.177 153.199 194.176Z" fill="#F5DEFA" stroke="black" stroke-width="2.42264" stroke-linecap="round" stroke-linejoin="round"/>
<path d="M135.89 214.885C137.874 213.025 143.98 203 143.626 198.29C143.344 194.551 134.606 193.021 128.263 193.021C121.921 193.021 113.254 194.198 112.9 198.29C112.458 203.4 118.909 213.325 120.683 214.885C121.706 215.933 124.361 216.875 128.263 216.875C132.165 216.875 134.867 215.933 135.89 214.885Z" fill="#D1A923" stroke="black" stroke-width="2.42264" stroke-linecap="round" stroke-linejoin="round"/>
<path d="M128.501 201.418C142.141 201.418 153.2 198.175 153.2 194.174C153.2 190.173 142.141 180.447 128.501 180.447C114.861 180.447 103.803 190.173 103.803 194.174C103.803 198.175 114.861 201.418 128.501 201.418Z" stroke="black" stroke-width="2.42264" stroke-linecap="round" stroke-linejoin="round"/>
<path d="M153.199 194.176C153.818 202.406 145.293 216.905 141.827 220.155C140.04 221.986 135.32 223.364 128.502 223.364C121.684 223.364 117.045 221.986 115.258 220.155C112.159 217.428 103.03 203.104 103.803 194.176C103.803 198.177 114.861 201.42 128.501 201.42C142.141 201.42 153.199 198.177 153.199 194.176Z" stroke="black" stroke-width="2.42264" stroke-linecap="round" stroke-linejoin="round"/>
<path d="M88.8531 159.607C92.7984 152.411 101.831 149.775 109.028 153.72C116.225 157.665 118.861 166.697 114.915 173.894C110.97 181.09 101.938 183.726 94.7407 179.781C87.5438 175.836 84.9078 166.804 88.8531 159.607Z" fill="#90D19F" stroke="black" stroke-width="2.42264" stroke-linecap="round" stroke-linejoin="round"/>
<path d="M93.215 155.026C102.079 152.648 110.223 160.763 110.357 166.782" stroke="#419454" stroke-width="2.42264" stroke-linecap="round" stroke-linejoin="round"/>
<path d="M91.388 177.116C98.8327 179.88 108.345 174.832 109.64 168.952" stroke="#419454" stroke-width="2.42264" stroke-linecap="round" stroke-linejoin="round"/>
<path d="M87.8696 164.26L108.319 167.632" stroke="#419454" stroke-width="2.42264" stroke-linecap="round" stroke-linejoin="round"/>
<path d="M88.8521 159.607C92.7974 152.411 101.83 149.775 109.027 153.72C116.224 157.665 118.86 166.697 114.914 173.894C110.969 181.09 101.937 183.726 94.7397 179.781C87.5428 175.836 84.9069 166.804 88.8521 159.607Z" stroke="black" stroke-width="2.42264" stroke-linecap="round" stroke-linejoin="round"/>
<path d="M110.026 171.638C109.198 171.491 107.786 170.184 108.175 167.946C108.564 165.708 110.217 165.21 110.847 165.21L127.072 167.603L125.944 174.093L110.026 171.638Z" fill="#DAF0DF" stroke="black" stroke-width="2.42264" stroke-linecap="round" stroke-linejoin="round"/>
<path d="M136.424 180.227C136.424 181.542 132.788 182.609 128.303 182.609C123.818 182.609 120.183 181.543 120.183 180.227L120.182 162.713H136.423L136.424 180.227Z" fill="#90D19F" stroke="black" stroke-width="2.42264" stroke-linecap="round" stroke-linejoin="round"/>
<path d="M130.028 171.091C130.028 170.111 130.82 169.247 131.796 169.162C132.772 169.077 133.563 169.802 133.563 170.782V175.622C133.563 176.602 132.772 177.466 131.796 177.551C130.82 177.637 130.028 176.911 130.028 175.932V171.091Z" fill="black"/>
<path d="M128.303 165.1C132.788 165.1 136.424 164.033 136.424 162.718C136.424 161.402 132.788 160.336 128.303 160.336C123.818 160.336 120.182 161.402 120.182 162.718C120.182 164.033 123.818 165.1 128.303 165.1Z" fill="#DAF0DF" stroke="black" stroke-width="2.42264" stroke-linecap="round" stroke-linejoin="round"/>
</g>
<defs>
<clipPath id="clip0_0_258">
<rect width="131.976" height="38.07" fill="white" transform="translate(136.093 175.92)"/>
</clipPath>
<clipPath id="clip1_0_258">
<rect width="77.8706" height="77.8706" fill="white" transform="translate(79.9351 148.446)"/>
</clipPath>
</defs>
</svg>
