<svg width="398" height="307" viewBox="0 0 398 307" fill="none" xmlns="http://www.w3.org/2000/svg">
<rect width="398" height="307" fill="#DDA2FA"/>
<rect width="398" height="307" fill="#EDCC37"/>
<g clip-path="url(#clip0_6085_123967)">
<g clip-path="url(#clip1_6085_123967)">
<path d="M198.354 204.674C228.458 204.674 252.862 197.896 252.862 189.534C252.862 181.171 228.458 174.393 198.354 174.393C168.251 174.393 143.847 181.171 143.847 189.534C143.847 197.896 168.251 204.674 198.354 204.674Z" fill="black"/>
</g>
<path d="M196.136 111.229L153.764 121.43C145.24 123.486 138.332 132.613 138.332 141.812V173.115C138.332 178.134 141.074 184.236 146.013 185.754L166.184 190.783L190.434 177.206L201.44 190.545L219.872 195.162C219.872 195.162 212.908 172.963 212.908 164.215V128.979C211.258 128.727 197.267 112.14 196.136 111.229Z" fill="#3A7DCF" stroke="black" stroke-width="2.42255" stroke-linejoin="round"/>
<path d="M146.013 185.754C141.074 184.237 138.332 178.135 138.332 173.115L179.795 183.391L166.184 190.784L146.013 185.754Z" fill="black" stroke="black" stroke-width="2.42255" stroke-linejoin="round"/>
<path d="M206.42 111.241L225.426 116.174L210.544 150.23L140.693 132.383C143.424 127.038 148.257 122.759 153.764 121.43L196.047 111.241C199.049 110.532 203.52 110.516 206.42 111.241Z" fill="#DFECF7" stroke="black" stroke-width="2.42255" stroke-linejoin="round"/>
<path d="M201.44 190.544L190.435 177.206L212.908 164.215C212.908 172.962 219.872 195.162 219.872 195.162L201.44 190.544Z" fill="#3A7DCF" stroke="black" stroke-width="2.42255" stroke-linejoin="round"/>
<path d="M218.703 116.121L172.27 127.325C163.746 129.382 156.838 138.508 156.838 147.707V177.723C156.838 186.922 163.746 192.714 172.27 190.661L208.94 181.815L219.945 195.153V179.104C227.89 176.505 234.139 167.827 234.139 159.079V129.064C234.139 119.865 227.231 114.069 218.707 116.126L218.703 116.121Z" fill="#66ABFE" stroke="black" stroke-width="2.42255" stroke-linejoin="round"/>
<path d="M227.096 111.211L179.238 95.0508C170.714 97.1075 163.806 106.233 163.806 115.433V146.736C163.806 151.755 165.863 155.76 169.117 158.03C171.826 159.92 191.531 164.374 191.531 164.374L179.697 161.484L181.836 174.179L200.04 178.748L209.821 159.198L227.096 111.211Z" fill="#3A7DCF" stroke="black" stroke-width="2.42255" stroke-linejoin="round"/>
<path d="M169.117 158.031C165.863 155.761 163.806 151.756 163.806 146.736L208.719 158.031L209.821 159.199L191.531 164.375C191.531 164.375 171.826 159.92 169.117 158.031Z" fill="black"/>
<path d="M191.531 164.375L179.697 161.485M191.531 164.375C191.531 164.375 171.826 159.92 169.117 158.031C165.863 155.761 163.806 151.756 163.806 146.736L208.719 158.031L209.821 159.199L191.531 164.375Z" stroke="black" stroke-width="2.42255" stroke-linejoin="round"/>
<path d="M179.688 161.485L191.531 164.375L209.822 159.199L200.04 178.749L181.836 174.18L179.688 161.485Z" fill="#3A7DCF" stroke="black" stroke-width="2.42255" stroke-linejoin="round"/>
<path d="M179.239 95.0518L220.78 85.0136C224.209 84.0144 227.696 84.0719 229.644 84.5074L250.524 89.7162L225.77 124.708L164.83 109.21C167.055 102.426 172.667 96.6376 179.239 95.0518Z" fill="#DFECF7" stroke="black" stroke-width="2.42255" stroke-linejoin="round"/>
<path d="M243.948 89.6935L197.516 100.898C188.992 102.954 182.083 112.08 182.083 121.28V151.295C182.083 160.494 188.992 166.286 197.516 164.234L200.041 178.746L215.851 159.81L245.191 152.676C253.135 150.078 259.385 141.399 259.385 132.652V102.636C259.385 93.4369 252.477 87.6411 243.953 89.6978L243.948 89.6935Z" fill="#8DC5F7" stroke="black" stroke-width="2.42255" stroke-linejoin="round"/>
<path d="M245.935 132.981C250.58 130.352 253.146 117.534 251.523 112.383L244.843 110.715C243.158 110.449 241.507 111.031 239.958 111.908C235.313 114.537 232.865 120.845 234.488 125.996C235.348 128.724 237.163 130.564 239.382 131.32L245.935 132.981Z" fill="black" stroke="black" stroke-width="2.42255" stroke-linejoin="round"/>
<path d="M244.844 110.715C243.159 110.449 241.508 111.031 239.959 111.908C237.574 113.258 235.768 115.578 234.795 118.213L241.107 119.794L244.57 115.629L251.524 112.383L244.844 110.715Z" fill="#DFECF7" stroke="black" stroke-width="2.42255" stroke-linejoin="round"/>
<path fill-rule="evenodd" clip-rule="evenodd" d="M245.812 113.357C250.456 110.728 255.536 112.776 257.159 117.93L257.159 117.93C258.782 123.081 256.334 129.39 251.689 132.019C247.044 134.648 241.966 132.599 240.341 127.445C238.718 122.294 241.167 115.986 245.812 113.357Z" fill="#8DC5F7" stroke="black" stroke-width="2.42255" stroke-linejoin="round"/>
<path d="M225.747 138.026C230.392 135.397 232.958 122.579 231.335 117.428L224.655 115.76C222.97 115.494 221.319 116.076 219.77 116.953C215.125 119.582 212.677 125.89 214.3 131.041C215.16 133.769 216.975 135.609 219.194 136.365L225.747 138.026Z" fill="black" stroke="black" stroke-width="2.42255" stroke-linejoin="round"/>
<path d="M224.656 115.76C222.971 115.494 221.32 116.076 219.771 116.953C217.386 118.302 215.58 120.623 214.607 123.258L220.919 124.839L224.382 120.674L231.336 117.428L224.656 115.76Z" fill="#DFECF7" stroke="black" stroke-width="2.42255" stroke-linejoin="round"/>
<path fill-rule="evenodd" clip-rule="evenodd" d="M225.624 118.402C230.268 115.773 235.348 117.82 236.971 122.975L236.971 122.975C238.594 128.126 236.146 134.435 231.501 137.064C226.856 139.692 221.778 137.644 220.153 132.49C218.53 127.339 220.979 121.031 225.624 118.402Z" fill="#8DC5F7" stroke="black" stroke-width="2.42255" stroke-linejoin="round"/>
<path d="M205.559 143.075C210.204 140.446 212.77 127.627 211.147 122.476L204.467 120.809C202.782 120.543 201.131 121.125 199.582 122.001C194.938 124.63 192.489 130.939 194.112 136.09C194.972 138.818 196.787 140.658 199.006 141.413L205.559 143.075Z" fill="black" stroke="black" stroke-width="2.42255" stroke-linejoin="round"/>
<path d="M204.468 120.809C202.783 120.543 201.132 121.125 199.583 122.001C197.198 123.351 195.392 125.672 194.419 128.307L200.731 129.888L204.194 125.723L211.148 122.476L204.468 120.809Z" fill="#DFECF7" stroke="black" stroke-width="2.42255" stroke-linejoin="round"/>
<path fill-rule="evenodd" clip-rule="evenodd" d="M205.436 123.45C210.08 120.822 215.16 122.869 216.783 128.024L216.783 128.024C218.406 133.175 215.958 139.484 211.313 142.113C206.668 144.741 201.59 142.693 199.965 137.539C198.342 132.388 200.791 126.079 205.436 123.45Z" fill="#8DC5F7" stroke="black" stroke-width="2.42255" stroke-linejoin="round"/>
</g>
<path d="M112.418 98.9642C112.71 99.1915 125.382 102.258 125.382 102.258L142.604 72.6335L138.479 61.5464C138.479 61.5464 122.226 57.3998 120.07 65.3745C119.017 69.2677 120.994 75.6502 120.985 75.661C120.975 75.6719 120.966 75.683 120.957 75.6942L118.021 79.3532C117.102 80.4923 116.277 81.5968 115.543 82.6664L115.542 82.6671C114.793 83.7608 114.152 84.8737 113.62 86.0078C113.073 87.1707 112.662 88.4132 112.38 89.7311C112.095 91.0606 111.957 92.4885 111.957 94.0079V98.0187C111.957 98.3882 112.127 98.7369 112.418 98.9642Z" fill="#419454" stroke="black" stroke-width="2.42255" stroke-linejoin="round"/>
<path d="M99.5055 73.3622C99.7687 73.6249 112.495 76.7288 112.495 76.7288L124.673 62.2894L138.25 54.3387C138.25 54.3387 125.974 51.1728 123.94 50.9791H123.939C121.848 50.7822 119.632 50.986 117.299 51.5712C115.106 52.1213 113.032 52.9637 111.083 54.0959L110.694 54.3261C108.63 55.5777 106.803 57.1078 105.213 58.9133L105.213 58.914C103.723 60.6071 102.468 62.5071 101.451 64.6127L101.25 65.0367C100.188 67.327 99.4952 69.7702 99.1631 72.3604C99.1158 72.7293 99.2422 73.0995 99.5055 73.3622Z" fill="#DAF0DF" stroke="black" stroke-width="2.42255" stroke-linejoin="round"/>
<path d="M147.432 67.2246C147.432 69.09 147.238 70.7988 146.838 72.3432L146.838 72.3446C146.444 73.8587 145.895 75.2883 145.188 76.6248L145.188 76.6255C144.487 77.9497 143.637 79.2314 142.642 80.4726L142.641 80.4732C141.677 81.6729 140.634 82.9182 139.514 84.2089L139.511 84.2122C138.459 85.4148 137.573 86.473 136.847 87.3919C136.149 88.2756 135.618 89.1111 135.24 89.9019C134.862 90.6929 134.59 91.5316 134.422 92.4232L134.422 92.4229C134.254 93.3235 134.165 94.4376 134.165 95.7806V98.6216C134.17 98.6933 134.17 98.766 134.162 98.8392C134.107 99.3377 133.748 99.7494 133.261 99.8714L125.794 101.743C125.435 101.833 125.056 101.753 124.764 101.526C124.473 101.298 124.303 100.949 124.303 100.58V96.5692C124.303 95.0498 124.441 93.6219 124.725 92.2923C125.008 90.9744 125.419 89.732 125.965 88.5691C126.498 87.435 127.139 86.3221 127.888 85.2284L127.889 85.2277C128.623 84.1581 129.448 83.0536 130.367 81.9145L133.303 78.2555C133.312 78.2443 133.321 78.2332 133.331 78.2223C134.441 76.9368 135.356 75.6098 136.078 74.2494C136.737 73.0064 137.089 71.5088 137.089 69.7198C137.089 67.2888 136.366 65.7881 135.157 64.9027C133.912 63.9917 132.233 63.7017 129.922 64.2802C127.644 64.8507 125.664 66.1436 124.244 68.0895C122.779 70.1031 121.931 72.3067 121.688 74.7163C121.632 75.2706 121.202 75.7137 120.65 75.7857L113.025 76.7788C112.656 76.8268 112.286 76.7011 112.022 76.4384C111.759 76.1756 111.633 75.8055 111.68 75.4366C112.012 72.8464 112.705 70.4031 113.767 68.1129L113.968 67.6888C114.985 65.5833 116.24 63.6833 117.729 61.9901L117.73 61.9895C119.32 60.1839 121.147 58.6539 123.211 57.4023L123.599 57.172C125.548 56.0399 127.623 55.1974 129.816 54.6474C132.149 54.0622 134.365 53.8584 136.456 54.0553H136.457C138.491 54.249 140.331 54.8319 141.952 55.8205L142.108 55.9176L142.108 55.9179C143.792 56.9824 145.1 58.4801 146.036 60.3681C146.986 62.2857 147.432 64.5887 147.432 67.2246Z" fill="#90D19F" stroke="black" stroke-width="2.42255" stroke-linejoin="round"/>
<path d="M120.618 104.555L131.97 107.401L127.849 108.971C127.499 109.007 124.772 112.82 124.772 112.82C124.484 113.536 125.303 118.756 126.192 118.919L129.241 121.353C128.454 121.689 128.009 121.789 128.009 121.789L116.408 118.861C114.712 118.41 113.295 117.09 112.652 115.052C111.517 111.45 113.23 107.038 116.478 105.199C117.874 104.409 119.326 104.224 120.618 104.555Z" fill="#419454" stroke="black" stroke-width="2.42255" stroke-linejoin="round"/>
<path fill-rule="evenodd" clip-rule="evenodd" d="M135.988 111.296C134.853 107.692 131.301 106.26 128.052 108.098C124.804 109.937 123.091 114.349 124.226 117.951C125.362 121.556 128.914 122.988 132.163 121.15C135.411 119.312 137.123 114.899 135.988 111.297L135.988 111.296Z" fill="#90D19F" stroke="black" stroke-width="2.42255" stroke-linejoin="round"/>
<path d="M287.689 225.486C270.334 225.486 256.265 221.857 256.265 217.38C256.265 212.903 270.334 209.273 287.689 209.273C305.044 209.273 319.113 212.903 319.113 217.38C319.113 221.857 305.044 225.486 287.689 225.486Z" fill="black"/>
<path d="M281.892 195.605C284.106 194.902 287.407 194.516 289.444 194.589L300.492 197.342C303.6 199.975 304.725 205.274 305.64 210.165L271.294 222.887L261.643 220.486C263.862 209.131 271.961 198.757 281.892 195.605Z" fill="#419454" stroke="black" stroke-width="2.42255" stroke-linejoin="round"/>
<path d="M270.867 178.615C271.062 184.137 273.794 188.154 277.71 189.573C279.708 190.298 288.139 192.166 288.139 192.166C295.345 189.876 298.303 169.642 298.008 161.303L288.276 158.942C286.728 158.522 284.635 158.971 283.378 159.37C276.172 161.658 270.572 170.275 270.867 178.615Z" fill="#419454" stroke="black" stroke-width="2.42255" stroke-linejoin="round"/>
<path d="M291.561 197.99C302.341 194.568 311.61 200.814 313.738 212.189L271.312 222.872C273.53 211.516 281.63 201.143 291.561 197.99Z" fill="#90D19F" stroke="black" stroke-width="2.42255" stroke-linejoin="round"/>
<path d="M280.534 180.998C280.829 189.337 286.91 194.243 294.116 191.956C301.321 189.666 306.921 181.051 306.626 172.711C306.331 164.372 300.25 159.466 293.045 161.753C285.839 164.04 280.239 172.658 280.534 180.998Z" fill="#90D19F" stroke="black" stroke-width="2.42255" stroke-linejoin="round"/>
<path d="M244.154 57.292C240.136 58.3168 236.38 61.5947 234.368 65.9064C232.352 70.2302 232.106 75.5487 235.031 80.6395C236.96 83.9762 241.809 88.9118 246.169 93.0111C250.538 97.1194 254.451 100.421 254.543 100.495C254.546 100.498 254.549 100.5 254.552 100.503C254.723 100.628 254.905 100.712 255.094 100.756C255.327 100.81 265.239 103.245 265.239 103.245C265.239 103.245 263.427 95.0282 267.796 88.7934C272.156 82.5722 277.005 75.275 278.934 71.0009C281.859 64.4859 284.757 57.5594 282.74 54.2182L271.76 51.6071C270.008 51.2583 268.526 51.3737 267.521 51.6073L267.42 51.6314C263.835 52.5116 260.585 55.2514 257.687 60.1388L257.803 59.6542C257.64 59.6346 248.543 57.3144 247.929 57.1704C245.946 56.705 244.155 57.2965 244.155 57.2965L244.154 57.292Z" fill="#A55AB8" stroke="black" stroke-width="2.42255" stroke-linejoin="round"/>
<path d="M234.368 65.9064C236.38 61.5947 240.136 58.3168 244.154 57.292L244.155 57.2965C244.155 57.2965 245.946 56.705 247.929 57.1704C248.543 57.3144 257.64 59.6346 257.803 59.6542L257.687 60.1388C260.585 55.2514 263.835 52.5116 267.42 51.6314L267.521 51.6073C268.526 51.3737 270.008 51.2583 271.76 51.6071L282.74 54.2182C284.757 57.5594 281.859 64.4859 278.934 71.0009C278.329 72.3398 276.804 74.7696 275.731 76.5758L234.368 65.9064Z" fill="#F5DEFA" stroke="black" stroke-width="2.42255" stroke-linejoin="round"/>
<path d="M254.364 59.7953C250.347 60.8201 246.591 64.098 244.579 68.4097C242.563 72.7335 242.317 78.0519 245.242 83.1428C247.171 86.4795 252.019 91.4151 256.379 95.5144C260.748 99.6226 264.662 102.925 264.754 102.998C264.757 103.001 264.76 103.003 264.763 103.006C265.146 103.286 265.58 103.36 266.034 103.243C266.035 103.243 266.038 103.243 266.041 103.241C266.049 103.241 266.056 103.238 266.064 103.237C266.516 103.133 266.951 102.846 267.334 102.381C267.337 102.378 267.34 102.373 267.343 102.37C267.435 102.251 271.349 97.044 275.718 90.8093C280.078 84.5881 284.926 77.2909 286.855 73.0168C289.781 66.5017 289.536 61.3008 287.518 57.9597C285.507 54.6275 281.751 53.1777 277.733 54.1091L277.632 54.1332C273.464 55.158 269.066 58.6951 266.05 65.2042C263.035 60.163 258.638 58.766 254.468 59.7712L254.367 59.7968L254.364 59.7953Z" fill="#DDA2FA" stroke="black" stroke-width="2.42255" stroke-linejoin="round"/>
<path d="M97.4059 215.119C105.437 215.119 111.947 213.44 111.947 211.368C111.947 209.297 105.437 207.617 97.4059 207.617C89.3749 207.617 82.8645 209.297 82.8645 211.368C82.8645 213.44 89.3749 215.119 97.4059 215.119Z" fill="black"/>
<path d="M108.114 164.551L95.3649 161.385L85.7023 163.841L98.4547 167.011L108.114 164.551Z" fill="#FFE1DE" stroke="black" stroke-width="2.42255" stroke-linejoin="round"/>
<path d="M85.6476 163.844L85.6483 210.395L98.4006 213.568L98.4 167.014L85.6476 163.844Z" fill="#D44C3B" stroke="black" stroke-width="2.42255" stroke-linejoin="round"/>
<path d="M108.178 164.568L108.178 211.119L98.3999 213.566L98.3992 167.012L108.178 164.568Z" fill="#FC9B8E" stroke="black" stroke-width="2.42255" stroke-linejoin="round"/>
<path d="M93.2116 141.928L104.564 144.774L100.442 146.344C100.092 146.38 97.3657 150.193 97.3657 150.193C97.0775 150.909 97.8965 156.129 98.785 156.292L101.834 158.726C101.047 159.062 100.602 159.162 100.602 159.162L89.0009 156.234C87.3055 155.783 85.8884 154.463 85.2457 152.425C84.1107 148.823 85.8235 144.411 89.0716 142.572C90.4675 141.782 91.9195 141.597 93.2116 141.928Z" fill="#D44C3B" stroke="black" stroke-width="2.42255" stroke-linejoin="round"/>
<path fill-rule="evenodd" clip-rule="evenodd" d="M108.58 148.671C107.445 145.067 103.893 143.635 100.645 145.473C97.3961 147.312 95.6837 151.724 96.8188 155.326C97.9547 158.931 101.507 160.363 104.755 158.525C108.004 156.687 109.716 152.274 108.581 148.672L108.58 148.671Z" fill="#FC9B8E" stroke="black" stroke-width="2.42255" stroke-linejoin="round"/>
<defs>
<clipPath id="clip0_6085_123967">
<rect width="181.691" height="181.691" fill="white" transform="translate(107.509 52.2559)"/>
</clipPath>
<clipPath id="clip1_6085_123967">
<rect width="109.015" height="30.2819" fill="white" transform="translate(143.847 174.393)"/>
</clipPath>
</defs>
</svg>
