<svg width="398" height="307" viewBox="0 0 398 307" fill="none" xmlns="http://www.w3.org/2000/svg">
<rect width="398" height="307" fill="#EDCC37"/>
<path d="M107.726 105.023L112.287 107.047L107.241 107.998C106.833 107.967 102.924 111.775 102.924 111.775C102.447 112.537 102.311 118.686 103.296 119.056L106.289 122.472C105.318 122.695 104.888 122.769 104.888 122.769L99.959 120.542C98.109 119.677 96.7554 117.88 96.4382 115.413C95.8788 111.051 98.7494 106.348 102.85 104.91C104.612 104.292 106.314 104.378 107.726 105.023Z" fill="#8F8B88" stroke="black" stroke-width="2.42258" stroke-linecap="round" stroke-linejoin="round"/>
<path fill-rule="evenodd" clip-rule="evenodd" d="M116.088 112.337C115.529 107.973 111.753 105.601 107.652 107.039C103.551 108.478 100.681 113.181 101.241 117.542C101.801 121.906 105.576 124.278 109.677 122.84C113.777 121.402 116.647 116.699 116.088 112.337L116.088 112.337Z" fill="#75726F" stroke="black" stroke-width="2.42258" stroke-linecap="round" stroke-linejoin="round"/>
<path fill-rule="evenodd" clip-rule="evenodd" d="M111.12 113.971C110.938 112.459 109.665 111.643 108.277 112.148C106.888 112.653 105.91 114.288 106.092 115.799C106.275 117.311 107.547 118.127 108.936 117.622C110.324 117.117 111.302 115.482 111.12 113.971Z" fill="#3D3B3A" stroke="black" stroke-width="2.42258" stroke-linecap="round" stroke-linejoin="round"/>
<path d="M135.227 103.199L139.788 105.223L134.742 106.174C134.333 106.143 130.425 109.951 130.425 109.951C129.947 110.712 129.812 116.862 130.796 117.232L133.79 120.648C132.818 120.871 132.389 120.944 132.389 120.944L127.46 118.718C125.61 117.852 124.256 116.056 123.939 113.588C123.379 109.227 126.25 104.524 130.35 103.085C132.112 102.467 133.814 102.554 135.227 103.199Z" fill="#8F8B88" stroke="black" stroke-width="2.42258" stroke-linecap="round" stroke-linejoin="round"/>
<path fill-rule="evenodd" clip-rule="evenodd" d="M143.588 110.513C143.029 106.149 139.253 103.777 135.153 105.215C131.052 106.653 128.182 111.357 128.741 115.718C129.301 120.082 133.077 122.454 137.177 121.016C141.278 119.578 144.148 114.875 143.589 110.513L143.588 110.513Z" fill="#75726F" stroke="black" stroke-width="2.42258" stroke-linecap="round" stroke-linejoin="round"/>
<path fill-rule="evenodd" clip-rule="evenodd" d="M138.682 112.102C138.51 110.532 137.242 109.693 135.848 110.227C134.454 110.762 133.463 112.468 133.635 114.037C133.807 115.607 135.075 116.446 136.469 115.912C137.863 115.377 138.854 113.671 138.682 112.102Z" fill="#3D3B3A" stroke="black" stroke-width="2.42258" stroke-linecap="round" stroke-linejoin="round"/>
<path d="M87.5222 96.669L91.9408 98.6302L87.0525 99.5509C86.6569 99.5209 82.8705 103.21 82.8705 103.21C82.4078 103.948 82.2765 109.906 83.2302 110.264L86.1301 113.573C85.1892 113.789 84.6499 113.804 84.6499 113.804L79.9977 111.703C78.2055 110.865 76.8942 109.124 76.587 106.734C76.045 102.509 78.8259 97.9527 82.798 96.5592C84.5051 95.9605 86.1538 96.0443 87.5222 96.669Z" fill="#8F8B88" stroke="black" stroke-width="2.42258" stroke-linecap="round" stroke-linejoin="round"/>
<path fill-rule="evenodd" clip-rule="evenodd" d="M95.6237 103.754C95.0822 99.5268 91.4242 97.2294 87.4517 98.6223C83.4792 100.016 80.6988 104.572 81.2407 108.797C81.7833 113.025 85.4406 115.323 89.4131 113.93C93.3857 112.537 96.166 107.98 95.6241 103.755L95.6237 103.754Z" fill="#75726F" stroke="black" stroke-width="2.42258" stroke-linecap="round" stroke-linejoin="round"/>
<path d="M136.899 83.9932C130.47 81.483 123.124 81.5359 116.711 84.2563C114.232 87.0728 111.282 95.3941 110.648 98.925L145.579 95.7377L136.899 83.9932Z" fill="#8DC5F7" stroke="black" stroke-width="2.42258" stroke-linecap="round" stroke-linejoin="round"/>
<path fill-rule="evenodd" clip-rule="evenodd" d="M99.8363 77.3259C99.8368 77.3265 116.384 84.7221 116.384 84.7221C116.384 84.7221 115.654 85.8255 113.813 90.5332C111.971 95.2409 111.825 96.9814 111.825 96.9814C111.825 96.9814 93.4892 90.0785 91.5929 87.5769C93.5118 83.5505 96.9605 79.3506 99.8363 77.3259Z" fill="#8DC5F7" stroke="black" stroke-width="2.42258" stroke-linecap="round" stroke-linejoin="round"/>
<path d="M121.52 76.6826C115.459 74.7553 102.819 76.3122 99.8349 77.3266L116.383 84.7216C121.683 83.3687 130.075 82.7686 136.896 83.9933C136.08 83.1561 134.854 82.6654 133.43 82.0272L121.52 76.6826Z" fill="#FFE1DE" stroke="black" stroke-width="2.42258" stroke-linejoin="round"/>
<path d="M141.643 95.2184C142.802 95.0905 144.053 93.812 143.084 92.3888C143.817 93.216 144.03 93.7862 144.914 94.6715C145.798 95.557 146.136 96.628 146.512 98.4009C147.265 101.944 146.778 107.011 146.516 108.468L146.51 108.503C146.272 109.833 145.958 111.581 144.479 111.847L143.655 111.895C143.661 107.935 141.423 104.788 137.148 104.81C134.318 104.825 129.759 107.776 128.843 112.878L116.158 113.728C116.226 110.955 114.794 106.906 110.369 106.627C104.771 106.428 101.82 111.969 101.327 114.713L93.1988 115.268L96.1195 99.0032L111.846 97.0275L141.643 95.2184Z" fill="#D44C3B" stroke="black" stroke-width="2.42258" stroke-linejoin="round"/>
<path d="M85.1281 88.8019L90.3608 88.0211C90.7615 87.9295 91.1093 87.9306 91.5919 87.5782L111.906 96.6884C111.632 96.9842 111.242 97.1743 110.781 97.205L105.537 97.9933C100.947 98.6833 95.946 100.169 95.1257 104.738L93.6041 112.698L73.2655 103.563L73.507 102.218C73.6468 101.44 74.2936 100.854 75.0817 100.791L76.2339 94.3694L75.0031 93.8275C75.6227 90.3765 80.5327 89.4876 85.1281 88.8019Z" fill="#FFE1DE" stroke="black" stroke-width="2.42258" stroke-linejoin="round"/>
<path d="M93.1976 115.265L72.8115 106.092L73.7522 100.852C73.892 100.074 74.5388 99.488 75.3269 99.4252L76.0431 95.4368L95.2004 104.321L93.1976 115.265Z" fill="#FC9B8E" stroke="black" stroke-width="2.42258" stroke-linejoin="round"/>
<path d="M76.2339 94.3692L93.4722 102.075C94.1537 102.38 94.5351 103.114 94.3931 103.848L93.9469 106.151C93.7498 107.168 92.6563 107.736 91.7109 107.312L75.2327 99.9448L76.2339 94.3692Z" fill="#D44C3B" stroke="black" stroke-width="2.42258" stroke-linejoin="round"/>
<path d="M127.137 83.5032L127.184 95.5835L128.102 98.0966C128.343 98.754 128.378 99.4689 128.204 100.147L125.016 112.54" stroke="black" stroke-width="2.42258" stroke-linecap="round" stroke-linejoin="round"/>
<path d="M76.5514 94.5105L80.246 96.1657C80.9201 96.4677 81.3017 97.1901 81.1711 97.917L80.7552 100.233C80.5705 101.262 79.4688 101.844 78.5152 101.416L74.8207 99.7601C74.1468 99.4581 73.7654 98.7358 73.8959 98.009L74.3117 95.6935C74.4964 94.665 75.5978 94.0832 76.5514 94.5105Z" fill="#FCEDB8" stroke="black" stroke-width="2.42258" stroke-linejoin="round"/>
<path d="M89.7802 100.413L93.4748 102.068C94.1488 102.37 94.5304 103.092 94.3999 103.819L93.984 106.136C93.7992 107.164 92.6976 107.746 91.7439 107.318L88.0495 105.662C87.3756 105.36 86.9941 104.638 87.1246 103.911L87.5404 101.596C87.7251 100.567 88.8265 99.9856 89.7802 100.413Z" fill="#FCEDB8" stroke="black" stroke-width="2.42258" stroke-linejoin="round"/>
<g clip-path="url(#clip0_5618_141977)">
<path d="M196.89 206.541C234.735 206.541 265.415 198.587 265.415 188.775C265.415 178.964 234.735 171.01 196.89 171.01C159.045 171.01 128.366 178.964 128.366 188.775C128.366 198.587 159.045 206.541 196.89 206.541Z" fill="black"/>
</g>
<circle cx="196.89" cy="136.041" r="62.814" fill="url(#paint0_radial_5618_141977)" stroke="black" stroke-width="2.42258"/>
<path d="M243.631 128.691C229.902 119.71 222.725 110.92 214.696 100.465C213.104 98.393 211.932 97.6602 210.515 97.6602C209.098 97.6602 208.007 98.336 207.067 101.133C202.682 114.198 192.646 124.421 180.408 130.426C177.986 131.614 176.622 132.954 176.622 134.371C176.622 135.787 177.986 137.127 180.408 138.316C193.029 144.508 203.757 152.952 209.823 168.121C210.633 170.153 211.883 170.833 213.129 170.833C214.375 170.833 215.677 169.994 216.76 168.248C222.236 159.405 231.909 145.245 244.168 137.131C245.931 135.963 247.12 134.688 246.904 132.644C246.68 130.491 244.653 129.367 243.631 128.695V128.691Z" fill="white" stroke="black" stroke-width="2.42258" stroke-linejoin="round"/>
<path d="M116.542 224.963C100.015 224.963 86.6166 221.505 86.6166 217.24C86.6166 212.975 100.015 209.518 116.542 209.518C133.069 209.518 146.467 212.975 146.467 217.24C146.467 221.505 133.069 224.963 116.542 224.963Z" fill="black"/>
<path d="M144.737 216.422C134.352 216.422 125.933 214.249 125.933 211.569C125.933 208.889 134.352 206.717 144.737 206.717C155.122 206.717 163.541 208.889 163.541 211.569C163.541 214.249 155.122 216.422 144.737 216.422Z" fill="black"/>
<path d="M158.014 209.807C158.014 211.903 151.884 213.604 144.736 213.604C137.587 213.604 131.458 211.904 131.458 209.807L129.451 177.238H160.019L158.014 209.807Z" fill="#66ABFE" stroke="black" stroke-width="2.42258" stroke-linejoin="round"/>
<path d="M161.83 176.835C161.83 179.603 154.177 181.849 144.736 181.849C135.295 181.849 127.643 179.605 127.643 176.835L127.642 167.145H161.829L161.83 176.835Z" fill="#8DC5F7" stroke="black" stroke-width="2.42258" stroke-linejoin="round"/>
<path d="M144.736 172.279C154.177 172.279 161.83 170.035 161.83 167.266C161.83 164.496 154.177 162.252 144.736 162.252C135.295 162.252 127.642 164.496 127.642 167.266C127.642 170.035 135.295 172.279 144.736 172.279Z" fill="#DFECF7" stroke="black" stroke-width="2.42258" stroke-linejoin="round"/>
<path d="M147.383 166.544C147.383 166.915 145.986 167.382 144.689 167.267C143.311 167.145 141.942 166.709 141.942 166.338L147.007 150.035C147.007 150.035 147.541 149.45 149.633 149.824C151.726 150.198 152.181 151.071 152.181 151.071L147.383 166.544Z" fill="#DDA2FA" stroke="black" stroke-width="2.42258" stroke-linejoin="round"/>
<path d="M141.244 215.456C140.656 219.704 130.184 222.702 116.541 222.702C102.897 222.702 92.5801 219.641 91.8391 215.456L89.4331 200.652H143.646L141.244 215.456Z" fill="#8DC5F7" stroke="black" stroke-width="2.42258" stroke-linejoin="round"/>
<path d="M116.541 206.805C132.105 206.805 144.724 203.283 144.724 198.937C144.724 194.591 132.105 191.068 116.541 191.068C100.976 191.068 88.3577 194.591 88.3577 198.937C88.3577 203.283 100.976 206.805 116.541 206.805Z" fill="#3A7DCF" stroke="black" stroke-width="2.42258" stroke-linejoin="round"/>
<path d="M144.724 198.94C144.724 203.286 132.105 206.809 116.541 206.809C100.976 206.809 88.3577 203.286 88.3577 198.94C88.3577 196.116 92.4598 188.157 104.81 184.588H128.271C139.568 188.163 144.724 196.116 144.724 198.94Z" fill="#DFECF7" stroke="black" stroke-width="2.42258" stroke-linejoin="round"/>
<path d="M123.908 195.52C127.911 192.6 133.291 193.158 135.924 196.767C137.552 198.998 137.748 201.872 136.717 204.432C132.583 205.615 127.126 206.435 121.014 206.708C118.933 203.136 120.135 198.274 123.908 195.52Z" fill="#EDCC37" stroke="black" stroke-width="2.42258" stroke-linecap="round" stroke-linejoin="round"/>
<path d="M102.067 196.536C94.7882 194.375 90.6651 200.727 91.2651 202.426C100.268 207.26 120.392 207.749 131.949 205.53C130.627 200.715 125.625 197.99 120.392 199.22C119.953 195.486 116.031 193.768 111.724 195.148C110.228 194.297 104.781 192.464 102.067 196.536Z" fill="#57C26E" stroke="black" stroke-width="2.42258" stroke-linecap="round" stroke-linejoin="round"/>
<path d="M116.541 191.626C124.751 191.626 131.407 189.675 131.407 187.266C131.407 184.858 124.751 182.906 116.541 182.906C108.331 182.906 101.675 184.858 101.675 187.266C101.675 189.675 108.331 191.626 116.541 191.626Z" fill="#DFECF7" stroke="black" stroke-width="2.42258" stroke-linejoin="round"/>
<path d="M259.654 69.1758C265.159 73.6784 267.759 72.6585 271.256 73.3999C273.557 73.8879 276.143 75.1949 276.45 78.245C276.975 83.4716 269.979 86.9213 260.864 82.6339C253.5 79.1705 249.251 73.9491 249.217 71.0473" fill="#C7C381"/>
<path d="M259.654 69.1758C265.159 73.6784 267.759 72.6585 271.256 73.3999C273.557 73.8879 276.143 75.1949 276.45 78.245C276.975 83.4716 269.979 86.9213 260.864 82.6339C253.5 79.1705 249.251 73.9491 249.217 71.0473C249.679 65.5579 256.332 66.1145 259.654 69.1758Z" stroke="black" stroke-width="2.42258" stroke-linecap="round" stroke-linejoin="round"/>
<path d="M263.834 86.7923C264.534 94.802 260.927 99.9003 255.683 101.687C242.213 106.275 233.289 99.9378 232.589 91.9281C231.723 82.0338 232.32 68.4865 241.605 65.2427C249.741 62.4003 257.785 63.8298 260.789 76.6901C261.611 80.2079 263.44 82.2921 263.834 86.7923Z" fill="#C7C381" stroke="black" stroke-width="2.42258" stroke-linecap="round" stroke-linejoin="round"/>
<path d="M259.111 98.9331C260.032 100.785 265.745 103.78 271.808 103.25C278.541 102.661 279.378 93.5532 276.865 87.7133C275.546 84.646 272.088 82.3986 267.67 84.8124C266.287 84.1999 264.725 83.35 263.734 83.8782C260.591 85.5533 262.122 93.9089 259.111 98.9331Z" fill="#C7C381" stroke="black" stroke-width="2.42258" stroke-linecap="round" stroke-linejoin="round"/>
<path d="M277.959 94.0589C278.326 98.2477 276.283 102.362 273.845 102.575C271.407 102.789 269.288 100.214 268.922 96.0254C268.555 91.8367 269.758 87.9548 272.508 87.2963C275.259 86.6379 277.533 89.1915 277.959 94.0589Z" fill="#8C883F" stroke="black" stroke-width="2.42258" stroke-linecap="round" stroke-linejoin="round"/>
<path d="M234.449 100.786C235.005 107.131 242.694 111.455 250.354 110.785C257.087 110.196 257.923 101.088 255.411 95.2482C254.091 92.1809 250.633 89.9335 246.216 92.3473C244.061 90.8898 240.548 91.1492 238.577 92.198C234.828 94.1929 234.124 97.0709 234.449 100.786Z" fill="#C7C381" stroke="black" stroke-width="2.42258" stroke-linecap="round" stroke-linejoin="round"/>
<path d="M256.335 101.612C256.701 105.8 254.659 109.915 252.221 110.128C249.783 110.341 247.664 107.767 247.297 103.578C246.931 99.3894 248.133 95.5075 250.884 94.8491C253.635 94.1907 255.909 96.7442 256.335 101.612Z" fill="#8C883F" stroke="black" stroke-width="2.42258" stroke-linecap="round" stroke-linejoin="round"/>
<path d="M236.076 79.408C234.101 86.2399 236.062 88.2299 236.756 91.7361C237.212 94.0435 237.66 96.8866 234.976 98.3679C230.377 100.906 223.822 95.8806 224.178 85.8136C224.466 77.6813 228.76 70.086 237.027 67.8197" fill="#C7C381"/>
<path d="M236.076 79.408C234.101 86.2399 236.062 88.2299 236.756 91.7361C237.212 94.0435 237.66 96.8866 234.976 98.3679C230.377 100.906 223.822 95.8806 224.178 85.8136C224.466 77.6813 228.76 70.086 237.027 67.8197" stroke="black" stroke-width="2.42258" stroke-linecap="round" stroke-linejoin="round"/>
<path d="M254.509 48.6533C257.798 44.6485 256.464 37.9234 251.083 36.5062C246.47 35.2913 242.258 39.7081 242.113 42.8105C242.353 44.2434 243.986 45.612 245.226 45.9457" fill="#C7C381"/>
<path d="M254.509 48.6533C257.798 44.6485 256.464 37.9234 251.083 36.5062C246.47 35.2913 242.258 39.7081 242.113 42.8105C242.353 44.2434 243.986 45.612 245.226 45.9457" stroke="black" stroke-width="2.42258" stroke-linecap="round" stroke-linejoin="round"/>
<path d="M260.695 56.3928C261.396 64.4025 255.384 69.3195 247.935 71.4403C236.763 74.6212 227.511 70.1023 226.811 62.0926C226.11 54.0829 228.373 45.9234 237.658 42.6796C245.794 39.8372 251.365 43.2201 255.345 46.3522C257.469 48.0238 260.301 51.8926 260.695 56.3928Z" fill="#C7C381" stroke="black" stroke-width="2.42258" stroke-linecap="round" stroke-linejoin="round"/>
<path d="M247.807 64.3825C249.573 64.2286 252.542 63.4488 251.712 59.92" stroke="black" stroke-width="2.42258" stroke-linecap="round" stroke-linejoin="round"/>
<path d="M254.992 62.202C253.732 62.8467 252.492 62.463 251.854 61.1582" stroke="black" stroke-width="2.42258" stroke-linecap="round" stroke-linejoin="round"/>
<path d="M228.068 58.021C222.91 57.5179 219.094 51.8221 221.894 47.0131C224.293 42.8906 230.395 43.0313 232.693 45.1206C233.537 46.3029 233.351 48.4258 232.712 49.5386" fill="#C7C381"/>
<path d="M228.068 58.021C222.91 57.5179 219.094 51.8221 221.894 47.0131C224.293 42.8906 230.395 43.0313 232.693 45.1206C233.537 46.3029 233.351 48.4258 232.712 49.5386" stroke="black" stroke-width="2.42258" stroke-linecap="round" stroke-linejoin="round"/>
<ellipse cx="1.56924" cy="2.02623" rx="1.56924" ry="2.02623" transform="matrix(0.907744 -0.419525 0.419524 0.907744 238.468 53.9238)" fill="black"/>
<ellipse cx="1.56924" cy="2.02622" rx="1.56924" ry="2.02622" transform="matrix(0.907743 -0.419526 0.419523 0.907745 250.404 49.0527)" fill="black"/>
<path d="M253.306 55.786C252.323 54.6608 247.594 56.0109 247.723 57.4856C248.194 59.5318 251.009 60.5518 251.807 60.3701C252.625 60.1838 254.288 56.9113 253.306 55.786Z" fill="#8C883F" stroke="black" stroke-width="2.42258" stroke-linecap="round" stroke-linejoin="round"/>
<path d="M255.554 67.5056C256.191 67.357 257.042 67.3212 257.766 67.8467L257.836 67.8993C259.075 68.8739 259.338 70.3078 259.501 71.5463C259.575 72.1027 259.705 72.9019 259.689 73.6316C259.673 74.3688 259.51 75.3252 258.744 76.0331C258.294 76.4488 257.661 76.648 257.173 76.7612C256.632 76.8867 256.016 76.9593 255.414 76.9948C254.285 77.0614 253.04 77.0064 252.192 76.8421C252.166 76.8842 252.142 76.9237 252.118 76.9599C251.935 77.2349 251.701 77.4959 251.457 77.7315C250.967 78.2052 250.328 78.6798 249.662 79.0858C248.996 79.4918 248.254 79.8588 247.544 80.0904C246.897 80.3016 246.028 80.4849 245.255 80.2161C243.315 79.5416 242.97 77.6285 242.855 76.3047C242.829 76.0111 242.796 75.7409 242.762 75.4494C242.729 75.1685 242.687 74.5406 242.674 74.2365C242.647 73.609 242.687 73.0118 243.054 72.3627C243.495 71.5821 244.23 71.2453 244.837 71.0365C245.511 70.8051 246.284 70.6968 246.993 70.6515C247.713 70.6055 248.432 70.6209 249.026 70.6656C249.578 70.7071 250.145 70.7824 250.502 70.9036C250.543 70.9174 250.583 70.932 250.622 70.947C251.243 70.1498 252.409 69.1009 253.598 68.3689C254.198 67.9988 254.878 67.6633 255.554 67.5056Z" fill="#FC9B8E" stroke="black" stroke-width="2.42258" stroke-linecap="round" stroke-linejoin="round"/>
<path d="M250.923 70.9121C250.923 70.9121 252.842 73.7225 252.345 76.7788" stroke="black" stroke-width="2.42258" stroke-linecap="round" stroke-linejoin="round"/>
<path d="M253.913 212.806C271.73 212.806 286.174 216.534 286.174 221.132C286.174 225.73 271.73 229.457 253.913 229.457C236.095 229.457 221.652 225.73 221.652 221.132C221.652 216.534 236.095 212.806 253.913 212.806Z" fill="black"/>
<path d="M302.586 202.899C310.87 202.899 317.585 204.632 317.585 206.77C317.585 208.908 310.87 210.641 302.586 210.641C294.302 210.641 287.586 208.908 287.586 206.77C287.586 204.632 294.302 202.899 302.586 202.899Z" fill="black"/>
<path fill-rule="evenodd" clip-rule="evenodd" d="M311.763 166.873C313.204 166.057 314.74 165.516 316.309 165.764L325.083 168.032C326.593 172.826 324.205 184.756 319.882 187.203L311.226 184.939C309.161 184.237 307.471 182.523 306.672 179.985C305.161 175.191 307.44 169.32 311.763 166.873Z" fill="#D44C3B"/>
<path fill-rule="evenodd" clip-rule="evenodd" d="M311.763 166.873C313.204 166.057 314.74 165.516 316.309 165.764L325.083 168.032C326.593 172.826 324.205 184.756 319.882 187.203L311.226 184.939C309.161 184.237 307.471 182.523 306.672 179.985C305.161 175.191 307.44 169.32 311.763 166.873Z" fill="#75726F"/>
<path fill-rule="evenodd" clip-rule="evenodd" d="M311.763 166.873C313.204 166.057 314.74 165.516 316.309 165.764L325.083 168.032C326.593 172.826 324.205 184.756 319.882 187.203L311.226 184.939C309.161 184.237 307.471 182.523 306.672 179.985C305.161 175.191 307.44 169.32 311.763 166.873Z" stroke="black" stroke-width="2.42258" stroke-linejoin="round"/>
<path fill-rule="evenodd" clip-rule="evenodd" d="M319.765 168.939C324.088 166.493 328.816 168.399 330.326 173.195L330.327 173.196C331.837 177.99 329.558 183.861 325.236 186.308C320.913 188.754 316.186 186.848 314.674 182.051C313.164 177.257 315.443 171.386 319.765 168.939Z" fill="#FC9B8E"/>
<path fill-rule="evenodd" clip-rule="evenodd" d="M319.765 168.939C324.088 166.493 328.816 168.399 330.326 173.195L330.327 173.196C331.837 177.99 329.558 183.861 325.236 186.308C320.913 188.754 316.186 186.848 314.674 182.051C313.164 177.257 315.443 171.386 319.765 168.939Z" fill="#EBE7E4"/>
<path fill-rule="evenodd" clip-rule="evenodd" d="M319.765 168.939C324.088 166.493 328.816 168.399 330.326 173.195L330.327 173.196C331.837 177.99 329.558 183.861 325.236 186.308C320.913 188.754 316.186 186.848 314.674 182.051C313.164 177.257 315.443 171.386 319.765 168.939Z" stroke="black" stroke-width="2.42258" stroke-linejoin="round"/>
<path d="M304.173 190.567L297.034 192.41L310.739 150.595L317.878 148.752L304.173 190.567Z" fill="#FC9B8E"/>
<path d="M304.173 190.567L297.034 192.41L310.739 150.595L317.878 148.752L304.173 190.567Z" fill="#EBE7E4"/>
<path d="M304.173 190.567L297.034 192.41L310.739 150.595L317.878 148.752L304.173 190.567Z" stroke="black" stroke-width="2.42258" stroke-linejoin="round"/>
<path d="M289.248 190.462L297.033 192.411L310.632 150.635L302.847 148.686L289.248 190.462Z" fill="#D44C3B"/>
<path d="M289.248 190.462L297.033 192.411L310.632 150.635L302.847 148.686L289.248 190.462Z" fill="#75726F"/>
<path d="M289.248 190.462L297.033 192.411L310.632 150.635L302.847 148.686L289.248 190.462Z" stroke="black" stroke-width="2.42258" stroke-linejoin="round"/>
<path d="M310.017 146.789L317.801 148.738L310.662 150.581L302.878 148.632L310.017 146.789Z" fill="#EBE7E4" stroke="black" stroke-width="2.42258" stroke-linejoin="round"/>
<path fill-rule="evenodd" clip-rule="evenodd" d="M282.51 150.983C283.952 150.167 285.488 149.625 287.056 149.873L295.83 152.142C297.341 156.936 294.952 168.866 290.629 171.312L281.973 169.049C279.909 168.346 278.219 166.633 277.419 164.095C275.908 159.301 278.187 153.429 282.51 150.983Z" fill="#D44C3B"/>
<path fill-rule="evenodd" clip-rule="evenodd" d="M282.51 150.983C283.952 150.167 285.488 149.625 287.056 149.873L295.83 152.142C297.341 156.936 294.952 168.866 290.629 171.312L281.973 169.049C279.909 168.346 278.219 166.633 277.419 164.095C275.908 159.301 278.187 153.429 282.51 150.983Z" fill="#75726F"/>
<path fill-rule="evenodd" clip-rule="evenodd" d="M282.51 150.983C283.952 150.167 285.488 149.625 287.056 149.873L295.83 152.142C297.341 156.936 294.952 168.866 290.629 171.312L281.973 169.049C279.909 168.346 278.219 166.633 277.419 164.095C275.908 159.301 278.187 153.429 282.51 150.983Z" stroke="black" stroke-width="2.42258" stroke-linejoin="round"/>
<path fill-rule="evenodd" clip-rule="evenodd" d="M290.521 153.049C294.844 150.603 299.571 152.508 301.081 157.305L301.082 157.305C302.592 162.099 300.314 167.971 295.991 170.417C291.668 172.863 286.941 170.957 285.43 166.161C283.919 161.367 286.198 155.495 290.521 153.049Z" fill="#FC9B8E"/>
<path fill-rule="evenodd" clip-rule="evenodd" d="M290.521 153.049C294.844 150.603 299.571 152.508 301.081 157.305L301.082 157.305C302.592 162.099 300.314 167.971 295.991 170.417C291.668 172.863 286.941 170.957 285.43 166.161C283.919 161.367 286.198 155.495 290.521 153.049Z" fill="#EBE7E4"/>
<path fill-rule="evenodd" clip-rule="evenodd" d="M290.521 153.049C294.844 150.603 299.571 152.508 301.081 157.305L301.082 157.305C302.592 162.099 300.314 167.971 295.991 170.417C291.668 172.863 286.941 170.957 285.43 166.161C283.919 161.367 286.198 155.495 290.521 153.049Z" stroke="black" stroke-width="2.42258" stroke-linejoin="round"/>
<path d="M268.675 168.661L245.369 174.471L243.869 183.116L249.625 181.681C254.326 180.509 258.352 180.299 261.703 181.051C262.324 181.185 262.917 181.352 263.484 181.55L274.275 183.846C274.275 222.229 256.743 221.178 249.057 223.095C244.409 224.253 240.356 224.414 236.898 223.578C233.466 222.707 230.818 220.903 228.953 218.165C227.116 215.42 226.197 211.862 226.197 207.49L239.086 204.276C239.086 207.172 239.883 209.258 241.477 210.531C243.072 211.805 245.301 212.084 248.165 211.37C250.84 210.703 252.962 209.352 254.529 207.318C256.123 205.278 256.921 202.865 256.921 200.081C256.921 197.129 255.988 195.091 254.124 193.969C252.259 192.846 249.544 192.73 245.977 193.619L228.872 197.884L234.303 165.367L268.675 156.797V168.661Z" fill="#75726F" stroke="black" stroke-width="2.42258" stroke-linejoin="round"/>
<path d="M239.086 204.209C239.086 207.105 239.882 209.19 241.477 210.464C241.768 210.697 242.081 210.896 242.415 211.062C242.443 215.343 243.361 218.835 245.17 221.538C247.035 224.275 249.683 226.08 253.115 226.951C253.437 227.029 253.764 227.098 254.096 227.159L254.048 227.175L238.182 223.77C237.745 223.698 237.316 223.612 236.897 223.511C236.788 223.483 236.68 223.455 236.572 223.425L236.344 223.376L236.376 223.369C233.196 222.452 230.721 220.695 228.953 218.098C227.115 215.353 226.196 211.795 226.196 207.423L239.086 204.209Z" fill="#FFE1DE"/>
<path d="M239.086 204.209C239.086 207.105 239.882 209.19 241.477 210.464C241.768 210.697 242.081 210.896 242.415 211.062C242.443 215.343 243.361 218.835 245.17 221.538C247.035 224.275 249.683 226.08 253.115 226.951C253.437 227.029 253.764 227.098 254.096 227.159L254.048 227.175L238.182 223.77C237.745 223.698 237.316 223.612 236.897 223.511C236.788 223.483 236.68 223.455 236.572 223.425L236.344 223.376L236.376 223.369C233.196 222.452 230.721 220.695 228.953 218.098C227.115 215.353 226.196 211.795 226.196 207.423L239.086 204.209Z" fill="#8F8B88"/>
<path d="M239.086 204.209C239.086 207.105 239.882 209.19 241.477 210.464C241.768 210.697 242.081 210.896 242.415 211.062C242.443 215.343 243.361 218.835 245.17 221.538C247.035 224.275 249.683 226.08 253.115 226.951C253.437 227.029 253.764 227.098 254.096 227.159L254.048 227.175L238.182 223.77C237.745 223.698 237.316 223.612 236.897 223.511C236.788 223.483 236.68 223.455 236.572 223.425L236.344 223.376L236.376 223.369C233.196 222.452 230.721 220.695 228.953 218.098C227.115 215.353 226.196 211.795 226.196 207.423L239.086 204.209Z" stroke="black" stroke-width="2.42258" stroke-linejoin="round"/>
<path d="M261.091 225.712C256.443 226.871 252.39 227.032 248.931 226.196C245.499 225.325 242.851 223.521 240.987 220.783C239.149 218.039 238.23 214.48 238.23 210.108L251.12 206.894C251.12 209.791 251.917 211.875 253.511 213.149C255.105 214.422 257.335 214.702 260.199 213.988C262.874 213.321 264.995 211.97 266.562 209.937C268.157 207.896 268.954 205.483 268.954 202.698C268.954 199.746 268.022 197.709 266.157 196.587C264.293 195.464 261.577 195.348 258.01 196.237L240.906 200.502L246.337 167.985L280.708 159.415V171.279L257.402 177.089L255.902 185.734L261.658 184.299C266.36 183.127 270.386 182.917 273.737 183.669C277.087 184.393 279.641 186.054 281.397 188.651C283.154 191.221 284.032 194.622 284.032 198.855C284.032 203.116 283.086 207.084 281.195 210.758C279.33 214.398 276.655 217.515 273.169 220.111C269.71 222.7 265.684 224.567 261.091 225.712Z" fill="#EBE7E4" stroke="black" stroke-width="2.42258" stroke-linejoin="round"/>
<path d="M268.84 156.842L280.497 159.323L246.419 167.946L234.605 165.242L268.84 156.842Z" fill="#EBE7E4" stroke="black" stroke-width="2.42258" stroke-linejoin="round"/>
<path d="M239.052 204.109L251.03 206.858L238.139 210.128L226.384 207.379L239.052 204.109Z" fill="#EBE7E4" stroke="black" stroke-width="2.42258" stroke-linejoin="round"/>
<path d="M229.031 197.155L240.865 200.537L246.474 168.002L234.338 165.418L229.031 197.155Z" fill="#FFE1DE"/>
<path d="M229.031 197.155L240.865 200.537L246.474 168.002L234.338 165.418L229.031 197.155Z" fill="#8F8B88"/>
<path d="M229.031 197.155L240.865 200.537L246.474 168.002L234.338 165.418L229.031 197.155Z" stroke="black" stroke-width="2.42258" stroke-linejoin="round"/>
<defs>
<radialGradient id="paint0_radial_5618_141977" cx="0" cy="0" r="1" gradientUnits="userSpaceOnUse" gradientTransform="translate(221.318 109.783) rotate(135) scale(114.854)">
<stop stop-color="#FFBF73"/>
<stop offset="0.495" stop-color="#FF488B"/>
<stop offset="1" stop-color="#FFB5DF"/>
</radialGradient>
<clipPath id="clip0_5618_141977">
<rect width="137.049" height="35.5311" fill="white" transform="translate(128.366 171.01)"/>
</clipPath>
</defs>
</svg>
