<svg width="398" height="307" viewBox="0 0 398 307" fill="none" xmlns="http://www.w3.org/2000/svg">
<rect width="398" height="307" fill="#ADA95B"/>
<path d="M142.997 125.273C149.469 122.123 151.078 118.24 149.389 116.721C142.554 109.488 119.158 126.78 115.646 128.405C124.242 129.296 137.558 127.92 142.997 125.273Z" fill="#A55AB8" stroke="black" stroke-width="2.42264" stroke-linecap="round" stroke-linejoin="round"/>
<path d="M122.388 88.6526C119.063 81.2811 123.486 69.2058 129.056 68.7523C132.147 69.4961 139.037 76.1008 146.178 82.4527C150.439 88.7357 136.725 101.127 131.577 99.5806C128.124 95.5887 126.349 94.2416 122.388 88.6526Z" fill="#DDA2FA" stroke="black" stroke-width="2.42264" stroke-linecap="round" stroke-linejoin="round"/>
<path d="M101.442 73.8512C111.071 76.3665 112.34 67.1008 117.637 67.4274C122.094 67.8721 127.669 77.106 121.78 81.0345C115.891 84.963 104.226 78.1344 101.442 73.8512Z" fill="#A55AB8" stroke="black" stroke-width="2.42264" stroke-linecap="round" stroke-linejoin="round"/>
<path d="M99.514 71.7153C98.6806 72.275 96.1023 74.4062 93.4626 76.7389C94.1882 83.7795 100.507 119.237 111.741 131.55C128.834 131.796 141.516 111.543 149.39 116.717C142.67 109.243 139.005 101.026 137.701 95.7831C135.883 88.4684 134.202 75.1156 129.056 68.7516C126.476 68.0289 121.201 67.6481 117.637 67.428C121.719 68.2434 124.426 75.5453 119.834 77.612C115.242 79.6787 109.703 76.7912 107.066 74.5667C104.016 71.9929 101.373 71.1651 99.514 71.7153Z" fill="#CCB1FA" stroke="black" stroke-width="2.42264" stroke-linecap="round" stroke-linejoin="round"/>
<path d="M104.697 105.481C103.621 109.595 82.7427 101.634 84.0563 96.4584C86.1653 92.1276 93.2401 93.4024 96.9469 95.0227C100.654 96.6429 105.724 101.559 104.697 105.481Z" fill="#A55AB8" stroke="black" stroke-width="2.42264" stroke-linecap="round" stroke-linejoin="round"/>
<path d="M108.085 91.6114C107.795 83.5303 98.6548 74.6755 93.4619 76.7398C91.0217 78.7775 87.6382 87.5998 84.0562 96.4601C85.9867 91.6733 106.116 100.22 104.697 105.482C105.726 102.447 107.014 98.3778 108.085 91.6114Z" fill="#DDA2FA" stroke="black" stroke-width="2.42264" stroke-linecap="round" stroke-linejoin="round"/>
<g clip-path="url(#clip0_5917_65873)">
<path d="M198.988 213.611C229.125 213.611 253.555 206.225 253.555 197.114C253.555 188.003 229.125 180.617 198.988 180.617C168.851 180.617 144.421 188.003 144.421 197.114C144.421 206.225 168.851 213.611 198.988 213.611Z" fill="black"/>
</g>
<path fill-rule="evenodd" clip-rule="evenodd" d="M193.369 75.3242C193.369 75.3242 184.534 77.6261 171.805 80.8573C159.126 84.0755 148.033 93.2399 141.516 107.597C128.46 136.373 138.744 175.097 164.471 194.084C176.736 203.134 190.294 206.077 202.542 203.566C216.47 200.017 222.816 198.286 222.816 198.286C235.873 169.51 237.616 111.148 211.889 92.1607L193.369 75.3242Z" fill="#3A7DCF" stroke="black" stroke-width="2.42264" stroke-linejoin="round"/>
<path d="M202.542 203.566C190.294 206.076 176.736 203.133 164.471 194.083C161.812 192.121 159.318 189.948 156.997 187.596L231.391 168.686C230.083 181.861 227.042 188.971 222.816 198.285C222.816 198.285 216.47 200.016 202.542 203.566Z" fill="black" stroke="black" stroke-width="2.42264" stroke-linejoin="round"/>
<path d="M193.369 75.3242L211.889 92.1607C212.982 92.9671 214.025 93.8445 215.019 94.7876L139.076 113.895C139.773 111.753 140.585 109.65 141.517 107.597C148.033 93.2399 159.127 84.0755 171.805 80.8573C184.534 77.6261 193.369 75.3242 193.369 75.3242Z" fill="#DFECF7" stroke="black" stroke-width="2.42264" stroke-linejoin="round"/>
<path fill-rule="evenodd" clip-rule="evenodd" d="M229.523 98.4026C211.041 82.1416 187.395 85.888 176.698 106.773C166.002 127.661 172.317 157.77 190.791 174.019C209.276 190.274 232.924 186.534 243.621 165.649C254.316 144.761 248.001 114.652 229.527 98.4036L229.523 98.4026Z" fill="#DFECF7" stroke="black" stroke-width="2.42264" stroke-linejoin="round"/>
<path d="M189.408 92.6351C201.184 85.4478 216.614 87.044 229.523 98.4023L229.527 98.4034C248.001 114.652 254.316 144.761 243.621 165.649C238.804 175.053 231.361 180.98 222.946 183.172C228.028 180.07 232.43 175.333 235.655 169.037C246.35 148.15 240.035 118.04 221.561 101.792L221.557 101.791C211.399 92.8529 199.68 89.9601 189.408 92.6351Z" fill="#66ABFE" stroke="black" stroke-width="2.42264" stroke-linejoin="round"/>
<path d="M229.523 98.4023C216.614 87.044 201.184 85.4478 189.408 92.6351C199.68 89.9601 211.399 92.8529 221.557 101.791L221.561 101.792C225.957 105.658 229.664 110.308 232.617 115.433L241.371 113.137C238.233 107.069 234.595 102.861 229.527 98.4034L229.523 98.4023Z" fill="black" stroke="black" stroke-width="2.42264" stroke-linejoin="round"/>
<path fill-rule="evenodd" clip-rule="evenodd" d="M233.493 84.3481C207.754 65.3458 176.312 73.2627 163.253 102.036C150.196 130.812 160.48 169.535 186.208 188.522C211.95 207.517 243.394 199.609 256.453 170.836C269.51 142.06 259.226 103.336 233.498 84.3489L233.493 84.3481ZM229.523 98.4039C211.041 82.1428 187.394 85.8893 176.697 106.775C166.002 127.662 172.317 157.771 190.791 174.02C209.276 190.276 232.924 186.536 243.621 165.65C254.316 144.763 248.001 114.654 229.527 98.4049L229.523 98.4039Z" fill="#8DC5F7" stroke="black" stroke-width="2.42264" stroke-linejoin="round"/>
<path fill-rule="evenodd" clip-rule="evenodd" d="M197.183 96.8789C196.143 96.1111 194.873 96.431 194.345 97.5937C193.817 98.7565 194.233 100.321 195.273 101.089C196.313 101.856 197.584 101.537 198.111 100.374C198.639 99.211 198.223 97.6462 197.183 96.8789Z" fill="black"/>
<path fill-rule="evenodd" clip-rule="evenodd" d="M233.67 131.447C232.63 130.679 231.359 130.999 230.831 132.162C230.304 133.325 230.719 134.89 231.759 135.657C232.799 136.424 234.07 136.105 234.598 134.942C235.125 133.779 234.709 132.215 233.67 131.447Z" fill="black"/>
<path fill-rule="evenodd" clip-rule="evenodd" d="M214.882 176.053C213.842 175.285 212.571 175.605 212.043 176.768C211.516 177.93 211.931 179.495 212.971 180.262C214.011 181.03 215.282 180.71 215.81 179.548C216.337 178.385 215.921 176.82 214.882 176.053Z" fill="black"/>
<path fill-rule="evenodd" clip-rule="evenodd" d="M179.389 145.039C178.349 144.271 177.078 144.591 176.551 145.754C176.023 146.917 176.439 148.481 177.478 149.249C178.519 150.016 179.789 149.697 180.317 148.534C180.844 147.371 180.429 145.806 179.389 145.039Z" fill="black"/>
<path fill-rule="evenodd" clip-rule="evenodd" d="M210.481 146.046L224.754 123.018C225.929 121.121 225.253 119.29 223.685 118.317C222.344 117.486 220.27 117.455 219.026 119.466L204.753 142.493C203.885 144.562 209.445 147.781 210.481 146.046Z" fill="#57C26E" stroke="black" stroke-width="2.42264" stroke-linejoin="round"/>
<path d="M216.863 146.08C218.271 142.331 214.776 133.387 211.361 131.204L202.856 133.621C201.758 134.279 201.088 135.409 200.619 136.659C199.211 140.408 200.84 145.218 204.254 147.401C206.062 148.557 208.06 148.646 209.633 148.109L216.863 146.08Z" fill="black" stroke="black" stroke-width="2.42264" stroke-linejoin="round"/>
<path d="M202.856 133.621C201.758 134.279 201.088 135.409 200.619 136.659C199.896 138.584 199.974 140.789 200.683 142.774L208.335 140.724L208.323 136.659L211.349 131.163L202.856 133.621Z" fill="#DFECF7" stroke="black" stroke-width="2.42264" stroke-linejoin="round"/>
<path fill-rule="evenodd" clip-rule="evenodd" d="M207.938 134.746C209.358 131.012 213.257 129.733 216.648 131.888L216.649 131.888C220.038 134.041 221.636 138.815 220.216 142.549C218.795 146.283 214.896 147.561 211.505 145.407C208.116 143.254 206.518 138.48 207.938 134.746Z" fill="#66ABFE" stroke="black" stroke-width="2.42264" stroke-linejoin="round"/>
<path fill-rule="evenodd" clip-rule="evenodd" d="M207.635 132.101L190.199 111.365C188.762 109.658 186.811 109.73 185.399 110.916C184.191 111.931 183.516 113.892 185.039 115.701L202.474 136.437C204.17 137.906 208.961 133.627 207.635 132.101Z" fill="#57C26E" stroke="black" stroke-width="2.42264" stroke-linejoin="round"/>
<path d="M271.183 68.3629L279.34 71.9083L266.264 74.4141C265.204 74.337 255.101 84.2447 255.101 84.2447C253.868 86.2226 253.567 102.171 256.123 103.122L263.912 111.955C261.396 112.542 260.022 112.606 260.022 112.606L251.169 108.664C246.365 106.435 242.84 101.792 241.997 95.3965C240.512 84.0915 247.917 71.8722 258.537 68.1088C263.101 66.492 267.515 66.7023 271.183 68.3629Z" fill="#AB8A1D" stroke="black" stroke-width="2.42264" stroke-linejoin="round"/>
<path d="M270.21 79.0762C275.51 78.4148 282.786 81.2935 282.874 89.8703L282.875 89.8714C283.171 96.8582 278.388 104.165 272.19 106.188C268.121 107.516 261.562 104.886 259.44 101.872C260.087 101.791 260.75 101.643 261.424 101.423C267.622 99.4001 272.406 92.0933 272.109 85.1065L272.109 85.1054C272.007 82.7044 271.32 80.653 270.21 79.0762Z" fill="#AB8A1D" stroke="black" stroke-width="2.42264" stroke-linejoin="round"/>
<path fill-rule="evenodd" clip-rule="evenodd" d="M289.24 85.5935C287.755 74.2818 277.944 68.163 267.323 71.9249C256.702 75.6881 249.298 87.9076 250.784 99.2127C252.272 110.524 262.08 116.645 272.701 112.883C283.323 109.12 290.727 96.9001 289.241 85.5951L289.24 85.5935ZM280.752 89.0221C280.44 82.477 275.38 78.6862 269.448 80.5539C263.515 82.4224 258.96 89.2424 259.272 95.7837C259.585 102.328 264.645 106.12 270.577 104.253C276.51 102.384 281.065 95.5643 280.752 89.023L280.752 89.0221Z" fill="#EDCC37" stroke="black" stroke-width="2.42264" stroke-linejoin="round"/>
<path d="M269.782 70.2507C274.692 71.1165 278.943 70.2847 279.373 67.8501C279.802 65.4155 276.091 63.1797 271.181 62.3139C266.271 61.448 262.019 62.2799 261.59 64.7145C261.161 67.1491 264.871 69.3848 269.782 70.2507Z" fill="#EDCC37" stroke="black" stroke-width="2.42264" stroke-linejoin="round"/>
<path d="M288.003 52.6176C289.099 53.9841 288.843 55.914 287.429 56.9355L278.448 63.4249C278.031 63.7261 277.542 63.9251 277.021 64.0046L274.751 64.3517C274.383 64.4079 274.006 64.4034 273.638 64.3384L268.181 63.3759C267.812 63.3109 267.457 63.1864 267.131 63.0078L265.116 61.9051C264.654 61.6524 264.262 61.298 263.973 60.8725L257.753 51.7031C256.773 50.2596 257.193 48.3581 258.69 47.4489L288.003 52.6176Z" fill="#66ABFE" stroke="black" stroke-width="2.42264" stroke-linejoin="round"/>
<path d="M288.594 55.1567C288.868 54.2489 288.698 53.226 288.04 52.4059L277.561 41.2579C276.069 39.6706 273.699 39.2787 271.775 40.3013L258.727 47.2373C257.805 47.7969 257.292 48.7322 257.262 49.7053L262.925 53.0445C263.825 53.6019 265.132 53.8323 265.132 53.8323L278.89 56.2583L281.272 56.1987L288.594 55.1567Z" fill="#8DC5F7" stroke="black" stroke-width="2.42264" stroke-linejoin="round"/>
<path d="M273.544 39.9208L265.257 53.5936L268.182 63.3755" stroke="black" stroke-width="2.42264" stroke-linecap="round" stroke-linejoin="round"/>
<path d="M276.524 40.4205L279.733 56.1447L273.639 64.3366" stroke="black" stroke-width="2.42264" stroke-linecap="round" stroke-linejoin="round"/>
<path d="M146.632 215.991C165.317 215.991 180.463 212.056 180.463 207.201C180.463 202.347 165.317 198.412 146.632 198.412C127.948 198.412 112.801 202.347 112.801 207.201C112.801 212.056 127.948 215.991 146.632 215.991Z" fill="black"/>
<path d="M128.865 232.92C147.55 232.92 162.697 228.985 162.697 224.131C162.697 219.277 147.55 215.342 128.865 215.342C110.181 215.342 95.0342 219.277 95.0342 224.131C95.0342 228.985 110.181 232.92 128.865 232.92Z" fill="black"/>
<path fill-rule="evenodd" clip-rule="evenodd" d="M116.177 190.449C115.654 190.544 115.547 196.869 115.693 199.229C115.792 200.831 118.374 202.998 124.917 204.786C131.46 206.574 133.688 207.137 139.258 208.817C148.377 211.566 154.748 212.533 162.764 211.566C171.712 210.488 175.418 208.919 177.263 205.878C177.906 204.713 177.577 196.962 177.297 196.895C175.699 197.278 116.177 190.449 116.177 190.449Z" fill="#FFE1DE" stroke="black" stroke-width="2.42264" stroke-linejoin="round"/>
<path fill-rule="evenodd" clip-rule="evenodd" d="M117.454 178.193C116.723 182.372 118.137 191.944 125.236 190.934C132.333 189.924 141.452 182.907 141.44 176.904C139.955 176.369 137.511 178.603 134.95 177.203C132.39 175.802 127.495 172.429 122.334 173.767C119.843 174.412 117.864 175.853 117.454 178.193Z" fill="#D44C3B" stroke="black" stroke-width="2.42264" stroke-linejoin="round"/>
<path fill-rule="evenodd" clip-rule="evenodd" d="M133.518 181.121C131.063 178.633 132.922 172.417 139.204 170.308C146.545 167.843 149.384 171.671 151.408 173.257C154.684 176.369 165.337 185.448 169.087 187.837C172.014 189.7 166.67 196.933 153.971 192.442C151.631 192.013 133.518 181.122 133.518 181.122V181.121Z" fill="#FC9B8E" stroke="black" stroke-width="2.42264" stroke-linejoin="round"/>
<path fill-rule="evenodd" clip-rule="evenodd" d="M177.297 196.894C177.484 193.683 176.334 191.638 173.307 190.039C171.214 188.933 169.735 188.14 169.089 187.834C169.665 192.438 158.715 193.92 153.973 192.438C149.64 195.693 148.454 199.58 149.094 202.364C153.973 203.817 163.497 204.278 171.352 201.842C177.483 199.942 177.296 196.894 177.296 196.894H177.297Z" fill="#FC9B8E" stroke="black" stroke-width="2.42264" stroke-linejoin="round"/>
<path fill-rule="evenodd" clip-rule="evenodd" d="M117.454 178.195C116.697 182.367 122.346 185.849 126.37 184.953C130.393 184.057 132.535 181.929 134.27 180.508C135.23 179.72 136.595 179.664 137.616 180.371C140.881 182.634 148.094 187.345 155.1 190.009C156.306 190.467 156.524 192.085 155.477 192.84C152.268 195.154 148.255 198.961 149.094 202.368C143.128 201.078 141.265 199.792 132.038 197.678C124.56 195.965 117.165 194.39 116.176 190.454C115.805 185.615 117.453 178.198 117.453 178.198L117.454 178.195Z" fill="#E3715D" stroke="black" stroke-width="2.42264" stroke-linejoin="round"/>
<path d="M163.462 183.6C158.167 182.672 151.417 186.162 148.281 189.579C146.041 190.675 139.433 186.753 139.877 184.357C142.965 179.384 152.617 175.437 156.547 176.823C158.874 177.644 163.462 181.945 163.462 183.6Z" fill="#FFE1DE" stroke="black" stroke-width="2.42264" stroke-linecap="round" stroke-linejoin="round"/>
<path fill-rule="evenodd" clip-rule="evenodd" d="M97.491 209.271C96.9676 209.366 96.861 215.691 97.0071 218.051C97.106 219.653 99.6883 221.82 106.231 223.608C112.774 225.396 115.002 225.959 120.572 227.639C129.691 230.389 136.062 231.355 144.078 230.389C153.026 229.31 156.732 227.741 158.577 224.701C159.219 223.535 158.891 215.784 158.611 215.717C157.013 216.101 97.491 209.271 97.491 209.271Z" fill="#FFE1DE" stroke="black" stroke-width="2.42264" stroke-linejoin="round"/>
<path fill-rule="evenodd" clip-rule="evenodd" d="M98.7685 197.017C98.0372 201.196 99.4517 210.769 106.55 209.758C113.647 208.748 122.766 201.732 122.754 195.729C121.269 195.193 118.825 197.427 116.264 196.027C113.705 194.626 108.809 191.253 103.648 192.591C101.158 193.237 99.1782 194.677 98.7685 197.017Z" fill="#D44C3B" stroke="black" stroke-width="2.42264" stroke-linejoin="round"/>
<path fill-rule="evenodd" clip-rule="evenodd" d="M114.835 199.943C112.381 197.455 114.24 191.239 120.522 189.13C127.863 186.665 130.702 190.493 132.726 192.079C136.002 195.191 146.654 204.271 150.405 206.66C153.331 208.522 147.988 215.755 135.289 211.264C132.949 210.835 114.835 199.945 114.835 199.945V199.943Z" fill="#FC9B8E" stroke="black" stroke-width="2.42264" stroke-linejoin="round"/>
<path fill-rule="evenodd" clip-rule="evenodd" d="M158.611 215.718C158.798 212.507 157.648 210.462 154.621 208.863C152.528 207.757 151.049 206.964 150.403 206.658C150.979 211.263 140.029 212.745 135.287 211.263C130.954 214.517 129.768 218.404 130.407 221.188C135.287 222.641 144.811 223.103 152.666 220.666C158.797 218.766 158.61 215.718 158.61 215.718H158.611Z" fill="#FC9B8E" stroke="black" stroke-width="2.42264" stroke-linejoin="round"/>
<path fill-rule="evenodd" clip-rule="evenodd" d="M98.7687 197.018C98.0113 201.189 103.661 204.671 107.684 203.775C111.707 202.879 113.85 200.752 115.584 199.33C116.545 198.542 117.909 198.486 118.93 199.194C122.196 201.456 129.408 206.167 136.414 208.832C137.621 209.29 137.838 210.907 136.792 211.662C133.582 213.976 129.57 217.783 130.408 221.19C124.442 219.9 122.579 218.614 113.352 216.501C105.875 214.787 98.4796 213.212 97.4905 209.276C97.1192 204.437 98.7672 197.021 98.7672 197.021L98.7687 197.018Z" fill="#E3715D" stroke="black" stroke-width="2.42264" stroke-linejoin="round"/>
<path d="M144.776 202.424C139.481 201.496 132.731 204.986 129.595 208.404C127.355 209.499 120.747 205.578 121.191 203.181C124.279 198.209 133.931 194.261 137.861 195.648C140.188 196.469 144.776 200.77 144.776 202.424Z" fill="#FFE1DE" stroke="black" stroke-width="2.42264" stroke-linecap="round" stroke-linejoin="round"/>
<path d="M270.691 232.933C244.947 232.933 224.078 227.548 224.078 220.904C224.078 214.261 244.947 208.875 270.691 208.875C296.435 208.875 317.304 214.261 317.304 220.904C317.304 227.548 296.435 232.933 270.691 232.933Z" fill="black"/>
<path fill-rule="evenodd" clip-rule="evenodd" d="M314.343 212.479L314.343 219.041V219.069H314.341C314.33 219.486 314.077 219.896 313.578 220.021L270.125 230.959C268.826 231.285 267.468 231.285 266.169 230.959L233.077 222.628C232.569 222.5 232.313 222.073 232.313 221.648L232.313 215.093L314.341 212.479H314.343Z" fill="#75726F" stroke="black" stroke-width="2.42264" stroke-linejoin="round"/>
<path fill-rule="evenodd" clip-rule="evenodd" d="M233.079 216.074L266.171 224.405C267.47 224.732 268.828 224.732 270.127 224.405L313.58 213.467C314.599 213.211 314.599 211.763 313.58 211.507L280.494 203.177C279.195 202.85 277.837 202.85 276.537 203.177L233.081 214.117C232.062 214.373 232.062 215.82 233.081 216.076L233.079 216.074Z" fill="#BAB6B3" stroke="black" stroke-width="2.42264" stroke-linejoin="round"/>
<path d="M267.526 218.209L292.403 211.949" stroke="black" stroke-width="2.42264" stroke-linecap="round" stroke-linejoin="round"/>
<path fill-rule="evenodd" clip-rule="evenodd" d="M225.751 168.5V169.469L275.666 183.256L275.666 158.239L278.838 156.944L273.089 155.501C271.995 155.266 270.084 154.784 267.857 155.281L228.336 165.183C226.816 165.566 225.751 166.934 225.751 168.5Z" fill="#EBE7E4" stroke="black" stroke-width="2.42264" stroke-linejoin="round"/>
<path fill-rule="evenodd" clip-rule="evenodd" d="M225.716 169.088V210.16C225.716 210.8 225.942 211.377 226.315 211.822C226.686 212.27 227.202 212.585 227.779 212.709L233.396 213.711V212.709L273.082 202.182C274.602 201.8 275.667 200.432 275.667 198.866V181.453L225.716 169.088Z" fill="#75726F" stroke="black" stroke-width="2.42264" stroke-linejoin="round"/>
<path fill-rule="evenodd" clip-rule="evenodd" d="M231.429 171.199L231.435 211.187C231.435 212.883 233.031 214.128 234.677 213.713L278.172 202.763C279.692 202.381 280.757 201.013 280.757 199.447V159.459C280.757 157.763 279.161 156.518 277.515 156.932L234.014 167.883C232.494 168.265 231.429 169.633 231.429 171.199Z" fill="#8DC5F7"/>
<path fill-rule="evenodd" clip-rule="evenodd" d="M231.429 171.199L231.435 211.187C231.435 212.883 233.031 214.128 234.677 213.713L278.172 202.763C279.692 202.381 280.757 201.013 280.757 199.447V159.459C280.757 157.763 279.161 156.518 277.515 156.932L234.014 167.883C232.494 168.265 231.429 169.633 231.429 171.199Z" fill="#BAB6B3"/>
<path fill-rule="evenodd" clip-rule="evenodd" d="M231.429 171.199L231.435 211.187C231.435 212.883 233.031 214.128 234.677 213.713L278.172 202.763C279.692 202.381 280.757 201.013 280.757 199.447V159.459C280.757 157.763 279.161 156.518 277.515 156.932L234.014 167.883C232.494 168.265 231.429 169.633 231.429 171.199Z" stroke="black" stroke-width="2.42264" stroke-linejoin="round"/>
<path d="M237.737 205.44L237.733 174.404C237.733 173.812 238.135 173.296 238.708 173.152L273.372 164.433C273.954 164.286 274.519 164.726 274.519 165.326V196.363C274.519 196.954 274.117 197.47 273.543 197.614L238.883 206.334C238.301 206.48 237.737 206.04 237.737 205.44Z" fill="#EBE7E4" stroke="black" stroke-width="2.42264" stroke-linejoin="round"/>
<defs>
<clipPath id="clip0_5917_65873">
<rect width="109.134" height="32.994" fill="white" transform="translate(144.421 180.617)"/>
</clipPath>
</defs>
</svg>
