<svg width="40" height="40" viewBox="0 0 40 40" fill="none" xmlns="http://www.w3.org/2000/svg">
<circle cx="20" cy="20" r="20" fill="#DDA2FA"/>
<path d="M17.9873 13.2939C15.1025 14.1586 13.0002 16.8338 13 20C13.0002 23.8658 16.1341 27 20 27C23.8659 27 26.9998 23.8658 27 20C26.9999 18.7058 26.6466 17.4941 26.0342 16.4541L27.4053 14.8877C28.4096 16.3398 28.9999 18.1008 29 20C28.9998 24.9704 24.9704 29 20 29C15.0296 29 11.0002 24.9704 11 20C11.0002 15.7161 13.9939 12.1332 18.0029 11.2246L17.9873 13.2939ZM20 9.00195C20.2392 9.00196 20.4789 9.00773 20.7188 9.02344C23.2406 9.18864 25.6288 10.2176 27.4814 11.9365L20 20V9.00195Z" fill="white"/>
</svg>
