<svg width="41" height="40" viewBox="0 0 41 40" fill="none" xmlns="http://www.w3.org/2000/svg">
<path d="M20.432 40.0053C9.9386 40.0053 1.43201 37.8101 1.43201 35.1021C1.43201 32.3941 9.9386 30.1989 20.432 30.1989C30.9254 30.1989 39.432 32.3941 39.432 35.1021C39.432 37.8101 30.9254 40.0053 20.432 40.0053Z" fill="black"/>
<path d="M23.5484 1.14418L29.5924 2.63209L19.5835 6.44371C18.7336 6.53066 12.1135 15.7907 12.1135 15.7907C11.4136 17.5297 13.4025 30.2057 15.5599 30.6024L22.9647 36.5117C21.0529 37.3279 19.9736 37.5707 19.9736 37.5707L13.3234 35.8852C9.20638 34.7907 5.76516 31.585 4.20443 26.6365C1.44815 17.8883 5.60757 7.17408 13.4949 2.70926C16.8848 0.790953 20.4106 0.340993 23.5484 1.14418Z" fill="#3A7DCF"/>
<path d="M23.5484 1.14418L29.5924 2.63209L19.5835 6.44371C18.7336 6.53066 12.1135 15.7907 12.1135 15.7907C11.4136 17.5297 13.4025 30.2057 15.5599 30.6024L22.9647 36.5117C21.0529 37.3279 19.9736 37.5707 19.9736 37.5707L13.3234 35.8852C9.20638 34.7907 5.76516 31.585 4.20443 26.6365C1.44815 17.8883 5.60757 7.17408 13.4949 2.70926C16.8848 0.790953 20.4106 0.340993 23.5484 1.14418Z" fill="#A55AB8"/>
<path d="M23.5484 1.14418L29.5924 2.63209L19.5835 6.44371C18.7336 6.53066 12.1135 15.7907 12.1135 15.7907C11.4136 17.5297 13.4025 30.2057 15.5599 30.6024L22.9647 36.5117C21.0529 37.3279 19.9736 37.5707 19.9736 37.5707L13.3234 35.8852C9.20638 34.7907 5.76516 31.585 4.20443 26.6365C1.44815 17.8883 5.60757 7.17408 13.4949 2.70926C16.8848 0.790953 20.4106 0.340993 23.5484 1.14418Z" stroke="black" stroke-width="1.33" stroke-linejoin="round"/>
<path fill-rule="evenodd" clip-rule="evenodd" d="M39.346 12.0913C36.5897 3.33775 27.9633 -0.139115 20.0749 4.32462C12.1864 8.78944 8.0281 19.5037 10.7844 28.2518C13.5428 37.0043 22.1682 40.4834 30.0566 36.0196C37.945 31.5548 42.1033 20.8405 39.3471 12.0924L39.346 12.0913Z" fill="#8DC5F7"/>
<path fill-rule="evenodd" clip-rule="evenodd" d="M39.346 12.0913C36.5897 3.33775 27.9633 -0.139115 20.0749 4.32462C12.1864 8.78944 8.0281 19.5037 10.7844 28.2518C13.5428 37.0043 22.1682 40.4834 30.0566 36.0196C37.945 31.5548 42.1033 20.8405 39.3471 12.0924L39.346 12.0913Z" fill="#DDA2FA"/>
<path fill-rule="evenodd" clip-rule="evenodd" d="M39.346 12.0913C36.5897 3.33775 27.9633 -0.139115 20.0749 4.32462C12.1864 8.78944 8.0281 19.5037 10.7844 28.2518C13.5428 37.0043 22.1682 40.4834 30.0566 36.0196C37.945 31.5548 42.1033 20.8405 39.3471 12.0924L39.346 12.0913Z" stroke="black" stroke-width="1.33" stroke-linejoin="round"/>
<path d="M19.1791 4.64447L25.0638 19.7776L10.6431 17.2643L4.43364 15.7637L12.803 2.96033L19.1791 4.64447Z" fill="#E3715D"/>
<path d="M19.1791 4.64447L25.0638 19.7776L10.6431 17.2643L4.43364 15.7637L12.803 2.96033L19.1791 4.64447Z" fill="#FC9B8E"/>
<path d="M19.1791 4.64447L25.0638 19.7776L10.6431 17.2643L4.43364 15.7637L12.803 2.96033L19.1791 4.64447Z" fill="black"/>
<path d="M19.1791 4.64447L25.0638 19.7776L10.6431 17.2643L4.43364 15.7637L12.803 2.96033L19.1791 4.64447Z" stroke="black" stroke-width="1.26913" stroke-linejoin="round"/>
<path d="M7.1313 16.5776L0.665178 15.0198C1.80819 9.88574 4.8287 5.16687 9.20143 2.37549L15.4372 3.88029L7.1313 16.5776Z" fill="#E3715D"/>
<path d="M7.1313 16.5776L0.665178 15.0198C1.80819 9.88574 4.8287 5.16687 9.20143 2.37549L15.4372 3.88029L7.1313 16.5776Z" fill="#57C26E"/>
<path d="M7.1313 16.5776L0.665178 15.0198C1.80819 9.88574 4.8287 5.16687 9.20143 2.37549L15.4372 3.88029L7.1313 16.5776Z" stroke="black" stroke-width="1.33" stroke-linejoin="round"/>
<path d="M15.5337 3.92737L21.4185 19.0605L6.99744 16.5717C8.14045 11.4376 11.161 6.71875 15.5337 3.92737Z" fill="#E3715D"/>
<path d="M15.5337 3.92737L21.4185 19.0605L6.99744 16.5717C8.14045 11.4376 11.161 6.71875 15.5337 3.92737Z" fill="#FC9B8E"/>
<path d="M15.5337 3.92737L21.4185 19.0605L6.99744 16.5717C8.14045 11.4376 11.161 6.71875 15.5337 3.92737Z" fill="#DAF0DF"/>
<path d="M15.5337 3.92737L21.4185 19.0605L6.99744 16.5717C8.14045 11.4376 11.161 6.71875 15.5337 3.92737Z" stroke="black" stroke-width="1.33" stroke-linejoin="round"/>
</svg>
