<svg width="28" height="25" viewBox="0 0 28 25" fill="none" xmlns="http://www.w3.org/2000/svg">
<path d="M0 13.7784H3.90625V11.2216H1.42045C1.04167 11.2216 0.710227 11.0322 0.426136 10.6534C0.142045 10.2509 0 9.39867 0 8.09659H3.90625V0H10.5469C12.938 0 14.9621 0.355113 16.6193 1.06534C18.2765 1.77557 19.6023 2.74621 20.5966 3.97727C21.6146 5.18466 22.3366 6.55776 22.7628 8.09659H25.9943C26.3968 8.09659 26.7282 8.30966 26.9886 8.73579C27.2727 9.13825 27.4148 9.96685 27.4148 11.2216H23.331C23.3546 11.6477 23.3665 12.0739 23.3665 12.5C23.3665 12.9261 23.3546 13.3523 23.331 13.7784H25.9943C26.3968 13.7784 26.7282 13.9915 26.9886 14.4176C27.2727 14.8201 27.4148 15.6487 27.4148 16.9034H22.7628C22.2893 18.4422 21.5435 19.8272 20.5256 21.0582C19.5076 22.2656 18.17 23.2244 16.5128 23.9346C14.8793 24.6449 12.8906 25 10.5469 25H3.90625V16.9034H1.42045C1.01799 16.9034 0.674716 16.6903 0.390625 16.2642C0.130208 15.8381 0 15.0095 0 13.7784ZM8.02556 3.55113V8.09659H18.3594C17.7675 6.7945 16.8679 5.71733 15.6605 4.86505C14.4531 3.98911 12.9261 3.55113 11.0795 3.55113H8.02556ZM19.2471 12.5C19.2471 12.0739 19.2235 11.6477 19.1761 11.2216H8.02556V13.7784H19.1761C19.2235 13.3523 19.2471 12.9261 19.2471 12.5ZM11.0795 21.4489C12.9261 21.4489 14.4531 21.0227 15.6605 20.1704C16.8679 19.2945 17.7675 18.2055 18.3594 16.9034H8.02556V21.4489H11.0795Z" fill="#8F8B88"/>
</svg>
