<svg width="40" height="40" viewBox="0 0 40 40" fill="none" xmlns="http://www.w3.org/2000/svg">
<circle cx="20" cy="20" r="20" fill="#F5F4F2"/>
<path d="M21 10C21.3395 10 21.6734 10.0246 22 10.0713C25.0656 10.5098 27.4902 12.9344 27.9287 16L27.9316 16.0215C27.9764 16.3413 28 16.6679 28 17V27C28 28.6569 26.6569 30 25 30H15C13.3431 30 12 28.6569 12 27V13C12 11.3431 13.3431 10 15 10H21ZM15 12C14.4477 12 14 12.4477 14 13V27C14 27.5523 14.4477 28 15 28H25C25.5523 28 26 27.5523 26 27V17.9287C22.9344 17.4902 20.5098 15.0656 20.0713 12H15ZM24 26H16V24H24V26ZM24 22H16V20H24V22ZM20 18H16V16H20V18ZM22.1279 12.1279C22.5558 13.9836 24.0164 15.4442 25.8721 15.8721C25.4442 14.0164 23.9836 12.5558 22.1279 12.1279Z" fill="#1A1919"/>
</svg>
