<svg width="40" height="40" viewBox="0 0 40 40" fill="none" xmlns="http://www.w3.org/2000/svg">
<path d="M20.7206 10C21.1792 10.0003 21.5791 10.3128 21.6903 10.7578L22.1669 12.668C22.3298 13.3191 23.0755 13.6273 23.6512 13.2822L25.3417 12.2695C25.7349 12.0338 26.239 12.0959 26.5634 12.4199L27.5809 13.4375C27.9051 13.7619 27.9672 14.2658 27.7313 14.6592L26.7177 16.3477C26.3721 16.9233 26.6807 17.6689 27.3319 17.832L29.244 18.3105C29.6887 18.422 30.0006 18.8218 30.0009 19.2803V20.7188C30.0009 21.1774 29.6888 21.5779 29.244 21.6895L27.3319 22.167C26.6804 22.3297 26.3713 23.0755 26.7167 23.6514L27.7313 25.3408C27.9672 25.7341 27.9051 26.2381 27.5809 26.5625L26.5634 27.5801C26.239 27.9041 25.7349 27.9662 25.3417 27.7305L23.6522 26.7168C23.0764 26.3711 22.3298 26.6796 22.1669 27.3311L21.6903 29.2422C21.5791 29.6872 21.1792 29.9997 20.7206 30H19.2821C18.8233 30 18.4227 29.6873 18.3114 29.2422L17.8329 27.3311C17.6699 26.6795 16.9233 26.371 16.3475 26.7168L14.66 27.7305C14.2667 27.9662 13.7627 27.9042 13.4384 27.5801L12.4218 26.5625C12.0973 26.238 12.0353 25.7343 12.2714 25.3408L13.2841 23.6514C13.6293 23.0755 13.3202 22.3298 12.6688 22.167L10.7587 21.6895C10.3135 21.5782 9.99988 21.1776 9.99988 20.7188V19.2803C10.0001 18.8216 10.3137 18.4218 10.7587 18.3105L12.6688 17.832C13.3201 17.6691 13.6294 16.9234 13.2841 16.3477L12.2714 14.6592C12.0353 14.2657 12.0973 13.762 12.4218 13.4375L13.4384 12.4199C13.7627 12.0958 14.2667 12.0338 14.66 12.2695L16.3485 13.2822C16.9242 13.6276 17.6698 13.3192 17.8329 12.668L18.3114 10.7578C18.4227 10.3127 18.8233 10 19.2821 10H20.7206ZM20.0009 16C17.7917 16 16.0009 17.7909 16.0009 20C16.0009 22.2091 17.7917 24 20.0009 24C22.21 24 24.0009 22.2091 24.0009 20C24.0009 17.7909 22.21 16 20.0009 16Z" fill="white"/>
</svg>
