<svg width="20" height="20" viewBox="0 0 20 20" fill="none" xmlns="http://www.w3.org/2000/svg">
<rect width="20" height="20" rx="10" fill="#BAB6B3"/>
<path d="M10 3.33301C10.5522 3.33301 10.9998 3.78087 11 4.33301C11 4.48389 10.9651 4.62661 10.9053 4.75488C13.0492 5.17638 14.6668 7.06559 14.667 9.33301V13.333H16V14.667H11.333V15.333C11.333 16.0694 10.7364 16.667 10 16.667C9.26362 16.667 8.66699 16.0694 8.66699 15.333V14.667H4V13.333H5.33301V9.33301C5.33316 7.06592 6.95031 5.17674 9.09375 4.75488C9.03402 4.6267 9 4.48374 9 4.33301C9.00018 3.78087 9.44782 3.33301 10 3.33301ZM10 6C8.15916 6 6.66717 7.49221 6.66699 9.33301V13.333H13.333V9.33301C13.3328 7.49221 11.8408 6 10 6Z" fill="white"/>
</svg>
