<svg width="40" height="40" viewBox="0 0 40 40" fill="none" xmlns="http://www.w3.org/2000/svg">
<circle cx="20" cy="20" r="20" fill="#FF4C8B"/>
<path d="M29.9619 20.2532C29.9619 19.8689 29.5922 19.5055 28.9347 19.183C25.5094 17.503 22.7502 14.7437 21.0704 11.3187C20.7476 10.6609 20.3845 10.2915 20.0002 10.2915C19.6159 10.2915 19.2526 10.6612 18.9301 11.3187C17.25 14.744 14.4908 17.5032 11.0657 19.183C10.4082 19.5055 10.0386 19.8689 10.0386 20.2532C10.0386 20.6375 10.4082 21.0008 11.0657 21.3233C14.491 23.0034 17.2503 25.7626 18.9301 29.1876C19.2526 29.8452 19.6159 30.2148 20.0002 30.2148C20.3845 30.2148 20.7478 29.8452 21.0704 29.1876C22.7504 25.7623 25.5097 23.0031 28.9347 21.3233C29.5922 21.0008 29.9619 20.6375 29.9619 20.2532Z" fill="white"/>
</svg>
