<svg width="36" height="24" viewBox="0 0 36 24" fill="none" xmlns="http://www.w3.org/2000/svg">
<rect x="0.5" y="0.5" width="35" height="23" rx="3.5" fill="white"/>
<rect x="0.5" y="0.5" width="35" height="23" rx="3.5" stroke="#DFE5EB"/>
<path d="M17.659 8.00764L15.8267 15.9924H13.5648L15.3972 8.00764H17.659ZM27.0213 13.154L28.1952 10.1564L28.8823 13.154H27.0213ZM29.5122 15.9924H31.5736L29.7698 8.00764H27.8802C27.4508 8.00764 27.0786 8.24638 26.9354 8.59124L23.5856 15.9924H25.9333L26.3914 14.7987H29.2545L29.5122 15.9924ZM23.7001 13.3927C23.7001 11.297 20.5507 11.1644 20.5794 10.2359C20.5794 9.94414 20.8943 9.65234 21.5242 9.57275C21.8391 9.54623 22.7267 9.49317 23.7288 9.91761L24.1296 8.21986C23.5856 8.03416 22.8985 7.875 22.0395 7.875C19.835 7.875 18.2889 8.96262 18.2603 10.5277C18.2603 11.6684 19.3769 12.3316 20.2072 12.703C21.0661 13.1009 21.381 13.3396 21.3524 13.6845C21.3524 14.2151 20.6653 14.4538 20.0068 14.4538C18.8902 14.4803 18.2316 14.162 17.7163 13.9498L17.3155 15.7006C17.8308 15.9128 18.8043 16.125 19.8063 16.125C22.1541 16.125 23.7001 15.0374 23.7001 13.3927ZM14.4524 8.00764L10.8449 15.9924H8.49717L6.72207 9.62581C6.60754 9.2279 6.52165 9.09526 6.17808 8.9361C5.6341 8.67082 4.74654 8.40555 3.97351 8.24638L4.03077 8.00764H7.83867C8.32539 8.00764 8.75485 8.29944 8.86937 8.82999L9.81419 13.4458L12.1333 8.00764H14.4524Z" fill="#1A1F70"/>
</svg>
