<svg width="20" height="20" viewBox="0 0 20 20" fill="none" xmlns="http://www.w3.org/2000/svg">
<path fill-rule="evenodd" clip-rule="evenodd" d="M19.9967 19.9892L14.651 18.8549C13.2616 19.5861 11.6791 20 10 20C4.47715 20 0 15.5228 0 10C0 4.47715 4.47715 0 10 0C15.5228 0 20 4.47715 20 10C20 11.9752 19.4273 13.8167 18.439 15.3674L19.9967 19.9892ZM16.2381 15.0994L16.7524 14.2925C17.5422 13.0533 18 11.5832 18 10C18 5.58172 14.4183 2 10 2C5.58172 2 2 5.58172 2 10C2 14.4183 5.58172 18 10 18C11.3468 18 12.6104 17.6688 13.7195 17.085L14.3591 16.7484L16.9814 17.3048L16.2381 15.0994Z" fill="#FF0055"/>
</svg>
