<svg width="64" height="64" viewBox="0 0 64 64" fill="none" xmlns="http://www.w3.org/2000/svg">
<circle cx="32" cy="32" r="20" fill="#FF4C8B"/>
<path d="M41.9619 32.2532C41.9619 31.8689 41.5922 31.5055 40.9347 31.183C37.5094 29.503 34.7502 26.7437 33.0704 23.3187C32.7476 22.6609 32.3845 22.2915 32.0002 22.2915C31.6159 22.2915 31.2526 22.6612 30.9301 23.3187C29.25 26.744 26.4908 29.5032 23.0657 31.183C22.4082 31.5055 22.0386 31.8689 22.0386 32.2532C22.0386 32.6375 22.4082 33.0008 23.0657 33.3233C26.491 35.0034 29.2503 37.7626 30.9301 41.1876C31.2526 41.8452 31.6159 42.2148 32.0002 42.2148C32.3845 42.2148 32.7478 41.8452 33.0704 41.1876C34.7504 37.7623 37.5097 35.0031 40.9347 33.3233C41.5922 33.0008 41.9619 32.6375 41.9619 32.2532Z" fill="white"/>
</svg>
